<svg xmlns="http://www.w3.org/2000/svg" width="280" height="78" viewBox="0 0 280 78" fill="none">
  <g style="mix-blend-mode:multiply" opacity="0.36">
    <path d="M263.476 64.5394C264.559 61.4243 264.582 58.0996 263.246 55.0427C272.677 53.063 279.842 45.3102 279.653 37.2837C279.464 29.2572 271.966 21.7227 262.451 20.0341C262.32 10.9537 253.908 2.40317 243.17 0.438028C232.432 -1.52711 220.436 3.29111 215.673 11.4777C211.707 7.22721 205.209 4.67109 198.713 4.80792C192.217 4.94475 185.887 7.76872 182.189 12.1852C179.953 7.95213 174.843 4.85449 169.285 4.36248C163.727 3.87046 157.93 6.00446 154.666 9.74841C151.355 5.56194 145.349 2.9243 139.304 2.98834C133.26 3.05239 127.337 5.82105 124.164 10.0774C116.34 2.50797 100.347 2.25177 92.1709 9.56209C82.3355 4.05387 68.383 4.1354 58.6408 9.75716C56.0902 6.9652 49.2857 3.37263 41.8407 2.08583C25.2445 -0.784733 7.60887 13.373 14.6957 28.3634C5.37858 32.2937 -0.613525 41.0101 0.0503231 49.616C0.714172 58.2218 8.00486 66.2483 17.8374 69.1742C27.6699 72.1001 39.4794 69.7565 46.6391 63.4797C49.9758 71.4538 59.5579 77.3637 69.7661 77.7451C79.9742 78.1265 90.1474 72.9444 94.3401 65.2468C98.7891 71.2937 107.597 74.9503 116.128 74.2923C124.659 73.6344 132.494 68.6938 135.507 62.0648C136.646 67.9485 142.539 72.9822 149.608 74.1467C156.678 75.3113 164.443 72.4786 168.196 67.3983C172.435 73.3578 181.54 76.2283 189.85 75.4044C198.16 74.5805 205.628 70.5746 211.338 65.506C216.762 70.854 223.817 75.2589 231.961 77.1076C240.104 78.9562 249.384 77.9809 256.045 73.7013C259.603 71.413 262.236 68.1203 263.476 64.5394Z" fill="#E2BEAE"/>
  </g>
</svg>