<svg width="396" height="248" viewBox="0 0 396 248" fill="none" xmlns="http://www.w3.org/2000/svg">
<mask id="mask0_0_223" style="mask-type:luminance" maskUnits="userSpaceOnUse" x="0" y="0" width="396" height="248">
<path d="M338.012 28.0696C358.086 56.6751 322.778 88.003 336.928 95.5826C351.077 103.162 388.388 94.6724 394.362 137.444C400.336 180.216 372.773 189.699 329.075 191.693C285.376 193.687 286.336 196.261 284.21 215.334C282.083 234.407 273.453 242.979 192.882 246.777C95.845 251.345 121.058 219.769 98.5508 208.838C76.0436 197.907 15.4648 226.107 2.63905 174.523C-10.1867 122.939 30.1027 96.4266 55.3322 88.6402C70.872 83.8409 47.7195 61.6151 69.0516 36.7248C118.236 -20.6848 317.937 -0.53597 338.012 28.0696Z" fill="white"/>
</mask>
<g mask="url(#mask0_0_223)">
<mask id="mask1_0_223" style="mask-type:luminance" maskUnits="userSpaceOnUse" x="0" y="-9" width="404" height="259">
<path d="M2.33271 -8.34727C1.78882 -8.37434 1.25636 -8.18499 0.851665 -7.82061C0.446972 -7.45623 0.202979 -6.94646 0.173035 -6.40272V247.05C0.203004 247.595 0.446674 248.105 0.851109 248.471C1.25554 248.837 1.78802 249.028 2.33271 249.003H401.404C401.947 249.028 402.479 248.837 402.882 248.471C403.285 248.105 403.527 247.594 403.555 247.05V-6.40272C403.527 -6.94573 403.285 -7.45552 402.882 -7.82011C402.478 -8.1847 401.947 -8.3743 401.404 -8.34727H2.33271Z" fill="white"/>
</mask>
<g mask="url(#mask1_0_223)">
<path d="M133.586 -179.583L537.754 76.7578L270.159 420.231L-134.009 163.89L133.586 -179.583Z" fill="url(#paint0_linear_0_223)"/>
</g>
<path fill-rule="evenodd" clip-rule="evenodd" d="M158.492 127.597C129.233 124.701 83.8633 152.421 49.0517 152.421C34.5545 152.421 9.10159 131.735 0.173218 145.669V247.059C0.203163 247.602 0.447155 248.112 0.851848 248.477C1.25654 248.841 1.78901 249.03 2.33289 249.003H401.404C401.947 249.03 402.478 248.841 402.882 248.476C403.285 248.112 403.527 247.602 403.555 247.059V129.558C394.105 127.126 382.397 145.777 371.027 137.494C352.343 123.882 293.13 131.817 261.065 138.793C179.849 156.476 202.456 131.991 158.459 127.63" fill="#EBE4CE"/>
<path d="M210.102 162.732C217.166 164.491 223.549 168.305 228.445 173.692C233.341 179.08 236.529 185.798 237.607 192.997C238.685 200.196 237.604 207.554 234.5 214.138C231.397 220.723 226.41 226.24 220.171 229.991C213.932 233.741 206.721 235.558 199.45 235.21C192.179 234.863 185.174 232.367 179.321 228.038C173.468 223.709 169.031 217.742 166.569 210.891C164.108 204.04 163.733 196.613 165.493 189.55C167.852 180.078 173.878 171.932 182.243 166.902C190.609 161.873 200.63 160.373 210.102 162.732Z" fill="#EEC950"/>
<path d="M210.102 162.732C223.225 166.041 229.886 184.643 224.996 204.361C220.106 224.08 205.468 237.46 192.336 234.15C179.204 230.84 172.551 212.239 177.442 192.52C182.332 172.802 196.97 159.422 210.102 162.732Z" fill="#FFF1D5"/>
<path d="M210.102 162.732C214.653 163.865 214.355 180.77 209.448 200.497C204.541 220.224 196.862 235.251 192.311 234.159C187.76 233.066 188.05 216.111 192.965 196.393C197.88 176.674 205.542 161.598 210.102 162.732Z" fill="#EEC950"/>
<path d="M210.101 162.732C213.527 163.559 216.092 165.139 215.836 166.19C215.579 167.241 212.575 167.407 209.141 166.554C205.707 165.702 203.15 164.155 203.407 163.096C203.664 162.036 206.667 161.879 210.101 162.732Z" fill="#F3DBB5"/>
<path d="M355.231 192.347C358.251 193.604 353.113 204.527 354.859 207.291C356.605 210.054 368.578 210.179 368.33 213.439C368.082 216.699 356.257 215.334 354.155 217.833C352.054 220.332 355.446 231.775 352.277 232.545C349.108 233.315 346.841 221.639 343.812 220.414C340.783 219.19 331.16 226.041 329.414 223.277C327.668 220.514 338.069 214.572 338.284 211.32C338.5 208.068 328.893 200.812 330.986 198.321C333.08 195.83 341.975 204.055 345.144 203.286C348.313 202.516 352.202 191.139 355.231 192.388" fill="#E3AD3F"/>
<path d="M353.791 196.658C356.199 197.626 352.269 206.107 353.642 208.3C355.016 210.493 364.515 210.824 364.333 213.397C364.151 215.971 354.751 214.829 353.08 216.798C351.408 218.768 354.188 227.737 351.681 228.383C349.174 229.028 347.229 219.752 344.838 218.768C342.447 217.783 334.702 223.161 333.344 220.952C331.987 218.743 340.254 214.15 340.419 211.569C340.585 208.987 332.972 203.294 334.685 201.349C336.398 199.405 343.34 205.859 345.847 205.214C348.355 204.568 351.416 195.673 353.791 196.658Z" stroke="#FCFAE7" stroke-width="1.32" stroke-linecap="round" stroke-linejoin="round" stroke-dasharray="1.32 5.28"/>
<path d="M307.668 157.891L330.01 151.536C330.539 151.386 331.093 151.341 331.639 151.405C332.186 151.469 332.714 151.64 333.194 151.908C333.675 152.176 334.097 152.537 334.438 152.968C334.779 153.4 335.032 153.895 335.182 154.424L338.624 166.53C338.928 167.6 338.794 168.746 338.252 169.717C337.711 170.689 336.806 171.405 335.736 171.71L313.395 178.065C312.325 178.366 311.179 178.231 310.208 177.69C309.238 177.149 308.521 176.245 308.215 175.177L304.781 163.071C304.629 162.541 304.584 161.987 304.647 161.439C304.71 160.892 304.881 160.363 305.149 159.881C305.418 159.4 305.778 158.977 306.211 158.635C306.643 158.294 307.138 158.041 307.668 157.891Z" fill="#E85D51"/>
<path d="M303.423 157.353C303.479 157.285 303.547 157.228 303.624 157.186C303.702 157.143 303.787 157.117 303.874 157.108C303.962 157.099 304.05 157.107 304.135 157.132C304.219 157.157 304.298 157.198 304.367 157.254L306.021 158.569C306.09 158.624 306.146 158.692 306.188 158.768C306.23 158.845 306.257 158.929 306.266 159.016C306.275 159.103 306.267 159.191 306.242 159.275C306.217 159.359 306.176 159.437 306.121 159.504C306.009 159.64 305.849 159.727 305.674 159.746C305.499 159.764 305.323 159.713 305.186 159.604L303.531 158.288C303.462 158.234 303.404 158.167 303.362 158.09C303.319 158.014 303.292 157.93 303.282 157.843C303.272 157.756 303.279 157.668 303.304 157.584C303.328 157.5 303.368 157.421 303.423 157.353Z" fill="#E85D51"/>
<path d="M333.386 149.07H333.254C333.036 149.028 332.811 149.056 332.611 149.15C332.41 149.243 332.244 149.398 332.136 149.591L331.036 151.801C330.986 151.882 330.956 151.975 330.951 152.07C330.945 152.166 330.963 152.261 331.003 152.348C331.043 152.435 331.104 152.511 331.181 152.568C331.257 152.626 331.347 152.663 331.441 152.678H331.582C331.799 152.72 332.024 152.691 332.224 152.596C332.423 152.5 332.587 152.344 332.691 152.148L333.8 149.947C333.848 149.865 333.876 149.772 333.88 149.676C333.884 149.581 333.865 149.486 333.824 149.4C333.783 149.313 333.722 149.238 333.646 149.181C333.57 149.123 333.48 149.085 333.386 149.07Z" fill="#E85D51"/>
<path fill-rule="evenodd" clip-rule="evenodd" d="M294.942 155.665C294.942 155.665 298.185 158.702 301.065 159.074C303.944 159.447 306.907 156.592 306.385 154.788C305.864 152.984 303.075 149.997 303.075 149.997L301.553 155.789L294.942 155.665Z" fill="#E85D51"/>
<path fill-rule="evenodd" clip-rule="evenodd" d="M339.55 143.187C339.55 143.187 338.392 147.481 336.133 149.31C333.874 151.139 329.877 150.295 329.356 148.483C328.834 146.67 329.678 142.69 329.678 142.69L334.014 146.828L339.55 143.187Z" fill="#E85D51"/>
<path d="M314.726 154.076C315.195 153.942 315.697 154 316.123 154.237C316.549 154.473 316.864 154.87 316.998 155.338C317.132 155.807 317.074 156.309 316.837 156.735C316.6 157.161 316.204 157.476 315.736 157.61C315.267 157.743 314.765 157.686 314.339 157.449C313.913 157.212 313.598 156.816 313.464 156.348C313.33 155.879 313.388 155.377 313.625 154.951C313.862 154.525 314.258 154.21 314.726 154.076Z" fill="#050505"/>
<path d="M322.016 151.974C322.366 151.875 322.737 151.882 323.083 151.994C323.429 152.105 323.734 152.317 323.959 152.602C324.184 152.887 324.32 153.233 324.349 153.595C324.378 153.957 324.299 154.32 324.122 154.637C323.945 154.954 323.677 155.212 323.354 155.377C323.03 155.543 322.665 155.608 322.304 155.566C321.943 155.524 321.603 155.375 321.326 155.14C321.05 154.904 320.849 154.591 320.75 154.242C320.618 153.773 320.677 153.271 320.914 152.846C321.152 152.421 321.548 152.107 322.016 151.974Z" fill="#050505"/>
<path fill-rule="evenodd" clip-rule="evenodd" d="M305.98 166.596L299.17 166.348L297.383 172.603C297.212 170.434 297.19 168.255 297.317 166.083C297.581 164.229 304.408 163.873 306.005 164.61C307.602 165.346 306.005 166.596 306.005 166.596" fill="#E85D51"/>
<path fill-rule="evenodd" clip-rule="evenodd" d="M310.043 171.784C310.043 171.784 304.78 170.708 303.945 171.933C303.109 173.158 302.207 176.981 302.207 176.981C302.207 176.981 303.754 173.373 305.277 173.141C306.892 172.788 308.484 172.335 310.043 171.784Z" fill="#E85D51"/>
<path fill-rule="evenodd" clip-rule="evenodd" d="M310.622 175.971C310.622 175.971 307.925 175.541 306.253 176.616C304.582 177.692 303.862 181.457 303.862 181.457C303.862 181.457 305.202 178.495 306.667 178.081C308.062 177.533 309.389 176.824 310.622 175.971Z" fill="#E85D51"/>
<path fill-rule="evenodd" clip-rule="evenodd" d="M335.496 158.205L341.156 154.424L345.963 158.801C344.968 156.866 343.842 155 342.596 153.216C341.396 151.776 335.397 155.069 334.42 156.526C333.444 157.982 335.496 158.18 335.496 158.18" fill="#E85D51"/>
<path fill-rule="evenodd" clip-rule="evenodd" d="M334.776 164.751C334.776 164.751 338.682 161.068 340.047 161.672C341.412 162.276 344.185 165.057 344.185 165.057C344.185 165.057 340.966 162.798 339.551 163.402C337.99 163.947 336.399 164.397 334.784 164.751" fill="#E85D51"/>
<path fill-rule="evenodd" clip-rule="evenodd" d="M336.473 168.631C336.473 168.631 338.541 166.852 340.536 166.885C342.53 166.919 345.111 169.74 345.111 169.74C345.111 169.74 342.414 167.928 340.974 168.35C339.498 168.614 337.996 168.709 336.497 168.631" fill="#E85D51"/>
<path d="M129.051 190.758C132.601 192.156 126.569 204.295 128.613 207.365C130.656 210.435 144.715 210.584 144.417 214.2C144.119 217.816 130.259 216.31 127.793 219.082C125.328 221.854 129.316 234.581 125.592 235.441C121.869 236.302 119.221 223.319 115.663 221.953C112.105 220.588 100.818 228.209 98.7824 225.139C96.7468 222.069 108.927 215.466 109.184 211.842C109.44 208.217 98.1618 200.166 100.619 197.394C103.077 194.622 113.503 203.766 117.227 202.864C120.95 201.962 125.501 189.368 129.051 190.758Z" fill="#E85D51"/>
<path d="M122.134 203.327C122.278 203.334 122.417 203.382 122.534 203.467C122.65 203.552 122.739 203.669 122.79 203.804C122.841 203.939 122.851 204.086 122.819 204.226C122.787 204.367 122.714 204.495 122.61 204.595C122.506 204.695 122.375 204.762 122.233 204.787C122.091 204.813 121.944 204.797 121.812 204.74C121.679 204.684 121.566 204.589 121.486 204.469C121.407 204.349 121.364 204.208 121.364 204.064C121.366 203.965 121.388 203.867 121.428 203.777C121.468 203.686 121.525 203.604 121.596 203.536C121.668 203.468 121.752 203.414 121.844 203.378C121.937 203.342 122.035 203.325 122.134 203.327Z" fill="#FAF9D9"/>
<path d="M120.553 208.242C120.714 208.252 120.869 208.309 120.999 208.405C121.128 208.502 121.226 208.634 121.281 208.786C121.336 208.938 121.346 209.102 121.309 209.259C121.271 209.417 121.189 209.559 121.071 209.67C120.954 209.781 120.807 209.855 120.648 209.883C120.489 209.911 120.325 209.892 120.176 209.828C120.028 209.764 119.902 209.659 119.813 209.524C119.724 209.389 119.676 209.231 119.676 209.07C119.676 208.957 119.699 208.845 119.743 208.741C119.788 208.637 119.853 208.544 119.936 208.466C120.018 208.389 120.115 208.329 120.221 208.29C120.327 208.252 120.44 208.235 120.553 208.242Z" fill="#FAF9D9"/>
<path d="M121.381 205.76C121.524 205.768 121.662 205.818 121.778 205.904C121.893 205.989 121.981 206.107 122.031 206.242C122.08 206.377 122.089 206.524 122.056 206.664C122.023 206.804 121.95 206.931 121.845 207.03C121.741 207.129 121.61 207.195 121.468 207.22C121.327 207.245 121.181 207.229 121.049 207.172C120.916 207.115 120.804 207.021 120.725 206.901C120.645 206.781 120.603 206.64 120.603 206.496C120.605 206.397 120.627 206.299 120.667 206.207C120.707 206.116 120.765 206.034 120.838 205.966C120.91 205.897 120.995 205.844 121.089 205.808C121.182 205.773 121.281 205.757 121.381 205.76Z" fill="#FAF9D9"/>
<path d="M125.187 196.567C125.331 196.573 125.47 196.622 125.587 196.707C125.704 196.792 125.793 196.91 125.844 197.045C125.894 197.181 125.904 197.328 125.871 197.469C125.838 197.61 125.765 197.738 125.66 197.837C125.555 197.937 125.423 198.003 125.28 198.028C125.138 198.053 124.991 198.035 124.859 197.977C124.726 197.92 124.614 197.824 124.535 197.703C124.457 197.581 124.416 197.439 124.417 197.295C124.419 197.196 124.441 197.099 124.481 197.009C124.521 196.919 124.578 196.838 124.65 196.77C124.721 196.702 124.806 196.65 124.898 196.615C124.99 196.58 125.088 196.563 125.187 196.567Z" fill="#FAF9D9"/>
<path d="M126.271 194.126C126.357 194.122 126.442 194.136 126.522 194.166C126.602 194.196 126.675 194.241 126.738 194.3C126.8 194.358 126.85 194.429 126.885 194.507C126.92 194.585 126.939 194.669 126.941 194.755C126.941 194.932 126.871 195.103 126.745 195.228C126.619 195.354 126.449 195.425 126.271 195.425C126.093 195.425 125.923 195.354 125.797 195.228C125.672 195.103 125.601 194.932 125.601 194.755C125.603 194.669 125.622 194.585 125.657 194.507C125.692 194.429 125.742 194.358 125.805 194.3C125.867 194.241 125.94 194.196 126.02 194.166C126.1 194.136 126.186 194.122 126.271 194.126Z" fill="#FAF9D9"/>
<path d="M126.917 191.9C127.019 191.889 127.123 191.9 127.222 191.931C127.32 191.963 127.41 192.015 127.487 192.084C127.564 192.154 127.625 192.238 127.667 192.332C127.709 192.427 127.731 192.529 127.731 192.632C127.731 192.735 127.709 192.838 127.667 192.932C127.625 193.026 127.564 193.111 127.487 193.18C127.41 193.249 127.32 193.301 127.222 193.333C127.123 193.365 127.019 193.375 126.917 193.364C126.814 193.375 126.71 193.365 126.612 193.333C126.514 193.301 126.423 193.249 126.346 193.18C126.27 193.111 126.208 193.026 126.166 192.932C126.124 192.838 126.102 192.735 126.102 192.632C126.102 192.529 126.124 192.427 126.166 192.332C126.208 192.238 126.27 192.154 126.346 192.084C126.423 192.015 126.514 191.963 126.612 191.931C126.71 191.9 126.814 191.889 126.917 191.9Z" fill="#FAF9D9"/>
<path d="M124.409 198.908C124.534 198.913 124.654 198.955 124.756 199.028C124.857 199.101 124.935 199.202 124.98 199.318C125.024 199.435 125.033 199.562 125.006 199.684C124.979 199.806 124.916 199.918 124.826 200.004C124.736 200.091 124.622 200.149 124.5 200.172C124.377 200.194 124.25 200.18 124.135 200.131C124.02 200.083 123.922 200.001 123.853 199.897C123.784 199.793 123.747 199.67 123.747 199.546C123.751 199.374 123.823 199.21 123.947 199.091C124.071 198.972 124.237 198.906 124.409 198.908Z" fill="#FAF9D9"/>
<path d="M123.168 201.167C123.27 201.156 123.374 201.167 123.472 201.199C123.571 201.231 123.661 201.283 123.738 201.352C123.815 201.421 123.876 201.506 123.918 201.6C123.96 201.694 123.982 201.796 123.982 201.9C123.982 202.003 123.96 202.105 123.918 202.199C123.876 202.294 123.815 202.378 123.738 202.447C123.661 202.516 123.571 202.569 123.472 202.6C123.374 202.632 123.27 202.643 123.168 202.632C123.065 202.643 122.961 202.632 122.863 202.6C122.765 202.569 122.674 202.516 122.597 202.447C122.52 202.378 122.459 202.294 122.417 202.199C122.375 202.105 122.353 202.003 122.353 201.9C122.353 201.796 122.375 201.694 122.417 201.6C122.459 201.506 122.52 201.421 122.597 201.352C122.674 201.283 122.765 201.231 122.863 201.199C122.961 201.167 123.065 201.156 123.168 201.167Z" fill="#FAF9D9"/>
<path d="M122.134 203.327C122.278 203.334 122.417 203.382 122.534 203.467C122.65 203.552 122.739 203.669 122.79 203.804C122.841 203.939 122.851 204.086 122.819 204.226C122.787 204.367 122.714 204.495 122.61 204.595C122.506 204.695 122.375 204.762 122.233 204.787C122.091 204.813 121.944 204.797 121.812 204.74C121.679 204.684 121.566 204.589 121.486 204.469C121.407 204.349 121.364 204.208 121.364 204.064C121.366 203.965 121.388 203.867 121.428 203.777C121.468 203.686 121.525 203.604 121.596 203.536C121.668 203.468 121.752 203.414 121.844 203.378C121.937 203.342 122.035 203.325 122.134 203.327Z" fill="#FAF9D9"/>
<path d="M120.553 208.242C120.714 208.252 120.869 208.309 120.999 208.405C121.128 208.502 121.226 208.634 121.281 208.786C121.336 208.938 121.346 209.102 121.309 209.259C121.271 209.417 121.189 209.559 121.071 209.67C120.954 209.781 120.807 209.855 120.648 209.883C120.489 209.911 120.325 209.892 120.176 209.828C120.028 209.764 119.902 209.659 119.813 209.524C119.724 209.389 119.676 209.231 119.676 209.07C119.676 208.957 119.699 208.845 119.743 208.741C119.788 208.637 119.853 208.544 119.936 208.466C120.018 208.389 120.115 208.329 120.221 208.29C120.327 208.252 120.44 208.235 120.553 208.242Z" fill="#FAF9D9"/>
<path d="M121.381 205.76C121.524 205.768 121.662 205.818 121.778 205.904C121.893 205.989 121.981 206.107 122.031 206.242C122.08 206.377 122.089 206.524 122.056 206.664C122.023 206.804 121.95 206.931 121.845 207.03C121.741 207.129 121.61 207.195 121.468 207.22C121.327 207.245 121.181 207.229 121.049 207.172C120.916 207.115 120.804 207.021 120.725 206.901C120.645 206.781 120.603 206.64 120.603 206.496C120.605 206.397 120.627 206.299 120.667 206.207C120.707 206.116 120.765 206.034 120.838 205.966C120.91 205.897 120.995 205.844 121.089 205.808C121.182 205.773 121.281 205.757 121.381 205.76Z" fill="#FAF9D9"/>
<path d="M125.187 196.567C125.331 196.573 125.47 196.622 125.587 196.707C125.704 196.792 125.793 196.91 125.844 197.045C125.894 197.181 125.904 197.328 125.871 197.469C125.838 197.61 125.765 197.738 125.66 197.837C125.555 197.937 125.423 198.003 125.28 198.028C125.138 198.053 124.991 198.035 124.859 197.977C124.726 197.92 124.614 197.824 124.535 197.703C124.457 197.581 124.416 197.439 124.417 197.295C124.419 197.196 124.441 197.099 124.481 197.009C124.521 196.919 124.578 196.838 124.65 196.77C124.721 196.702 124.806 196.65 124.898 196.615C124.99 196.58 125.088 196.563 125.187 196.567Z" fill="#FAF9D9"/>
<path d="M126.271 194.126C126.357 194.122 126.442 194.136 126.522 194.166C126.602 194.196 126.675 194.241 126.738 194.3C126.8 194.358 126.85 194.429 126.885 194.507C126.92 194.585 126.939 194.669 126.941 194.755C126.941 194.932 126.871 195.103 126.745 195.228C126.619 195.354 126.449 195.425 126.271 195.425C126.093 195.425 125.923 195.354 125.797 195.228C125.672 195.103 125.601 194.932 125.601 194.755C125.603 194.669 125.622 194.585 125.657 194.507C125.692 194.429 125.742 194.358 125.805 194.3C125.867 194.241 125.94 194.196 126.02 194.166C126.1 194.136 126.186 194.122 126.271 194.126Z" fill="#FAF9D9"/>
<path d="M126.917 191.9C127.019 191.889 127.123 191.9 127.222 191.931C127.32 191.963 127.41 192.015 127.487 192.084C127.564 192.154 127.625 192.238 127.667 192.332C127.709 192.427 127.731 192.529 127.731 192.632C127.731 192.735 127.709 192.838 127.667 192.932C127.625 193.026 127.564 193.111 127.487 193.18C127.41 193.249 127.32 193.301 127.222 193.333C127.123 193.365 127.019 193.375 126.917 193.364C126.814 193.375 126.71 193.365 126.612 193.333C126.514 193.301 126.423 193.249 126.346 193.18C126.27 193.111 126.208 193.026 126.166 192.932C126.124 192.838 126.102 192.735 126.102 192.632C126.102 192.529 126.124 192.427 126.166 192.332C126.208 192.238 126.27 192.154 126.346 192.084C126.423 192.015 126.514 191.963 126.612 191.931C126.71 191.9 126.814 191.889 126.917 191.9Z" fill="#FAF9D9"/>
<path d="M124.409 198.908C124.534 198.913 124.654 198.955 124.756 199.028C124.857 199.101 124.935 199.202 124.98 199.318C125.024 199.435 125.033 199.562 125.006 199.684C124.979 199.806 124.916 199.918 124.826 200.004C124.736 200.091 124.622 200.149 124.5 200.172C124.377 200.194 124.25 200.18 124.135 200.131C124.02 200.083 123.922 200.001 123.853 199.897C123.784 199.793 123.747 199.67 123.747 199.546C123.751 199.374 123.823 199.21 123.947 199.091C124.071 198.972 124.237 198.906 124.409 198.908Z" fill="#FAF9D9"/>
<path d="M123.168 201.167C123.27 201.156 123.374 201.167 123.472 201.199C123.571 201.231 123.661 201.283 123.738 201.352C123.815 201.421 123.876 201.506 123.918 201.6C123.96 201.694 123.982 201.796 123.982 201.9C123.982 202.003 123.96 202.105 123.918 202.199C123.876 202.294 123.815 202.378 123.738 202.447C123.661 202.516 123.571 202.569 123.472 202.6C123.374 202.632 123.27 202.643 123.168 202.632C123.065 202.643 122.961 202.632 122.863 202.6C122.765 202.569 122.674 202.516 122.597 202.447C122.52 202.378 122.459 202.294 122.417 202.199C122.375 202.105 122.353 202.003 122.353 201.9C122.353 201.796 122.375 201.694 122.417 201.6C122.459 201.506 122.52 201.421 122.597 201.352C122.674 201.283 122.765 201.231 122.863 201.199C122.961 201.167 123.065 201.156 123.168 201.167Z" fill="#FAF9D9"/>
<path d="M128.463 211.908C128.477 212.003 128.472 212.1 128.449 212.193C128.425 212.287 128.383 212.374 128.325 212.451C128.268 212.528 128.195 212.593 128.113 212.642C128.03 212.69 127.938 212.722 127.843 212.735C127.646 212.773 127.442 212.732 127.274 212.623C127.106 212.513 126.986 212.343 126.941 212.148C126.917 211.956 126.968 211.763 127.084 211.609C127.2 211.455 127.371 211.351 127.561 211.32C127.759 211.281 127.964 211.32 128.132 211.43C128.301 211.54 128.42 211.712 128.463 211.908Z" fill="#FAF9D9"/>
<path d="M123.036 211.362C123.054 211.471 123.051 211.583 123.026 211.691C123 211.799 122.953 211.901 122.888 211.991C122.822 212.08 122.739 212.156 122.644 212.213C122.548 212.27 122.442 212.307 122.332 212.322C122.11 212.364 121.88 212.319 121.69 212.195C121.501 212.072 121.366 211.88 121.314 211.66C121.294 211.55 121.297 211.437 121.322 211.328C121.347 211.219 121.393 211.116 121.459 211.025C121.525 210.935 121.608 210.859 121.704 210.801C121.8 210.744 121.907 210.707 122.018 210.692C122.129 210.664 122.245 210.659 122.358 210.678C122.471 210.698 122.578 210.74 122.674 210.803C122.77 210.866 122.851 210.948 122.913 211.044C122.976 211.141 123.017 211.249 123.036 211.362Z" fill="#FAF9D9"/>
<path d="M125.841 211.618C125.867 211.81 125.816 212.004 125.7 212.159C125.584 212.314 125.411 212.417 125.22 212.446C125.023 212.483 124.819 212.443 124.651 212.333C124.483 212.224 124.364 212.054 124.318 211.858C124.294 211.667 124.346 211.474 124.461 211.319C124.577 211.165 124.748 211.061 124.939 211.031C125.136 210.994 125.34 211.034 125.508 211.143C125.676 211.253 125.795 211.423 125.841 211.618Z" fill="#FAF9D9"/>
<path d="M136.035 213.538C136.061 213.73 136.011 213.924 135.894 214.079C135.778 214.234 135.606 214.337 135.414 214.366C135.217 214.405 135.012 214.366 134.844 214.256C134.675 214.146 134.556 213.974 134.512 213.778C134.486 213.586 134.537 213.392 134.653 213.237C134.769 213.082 134.942 212.979 135.133 212.951C135.33 212.913 135.534 212.954 135.702 213.063C135.87 213.173 135.989 213.343 136.035 213.538Z" fill="#FAF9D9"/>
<path d="M138.758 214.109C138.772 214.193 138.769 214.28 138.75 214.363C138.73 214.446 138.695 214.525 138.645 214.594C138.594 214.663 138.531 214.722 138.458 214.766C138.385 214.811 138.304 214.841 138.22 214.854C138.049 214.886 137.872 214.85 137.727 214.754C137.582 214.659 137.48 214.51 137.442 214.341C137.427 214.257 137.429 214.171 137.448 214.087C137.467 214.004 137.503 213.926 137.553 213.857C137.603 213.788 137.667 213.73 137.74 213.687C137.814 213.643 137.895 213.615 137.98 213.604C138.15 213.57 138.327 213.603 138.472 213.698C138.617 213.792 138.72 213.94 138.758 214.109Z" fill="#FAF9D9"/>
<path d="M141.19 214.308C141.214 214.499 141.162 214.692 141.047 214.847C140.931 215.001 140.76 215.104 140.569 215.135C140.371 215.172 140.166 215.131 139.998 215.019C139.83 214.908 139.711 214.736 139.667 214.539C139.641 214.347 139.692 214.153 139.808 213.998C139.924 213.843 140.096 213.741 140.288 213.712C140.485 213.675 140.689 213.715 140.857 213.824C141.025 213.934 141.144 214.104 141.19 214.299" fill="#FAF9D9"/>
<path d="M133.462 213.207C133.477 213.291 133.475 213.377 133.456 213.46C133.437 213.543 133.401 213.622 133.351 213.691C133.301 213.76 133.237 213.818 133.163 213.861C133.09 213.905 133.008 213.933 132.924 213.944C132.754 213.978 132.577 213.944 132.432 213.85C132.286 213.756 132.184 213.608 132.146 213.439C132.131 213.355 132.133 213.269 132.152 213.186C132.171 213.102 132.207 213.024 132.257 212.955C132.307 212.886 132.371 212.828 132.444 212.785C132.518 212.741 132.599 212.713 132.684 212.702C132.854 212.668 133.03 212.701 133.176 212.796C133.321 212.89 133.424 213.038 133.462 213.207Z" fill="#FAF9D9"/>
<path d="M130.888 212.487C130.902 212.582 130.897 212.679 130.874 212.772C130.85 212.866 130.808 212.953 130.75 213.03C130.693 213.107 130.62 213.172 130.537 213.221C130.455 213.27 130.363 213.301 130.268 213.315C130.071 213.352 129.869 213.311 129.702 213.202C129.535 213.092 129.418 212.922 129.374 212.727C129.348 212.535 129.398 212.341 129.514 212.186C129.631 212.031 129.803 211.928 129.994 211.9C130.19 211.863 130.393 211.903 130.56 212.013C130.727 212.122 130.844 212.292 130.888 212.487Z" fill="#FAF9D9"/>
<path d="M122.365 219.041C122.189 219.138 121.984 219.169 121.787 219.126C121.591 219.083 121.417 218.971 121.297 218.809C121.244 218.728 121.208 218.637 121.192 218.541C121.176 218.446 121.18 218.348 121.203 218.254C121.226 218.16 121.269 218.072 121.328 217.995C121.387 217.918 121.461 217.855 121.546 217.808C121.718 217.701 121.924 217.665 122.122 217.709C122.32 217.752 122.493 217.871 122.605 218.039C122.658 218.12 122.694 218.211 122.711 218.306C122.728 218.401 122.725 218.498 122.703 218.592C122.68 218.686 122.639 218.775 122.58 218.852C122.522 218.929 122.449 218.993 122.365 219.041Z" fill="#FAF9D9"/>
<path d="M120.909 214.084C120.711 214.2 120.477 214.238 120.253 214.188C120.029 214.139 119.832 214.008 119.701 213.819C119.644 213.726 119.606 213.622 119.589 213.514C119.572 213.406 119.577 213.296 119.603 213.19C119.63 213.084 119.677 212.984 119.742 212.896C119.807 212.808 119.888 212.734 119.982 212.677C120.179 212.559 120.414 212.521 120.639 212.57C120.863 212.619 121.061 212.752 121.19 212.942C121.247 213.036 121.285 213.139 121.302 213.247C121.319 213.355 121.314 213.466 121.288 213.572C121.262 213.678 121.215 213.778 121.15 213.866C121.085 213.954 121.003 214.028 120.909 214.084Z" fill="#FAF9D9"/>
<path d="M121.678 216.624C121.503 216.722 121.297 216.752 121.101 216.71C120.905 216.667 120.73 216.554 120.611 216.393C120.558 216.311 120.522 216.219 120.505 216.123C120.489 216.027 120.493 215.929 120.516 215.834C120.539 215.74 120.582 215.651 120.641 215.573C120.7 215.496 120.774 215.431 120.859 215.383C121.034 215.288 121.237 215.259 121.432 215.302C121.627 215.344 121.799 215.455 121.918 215.615C121.973 215.696 122.011 215.787 122.028 215.883C122.046 215.979 122.043 216.078 122.021 216.173C121.998 216.268 121.956 216.357 121.897 216.435C121.838 216.512 121.764 216.577 121.678 216.624Z" fill="#FAF9D9"/>
<path d="M123.565 226.314C123.39 226.412 123.184 226.442 122.988 226.399C122.792 226.357 122.617 226.244 122.498 226.082C122.445 226.001 122.409 225.909 122.392 225.813C122.376 225.717 122.38 225.618 122.403 225.524C122.426 225.429 122.469 225.34 122.528 225.263C122.587 225.185 122.661 225.121 122.746 225.073C122.921 224.978 123.124 224.949 123.319 224.991C123.514 225.034 123.686 225.145 123.805 225.305C123.858 225.386 123.893 225.477 123.909 225.573C123.926 225.668 123.923 225.766 123.9 225.86C123.878 225.955 123.837 226.044 123.779 226.121C123.722 226.199 123.649 226.265 123.565 226.314Z" fill="#FAF9D9"/>
<path d="M122.903 223.964C122.754 224.056 122.575 224.087 122.404 224.05C122.233 224.013 122.082 223.911 121.985 223.766C121.938 223.695 121.907 223.616 121.892 223.533C121.878 223.45 121.88 223.365 121.899 223.282C121.919 223.2 121.955 223.123 122.005 223.055C122.055 222.988 122.119 222.931 122.191 222.888C122.344 222.801 122.523 222.774 122.695 222.812C122.867 222.85 123.017 222.951 123.118 223.095C123.164 223.166 123.195 223.245 123.209 223.327C123.223 223.41 123.22 223.495 123.199 223.576C123.179 223.658 123.142 223.734 123.091 223.801C123.041 223.868 122.976 223.923 122.903 223.964Z" fill="#FAF9D9"/>
<path d="M122.697 221.399C122.521 221.497 122.316 221.527 122.119 221.484C121.923 221.442 121.749 221.329 121.629 221.167C121.576 221.086 121.54 220.994 121.524 220.898C121.507 220.802 121.511 220.703 121.534 220.609C121.557 220.514 121.6 220.425 121.659 220.348C121.718 220.27 121.792 220.205 121.877 220.158C122.052 220.063 122.256 220.033 122.45 220.076C122.645 220.119 122.817 220.23 122.937 220.389C122.99 220.471 123.026 220.562 123.043 220.658C123.06 220.753 123.058 220.852 123.035 220.946C123.013 221.041 122.971 221.13 122.913 221.208C122.854 221.286 122.781 221.351 122.697 221.399Z" fill="#FAF9D9"/>
<path d="M113.247 216.459C113.163 216.407 113.091 216.339 113.035 216.258C112.98 216.177 112.942 216.085 112.924 215.988C112.906 215.892 112.908 215.792 112.931 215.697C112.954 215.601 112.997 215.511 113.056 215.433C113.184 215.279 113.364 215.176 113.562 215.144C113.759 215.112 113.962 215.153 114.132 215.259C114.214 215.312 114.284 215.38 114.338 215.461C114.392 215.541 114.429 215.632 114.447 215.727C114.465 215.822 114.463 215.92 114.441 216.015C114.42 216.109 114.379 216.199 114.322 216.277C114.196 216.433 114.017 216.537 113.819 216.57C113.621 216.604 113.418 216.564 113.247 216.459Z" fill="#FAF9D9"/>
<path d="M117.491 213.248C117.401 213.187 117.323 213.108 117.263 213.016C117.203 212.925 117.161 212.822 117.141 212.714C117.121 212.606 117.123 212.496 117.146 212.389C117.169 212.281 117.213 212.18 117.276 212.09C117.416 211.909 117.619 211.787 117.844 211.749C118.069 211.711 118.301 211.759 118.493 211.883C118.584 211.944 118.662 212.022 118.723 212.114C118.784 212.205 118.826 212.308 118.847 212.416C118.868 212.523 118.867 212.634 118.844 212.742C118.822 212.849 118.778 212.951 118.716 213.042C118.575 213.223 118.371 213.345 118.144 213.383C117.917 213.422 117.684 213.374 117.491 213.248Z" fill="#FAF9D9"/>
<path d="M115.323 214.912C115.241 214.86 115.17 214.792 115.115 214.711C115.06 214.631 115.023 214.54 115.005 214.445C114.987 214.349 114.989 214.251 115.011 214.156C115.033 214.061 115.075 213.972 115.133 213.894C115.26 213.738 115.439 213.634 115.637 213.6C115.835 213.567 116.038 213.607 116.209 213.712C116.291 213.763 116.362 213.832 116.417 213.912C116.472 213.992 116.509 214.083 116.527 214.179C116.545 214.275 116.543 214.373 116.521 214.468C116.499 214.562 116.457 214.652 116.399 214.73C116.272 214.885 116.093 214.99 115.896 215.023C115.698 215.056 115.494 215.017 115.323 214.912Z" fill="#FAF9D9"/>
<path d="M106.66 220.348C106.576 220.297 106.504 220.23 106.449 220.149C106.393 220.069 106.355 219.978 106.337 219.882C106.319 219.786 106.322 219.687 106.345 219.592C106.367 219.497 106.41 219.408 106.47 219.33C106.596 219.175 106.775 219.07 106.973 219.037C107.171 219.003 107.374 219.043 107.545 219.148C107.627 219.201 107.697 219.269 107.751 219.35C107.805 219.43 107.842 219.521 107.86 219.616C107.878 219.711 107.876 219.809 107.855 219.904C107.833 219.998 107.793 220.088 107.736 220.166C107.609 220.322 107.43 220.426 107.232 220.459C107.034 220.493 106.831 220.453 106.66 220.348Z" fill="#FAF9D9"/>
<path d="M104.294 221.763C104.222 221.718 104.16 221.659 104.113 221.589C104.065 221.519 104.032 221.44 104.017 221.357C104.001 221.273 104.003 221.188 104.022 221.106C104.041 221.023 104.077 220.945 104.128 220.878C104.234 220.739 104.388 220.645 104.56 220.616C104.733 220.586 104.909 220.624 105.055 220.72C105.127 220.765 105.188 220.825 105.236 220.895C105.284 220.965 105.316 221.044 105.332 221.127C105.347 221.21 105.345 221.296 105.326 221.378C105.307 221.46 105.271 221.538 105.22 221.606C105.114 221.743 104.959 221.836 104.788 221.865C104.616 221.894 104.44 221.858 104.294 221.763Z" fill="#FAF9D9"/>
<path d="M102.423 223.236C102.34 223.184 102.269 223.116 102.215 223.036C102.16 222.955 102.122 222.865 102.104 222.769C102.086 222.673 102.089 222.575 102.111 222.48C102.133 222.385 102.174 222.296 102.232 222.218C102.359 222.063 102.538 221.958 102.736 221.925C102.934 221.891 103.137 221.931 103.308 222.036C103.39 222.089 103.46 222.157 103.514 222.238C103.568 222.318 103.605 222.409 103.623 222.504C103.641 222.599 103.639 222.697 103.617 222.792C103.596 222.886 103.556 222.976 103.499 223.054C103.372 223.21 103.193 223.314 102.995 223.347C102.797 223.381 102.594 223.341 102.423 223.236Z" fill="#FAF9D9"/>
<path d="M108.712 218.842C108.64 218.797 108.578 218.738 108.531 218.668C108.483 218.598 108.451 218.519 108.435 218.436C108.419 218.352 108.421 218.267 108.44 218.185C108.46 218.102 108.496 218.025 108.546 217.957C108.653 217.819 108.808 217.727 108.979 217.698C109.151 217.669 109.327 217.705 109.473 217.799C109.545 217.844 109.606 217.904 109.654 217.974C109.702 218.044 109.734 218.123 109.75 218.206C109.766 218.289 109.764 218.375 109.744 218.457C109.725 218.54 109.689 218.617 109.639 218.685C109.533 218.824 109.378 218.918 109.206 218.947C109.034 218.976 108.857 218.939 108.712 218.842Z" fill="#FAF9D9"/>
<path d="M111.087 217.667C111.005 217.615 110.935 217.546 110.881 217.466C110.827 217.385 110.79 217.295 110.772 217.199C110.754 217.104 110.756 217.006 110.778 216.911C110.799 216.817 110.84 216.728 110.897 216.649C111.023 216.494 111.202 216.389 111.4 216.356C111.598 216.322 111.801 216.362 111.972 216.467C112.056 216.518 112.128 216.586 112.183 216.666C112.239 216.746 112.277 216.838 112.295 216.934C112.313 217.03 112.31 217.128 112.288 217.223C112.265 217.318 112.222 217.408 112.163 217.485C112.036 217.641 111.857 217.745 111.659 217.778C111.461 217.812 111.258 217.772 111.087 217.667Z" fill="#FAF9D9"/>
<path d="M112.552 206.885C112.618 206.696 112.755 206.539 112.934 206.448C113.113 206.357 113.32 206.339 113.512 206.397C113.606 206.422 113.695 206.465 113.772 206.525C113.85 206.584 113.914 206.658 113.963 206.743C114.011 206.828 114.043 206.921 114.055 207.018C114.067 207.115 114.059 207.213 114.033 207.307C113.957 207.491 113.818 207.642 113.64 207.732C113.462 207.822 113.258 207.844 113.065 207.795C112.97 207.772 112.881 207.729 112.803 207.67C112.726 207.61 112.661 207.536 112.613 207.451C112.565 207.365 112.535 207.271 112.524 207.174C112.514 207.077 112.523 206.979 112.552 206.885Z" fill="#FAF9D9"/>
<path d="M117.095 209.715C117.17 209.5 117.326 209.322 117.529 209.219C117.733 209.115 117.968 209.095 118.187 209.161C118.293 209.189 118.392 209.239 118.478 209.306C118.565 209.373 118.637 209.457 118.691 209.553C118.745 209.648 118.779 209.753 118.792 209.862C118.805 209.971 118.796 210.081 118.766 210.187C118.696 210.404 118.542 210.585 118.34 210.691C118.137 210.796 117.9 210.817 117.682 210.75C117.575 210.722 117.474 210.673 117.386 210.605C117.297 210.538 117.224 210.453 117.169 210.357C117.114 210.26 117.079 210.154 117.067 210.044C117.054 209.933 117.063 209.822 117.095 209.715Z" fill="#FAF9D9"/>
<path d="M114.761 208.242C114.836 208.058 114.976 207.907 115.154 207.818C115.332 207.728 115.536 207.705 115.729 207.754C115.824 207.778 115.913 207.821 115.991 207.88C116.068 207.939 116.133 208.014 116.181 208.099C116.229 208.184 116.259 208.278 116.27 208.375C116.28 208.473 116.271 208.571 116.242 208.664C116.168 208.848 116.031 209 115.854 209.091C115.678 209.182 115.475 209.207 115.282 209.161C115.187 209.136 115.098 209.092 115.019 209.032C114.941 208.972 114.876 208.897 114.827 208.812C114.779 208.726 114.748 208.631 114.736 208.534C114.725 208.436 114.733 208.337 114.761 208.242Z" fill="#FAF9D9"/>
<path d="M106.594 202.169C106.669 201.984 106.809 201.834 106.987 201.744C107.165 201.654 107.369 201.632 107.562 201.68C107.657 201.704 107.746 201.747 107.823 201.806C107.901 201.866 107.966 201.94 108.014 202.025C108.062 202.11 108.092 202.204 108.103 202.302C108.113 202.399 108.104 202.497 108.075 202.591C108.009 202.78 107.872 202.937 107.693 203.028C107.514 203.119 107.307 203.137 107.115 203.079C107.019 203.056 106.93 203.014 106.851 202.955C106.772 202.896 106.706 202.822 106.658 202.736C106.609 202.651 106.578 202.557 106.567 202.459C106.556 202.362 106.565 202.263 106.594 202.169Z" fill="#FAF9D9"/>
<path d="M104.443 200.481C104.5 200.317 104.617 200.182 104.772 200.103C104.926 200.024 105.105 200.008 105.27 200.059C105.353 200.079 105.43 200.115 105.498 200.166C105.565 200.217 105.622 200.281 105.664 200.355C105.706 200.429 105.732 200.51 105.741 200.594C105.75 200.679 105.742 200.764 105.717 200.845C105.691 200.927 105.649 201.003 105.593 201.069C105.537 201.135 105.468 201.189 105.391 201.228C105.314 201.267 105.23 201.291 105.144 201.298C105.058 201.304 104.972 201.294 104.89 201.267C104.802 201.248 104.72 201.21 104.649 201.156C104.578 201.102 104.519 201.034 104.477 200.955C104.434 200.877 104.409 200.79 104.403 200.701C104.398 200.612 104.411 200.523 104.443 200.439" fill="#FAF9D9"/>
<path d="M102.349 199.256C102.415 199.066 102.552 198.91 102.731 198.819C102.91 198.728 103.117 198.71 103.309 198.768C103.404 198.792 103.493 198.834 103.571 198.894C103.648 198.953 103.713 199.027 103.761 199.113C103.809 199.198 103.839 199.292 103.85 199.389C103.86 199.486 103.851 199.585 103.822 199.678C103.756 199.867 103.619 200.024 103.44 200.115C103.261 200.206 103.054 200.224 102.862 200.166C102.767 200.142 102.678 200.1 102.601 200.04C102.523 199.981 102.458 199.906 102.41 199.821C102.362 199.736 102.332 199.642 102.321 199.545C102.311 199.448 102.32 199.349 102.349 199.256Z" fill="#FAF9D9"/>
<path d="M108.745 203.542C108.804 203.38 108.922 203.246 109.075 203.167C109.229 203.089 109.407 203.072 109.573 203.12C109.659 203.141 109.741 203.179 109.811 203.233C109.882 203.287 109.941 203.355 109.984 203.433C110.027 203.511 110.053 203.597 110.06 203.686C110.068 203.774 110.057 203.864 110.028 203.948C109.969 204.11 109.851 204.244 109.698 204.322C109.544 204.401 109.366 204.418 109.2 204.37C109.114 204.349 109.033 204.311 108.962 204.257C108.892 204.203 108.833 204.135 108.791 204.056C108.749 203.978 108.724 203.892 108.717 203.803C108.711 203.715 108.723 203.626 108.754 203.542" fill="#FAF9D9"/>
<path d="M110.665 205.321C110.74 205.139 110.878 204.989 111.055 204.9C111.231 204.81 111.433 204.787 111.625 204.833C111.72 204.857 111.809 204.9 111.887 204.959C111.965 205.018 112.03 205.092 112.079 205.177C112.128 205.262 112.159 205.356 112.17 205.453C112.182 205.551 112.174 205.649 112.146 205.743C112.072 205.927 111.935 206.079 111.758 206.17C111.582 206.261 111.379 206.286 111.186 206.24C111.09 206.216 111 206.173 110.922 206.113C110.843 206.054 110.777 205.978 110.728 205.892C110.68 205.807 110.649 205.712 110.638 205.613C110.627 205.515 110.636 205.416 110.665 205.321Z" fill="#FAF9D9"/>
<mask id="mask2_0_223" style="mask-type:luminance" maskUnits="userSpaceOnUse" x="131" y="55" width="32" height="138">
<path d="M133.478 55.7649L133.015 55.8559C132.781 55.9033 132.559 55.9963 132.361 56.1298C132.163 56.2632 131.994 56.4344 131.862 56.6336C131.731 56.8327 131.64 57.0558 131.595 57.2902C131.55 57.5245 131.552 57.7654 131.6 57.9991L158.691 190.865C158.738 191.099 158.832 191.322 158.965 191.519C159.099 191.717 159.27 191.887 159.469 192.018C159.668 192.15 159.891 192.24 160.125 192.285C160.36 192.33 160.601 192.329 160.834 192.28L161.298 192.189C161.536 192.146 161.762 192.055 161.965 191.923C162.167 191.791 162.342 191.62 162.477 191.419C162.613 191.219 162.707 190.994 162.755 190.756C162.802 190.519 162.802 190.275 162.754 190.038L135.663 57.1964C135.579 56.7861 135.356 56.4171 135.032 56.1518C134.708 55.8866 134.302 55.7411 133.884 55.7401C133.761 55.742 133.639 55.7559 133.52 55.7814" fill="white"/>
</mask>
<g mask="url(#mask2_0_223)">
<path d="M161.575 49.4496L103.943 61.521L132.703 198.83L190.335 186.759L161.575 49.4496Z" fill="url(#paint1_linear_0_223)"/>
</g>
<mask id="mask3_0_223" style="mask-type:luminance" maskUnits="userSpaceOnUse" x="70" y="74" width="37" height="15">
<path d="M70.6817 81.2178C70.6817 81.2178 70.1687 88.2595 72.5187 88.0361C91.1285 86.2074 94.6617 85.2558 104.873 82.368C107.487 81.6232 106.279 74.3415 106.279 74.3415L70.6817 81.2178Z" fill="white"/>
</mask>
<g mask="url(#mask3_0_223)">
<path d="M106.508 68.4066L67.9485 74.7209L71.1432 94.2292L109.703 87.9149L106.508 68.4066Z" fill="url(#paint2_linear_0_223)"/>
</g>
<mask id="mask4_0_223" style="mask-type:luminance" maskUnits="userSpaceOnUse" x="106" y="64" width="55" height="18">
<path d="M106.279 74.3415C106.279 74.3415 106.9 81.466 109.481 81.3998C129.564 80.8868 136.01 79.7449 157.847 73.39C160.966 72.4797 160.818 64.1057 160.818 64.1057L106.279 74.3415Z" fill="white"/>
</mask>
<g mask="url(#mask4_0_223)">
<path d="M156.352 48.9882L101.444 65.639L110.872 96.7273L165.779 80.0766L156.352 48.9882Z" fill="url(#paint3_linear_0_223)"/>
</g>
<mask id="mask5_0_223" style="mask-type:luminance" maskUnits="userSpaceOnUse" x="160" y="58" width="34" height="13">
<path d="M160.818 64.1058C160.818 64.1058 161.397 70.4773 163.788 70.6593C172.295 71.2965 177.45 69.1533 191.848 66.009C194.479 65.4297 193.61 58.1232 193.61 58.1232L160.818 64.1058Z" fill="white"/>
</mask>
<g mask="url(#mask5_0_223)">
<path d="M194.367 56.4856L160.128 58.2081L160.875 73.0424L195.113 71.3199L194.367 56.4856Z" fill="url(#paint4_linear_0_223)"/>
</g>
<path fill-rule="evenodd" clip-rule="evenodd" d="M134.827 11.8595C154.214 30.1714 159.138 47.2916 160.817 64.1058L193.61 58.1232C189.977 37.8751 174.81 21.334 153.892 14.7722C147.724 12.8753 141.312 11.8939 134.86 11.8595" fill="#E85D51"/>
<path fill-rule="evenodd" clip-rule="evenodd" d="M134.827 11.8595C154.214 30.1714 159.138 47.2916 160.817 64.1058L193.61 58.1232C189.977 37.8751 174.81 21.334 153.892 14.7722C147.724 12.8753 141.312 11.8939 134.86 11.8595" fill="#E85D51"/>
<path d="M70.6819 81.2178C66.8011 61.0193 75.0095 40.0844 92.196 26.365C100.767 19.5837 110.857 14.9862 121.599 12.9682C132.34 10.9503 143.411 11.5722 153.859 14.7804C174.81 21.3423 189.978 37.8833 193.577 58.1315L132.055 69.3602L70.6819 81.2178Z" fill="#FAF9D9"/>
<path fill-rule="evenodd" clip-rule="evenodd" d="M108.141 16.9732C102.41 19.3359 97.0414 22.4978 92.196 26.365C75.0095 40.0927 66.8011 61.0193 70.6819 81.2178L106.263 74.3415C99.7839 46.1332 106.503 32 113.04 15.1942C111.385 15.7238 109.73 16.3113 108.125 16.9732" fill="#5BB7B7"/>
<path fill-rule="evenodd" clip-rule="evenodd" d="M134.827 11.8595C154.214 30.1714 159.138 47.2916 160.817 64.1058L193.61 58.1232C189.977 37.8751 174.81 21.334 153.892 14.7722C147.724 12.8753 141.312 11.8939 134.86 11.8595" fill="#E85D51"/>
<path fill-rule="evenodd" clip-rule="evenodd" d="M74.3719 80.5062L72.2949 81.7474C72.2949 81.7474 71.724 84.6352 72.6839 85.5123C73.6437 86.3894 78.0045 86.4804 78.0045 86.4804C78.0045 86.4804 76.4654 84.7428 83.4409 82.3431C90.4165 79.9435 96.2998 78.3878 96.2998 78.3878C96.13 77.7147 95.9144 77.0539 95.6543 76.4102L74.3719 80.5062Z" fill="#4AABAA"/>
<mask id="mask6_0_223" style="mask-type:luminance" maskUnits="userSpaceOnUse" x="108" y="66" width="43" height="16">
<path d="M150.417 66.0586H108.133V81.3916H150.417V66.0586Z" fill="white"/>
</mask>
<g mask="url(#mask6_0_223)">
<mask id="mask7_0_223" style="mask-type:luminance" maskUnits="userSpaceOnUse" x="108" y="66" width="43" height="16">
<path d="M150.417 66.0586H108.133V81.3916H150.417V66.0586Z" fill="white"/>
</mask>
<g mask="url(#mask7_0_223)">
<path fill-rule="evenodd" clip-rule="evenodd" d="M108.654 73.8947C108.369 74.3231 108.193 74.8155 108.144 75.3281C108.095 75.8406 108.174 76.3574 108.373 76.8322C108.795 77.9907 109.2 79.7615 109.689 81.3916C115.481 81.2426 120.082 81.0358 124.285 80.6717C123.913 80.2016 123.43 79.831 122.88 79.5927C122.33 79.3545 121.73 79.2561 121.132 79.3063L117.665 79.9352C117.665 79.9352 113.164 79.538 113.081 77.701C112.998 75.8641 116.341 74.5319 117.814 74.0519C119.287 73.572 146.238 69.2278 147.479 68.6651C148.645 68.0328 149.65 67.141 150.416 66.0586L108.654 73.8947Z" fill="#C4BDB6"/>
</g>
</g>
<path fill-rule="evenodd" clip-rule="evenodd" d="M163.234 63.6672C163.336 64.0413 163.557 64.3722 163.863 64.6105C164.608 65.0242 170.805 65.0325 173.991 63.783C177.177 62.5335 188.058 62.4756 188.712 63.1128C189.059 63.4438 189.539 65.0739 190.135 66.4226L191.848 66.042C192.231 65.9499 192.567 65.7202 192.791 65.3966C192.742 63.9237 192.344 62.3267 192.369 61.6647C192.22 60.5798 191.881 59.5295 191.368 58.5617L163.234 63.6672Z" fill="#E65246"/>
<path fill-rule="evenodd" clip-rule="evenodd" d="M108.141 16.9732C102.41 19.3359 97.0414 22.4978 92.196 26.365C75.0095 40.0927 66.8011 61.0193 70.6819 81.2178L106.263 74.3415C99.7839 46.1332 106.503 32 113.04 15.1942C111.385 15.7238 109.73 16.3113 108.125 16.9732" fill="#5BB7B7"/>
<path fill-rule="evenodd" clip-rule="evenodd" d="M108.141 16.9732C102.41 19.3359 97.0414 22.4978 92.196 26.365C75.0095 40.0927 66.8011 61.0193 70.6819 81.2178L106.263 74.3415C99.7839 46.1332 106.503 32 113.04 15.1942C111.385 15.7238 109.73 16.3113 108.125 16.9732" fill="#5BB7B7"/>
<path fill-rule="evenodd" clip-rule="evenodd" d="M108.141 16.9732C102.41 19.3359 97.0414 22.4978 92.196 26.365C75.0095 40.0927 66.8011 61.0193 70.6819 81.2178L106.263 74.3415C99.7839 46.1332 106.503 32 113.04 15.1942C111.385 15.7238 109.73 16.3113 108.125 16.9732" fill="#5BB7B7"/>
<path fill-rule="evenodd" clip-rule="evenodd" d="M108.141 16.9732C102.41 19.3359 97.0414 22.4978 92.196 26.365C75.0095 40.0927 66.8011 61.0193 70.6819 81.2178L106.263 74.3415C99.7839 46.1332 106.503 32 113.04 15.1942C111.385 15.7238 109.73 16.3113 108.125 16.9732" fill="#5BB7B7"/>
<path fill-rule="evenodd" clip-rule="evenodd" d="M134.827 11.8595C154.214 30.1714 159.138 47.2916 160.817 64.1058L193.61 58.1232C189.977 37.8751 174.81 21.334 153.892 14.7722C147.724 12.8753 141.312 11.8939 134.86 11.8595" fill="#E85D51"/>
<path fill-rule="evenodd" clip-rule="evenodd" d="M134.827 11.8595C154.214 30.1714 159.138 47.2916 160.817 64.1058L193.61 58.1232C189.977 37.8751 174.81 21.334 153.892 14.7722C147.724 12.8753 141.312 11.8939 134.86 11.8595" fill="#E85D51"/>
<path d="M300.61 215.929C302.215 215.929 303.523 216.947 303.523 218.197C303.523 219.446 302.215 220.464 300.61 220.464C299.005 220.464 297.689 219.454 297.689 218.197C297.689 216.939 298.997 215.929 300.61 215.929Z" fill="#F1D4B0"/>
<path d="M326.874 215.929C328.479 215.929 329.786 216.947 329.786 218.197C329.786 219.446 328.479 220.464 326.874 220.464C325.268 220.464 323.953 219.454 323.953 218.197C323.953 216.939 325.26 215.929 326.874 215.929Z" fill="#F1D4B0"/>
<path d="M355.082 215.929C356.687 215.929 357.995 216.947 357.995 218.197C357.995 219.446 356.687 220.464 355.082 220.464C353.477 220.464 352.161 219.454 352.161 218.197C352.161 216.939 353.469 215.929 355.082 215.929Z" fill="#F1D4B0"/>
<path d="M358.648 182.856C360.254 182.856 361.561 183.873 361.561 185.123C361.561 186.372 360.254 187.398 358.648 187.398C357.043 187.398 355.727 186.381 355.727 185.123C355.727 183.865 357.035 182.856 358.648 182.856Z" fill="#F1D4B0"/>
<path d="M378.425 201.987C380.038 201.987 381.346 203.004 381.346 204.254C381.346 205.503 380.038 206.529 378.425 206.529C376.811 206.529 375.504 205.512 375.504 204.254C375.504 202.996 376.811 201.987 378.425 201.987Z" fill="#F1D4B0"/>
<path d="M250.027 215.929C251.682 215.929 252.948 216.947 252.948 218.197C252.948 219.446 251.641 220.464 250.027 220.464C248.414 220.464 247.106 219.454 247.106 218.197C247.106 216.939 248.414 215.929 250.027 215.929Z" fill="#F1D4B0"/>
<path d="M147.239 215.929C148.894 215.929 150.16 216.947 150.16 218.197C150.16 219.446 148.853 220.464 147.239 220.464C145.626 220.464 144.326 219.454 144.326 218.197C144.326 216.939 145.634 215.929 147.239 215.929Z" fill="#F1D4B0"/>
<path d="M56.1347 233.439C57.74 233.439 59.0474 234.456 59.0474 235.706C59.0474 236.955 57.74 237.973 56.1347 237.973C54.5294 237.973 53.2137 236.964 53.2137 235.706C53.2137 234.448 54.5212 233.439 56.1347 233.439Z" fill="#F1D4B0"/>
<path d="M90.1771 234.407C91.832 234.407 93.0981 235.425 93.0981 236.682C93.0981 237.94 91.7907 238.95 90.1771 238.95C88.5635 238.95 87.2562 237.932 87.2562 236.682C87.2562 235.433 88.5635 234.407 90.1771 234.407Z" fill="#F1D4B0"/>
<path d="M90.1771 168.913C91.832 168.913 93.0981 169.931 93.0981 171.188C93.0981 172.446 91.7907 173.456 90.1771 173.456C88.5635 173.456 87.2562 172.438 87.2562 171.188C87.2562 169.939 88.5635 168.913 90.1771 168.913Z" fill="#775138"/>
<path d="M90.1771 168.913C91.832 168.913 93.0981 169.931 93.0981 171.188C93.0981 172.446 91.7907 173.456 90.1771 173.456C88.5635 173.456 87.2562 172.438 87.2562 171.188C87.2562 169.939 88.5635 168.913 90.1771 168.913Z" fill="#775138"/>
<path d="M66.1802 168.913C67.8352 168.913 69.1012 169.931 69.1012 171.188C69.1012 172.446 67.7938 173.456 66.1802 173.456C64.5667 173.456 63.2676 172.438 63.2676 171.188C63.2676 169.939 64.5749 168.913 66.1802 168.913Z" fill="#775138"/>
<path d="M183.879 148.491C185.534 148.491 186.8 149.5 186.8 150.758C186.8 152.016 185.493 153.025 183.879 153.025C182.265 153.025 180.958 151.975 180.958 150.758C180.958 149.542 182.265 148.491 183.871 148.491" fill="#775138"/>
<path d="M264.293 232.785C265.948 232.785 267.214 233.803 267.214 235.06C267.214 236.318 265.906 237.328 264.293 237.328C262.679 237.328 261.372 236.31 261.372 235.06C261.372 233.811 262.679 232.785 264.293 232.785Z" fill="#775138"/>
<path d="M270.78 194.531C272.385 194.531 273.693 195.541 273.693 196.798C273.693 198.056 272.385 199.066 270.78 199.066C269.175 199.066 267.859 198.056 267.859 196.798C267.859 195.541 269.166 194.531 270.78 194.531Z" fill="#F1D4B0"/>
<path d="M386.857 169.235C388.463 169.235 389.77 170.253 389.77 171.511C389.77 172.769 388.463 173.778 386.857 173.778C385.252 173.778 383.936 172.76 383.936 171.511C383.936 170.262 385.244 169.235 386.857 169.235Z" fill="#F1D4B0"/>
<path d="M146.271 236.029C147.926 236.029 149.192 237.046 149.192 238.304C149.192 239.562 147.884 240.571 146.271 240.571C144.657 240.571 143.35 239.554 143.35 238.304C143.35 237.055 144.657 236.029 146.271 236.029Z" fill="#F1D4B0"/>
<path d="M59.3786 208.797C60.9839 208.797 62.2913 209.814 62.2913 211.064C62.2913 212.313 60.9839 213.331 59.3786 213.331C57.7733 213.331 56.4576 212.322 56.4576 211.064C56.4576 209.806 57.765 208.797 59.3786 208.797Z" fill="#F1D4B0"/>
<path fill-rule="evenodd" clip-rule="evenodd" d="M242.745 36.8821C240.218 36.897 237.708 37.2903 235.298 38.0488C226.27 40.6802 218.749 51.2138 218.749 51.2138C218.749 51.2138 228.538 45.5705 233.8 44.8175C239.063 44.0645 247.726 47.0765 247.726 47.0765C247.726 47.0765 256.374 44.0645 261.645 44.8175C266.915 45.5705 276.696 51.2138 276.696 51.2138C276.696 51.2138 269.166 40.6802 260.147 38.0488C251.127 35.4175 247.735 41.4331 247.735 41.4331C247.735 41.4331 246.27 36.9152 242.72 36.8821" fill="white"/>
<path fill-rule="evenodd" clip-rule="evenodd" d="M299.153 18.1565C296.413 18.1829 293.692 18.6123 291.077 19.4308C281.23 22.3021 273.03 33.7874 273.03 33.7874C273.03 33.7874 283.696 27.6393 289.439 26.8118C295.181 25.9843 304.615 29.2942 304.615 29.2942C304.615 29.2942 314.056 25.9843 319.799 26.8118C325.541 27.6393 336.207 33.7874 336.207 33.7874C336.207 33.7874 327.999 22.3021 318.152 19.4308C308.305 16.5595 304.615 23.1213 304.615 23.1213C304.615 23.1213 303.026 18.1565 299.153 18.1565Z" fill="white"/>
</g>
<defs>
<linearGradient id="paint0_linear_0_223" x1="7.44123" y1="-21.6754" x2="401.029" y2="254.993" gradientUnits="userSpaceOnUse">
<stop stop-color="#01A1B1"/>
<stop offset="0.53" stop-color="#AADCD9"/>
<stop offset="1" stop-color="#71CDE3"/>
</linearGradient>
<linearGradient id="paint1_linear_0_223" x1="141.197" y1="81.5901" x2="164.325" y2="192.01" gradientUnits="userSpaceOnUse">
<stop stop-color="#E6E6E5"/>
<stop offset="0.4" stop-color="#F3F3F4"/>
<stop offset="1" stop-color="#E6E6E5"/>
</linearGradient>
<linearGradient id="paint2_linear_0_223" x1="73.3738" y1="80.8486" x2="110.944" y2="74.6962" gradientUnits="userSpaceOnUse">
<stop stop-color="#5BB7B7"/>
<stop offset="1" stop-color="#78C3C2"/>
</linearGradient>
<linearGradient id="paint3_linear_0_223" x1="131.665" y1="70.0595" x2="134.267" y2="78.6419" gradientUnits="userSpaceOnUse">
<stop stop-color="#F6F6C7"/>
<stop offset="1" stop-color="#FBF9D9"/>
</linearGradient>
<linearGradient id="paint4_linear_0_223" x1="191.226" y1="66.0125" x2="160.587" y2="67.5539" gradientUnits="userSpaceOnUse">
<stop stop-color="#E85D51"/>
<stop offset="1" stop-color="#E3736A"/>
</linearGradient>
</defs>
</svg>
