<svg width="241" height="298" viewBox="0 0 241 298" fill="none" xmlns="http://www.w3.org/2000/svg">
<path d="M104.935 152.642C103.089 155.064 102.485 161.422 102.893 164.461C100.035 166.964 93.6676 166.621 89.9921 165.686C88.1435 165.191 86.4374 164.267 85.012 162.99C83.5866 161.713 82.482 160.118 81.7874 158.335C83.2821 153.238 84.7565 147.937 84.6462 142.624C91.1315 143.837 99.5812 148.68 104.935 152.642Z" fill="#93543B"/>
<path d="M75.1876 79.2366C77.3929 74.1399 75.2774 67.5279 70.5441 64.7182C65.8108 61.9084 59.109 63.2847 55.8051 67.7362C53.3929 70.9325 52.0226 74.7937 51.8804 78.7956C51.8069 82.7366 53.1056 87.0942 54.9311 90.5696C56.4411 93.4466 58.5794 95.9468 61.1875 97.8846C63.7956 99.8225 66.8065 101.148 69.9969 101.764L75.1876 79.2366Z" fill="#93543B"/>
<g style="mix-blend-mode:multiply" opacity="0.66">
<path d="M59.3335 73.6375C54.788 77.1743 60.3014 96.9161 65.9863 89.3526C66.3514 88.783 66.5767 88.135 66.6438 87.4617C67.1569 84.7837 67.083 82.0263 66.4273 79.3796C65.9168 77.5336 64.4466 74.1685 62.5149 73.4333C61.1427 72.9106 60.0972 73.0454 59.3335 73.6375Z" fill="#E09586"/>
</g>
<path d="M64.9777 90.4512C65.0944 90.4503 65.2085 90.417 65.3073 90.355C65.4061 90.293 65.4857 90.2047 65.5372 90.1C68.2326 84.5907 67.0483 77.4683 62.7234 73.1638C62.6659 73.105 62.5973 73.0583 62.5215 73.0264C62.4458 72.9945 62.3645 72.9781 62.2823 72.9781C62.2001 72.9781 62.1188 72.9945 62.043 73.0264C61.9673 73.0583 61.8986 73.105 61.8412 73.1638C61.7244 73.2842 61.6591 73.4453 61.6591 73.613C61.6591 73.7808 61.7244 73.9419 61.8412 74.0623C65.3248 77.5296 66.5786 82.998 65.137 87.6905C64.2018 85.5464 61.9923 84.0721 59.9013 83.6596C59.7361 83.6282 59.5653 83.6637 59.4263 83.7583C59.2873 83.8528 59.1915 83.9988 59.1601 84.164C59.1287 84.3291 59.1642 84.5 59.2588 84.639C59.3534 84.778 59.4993 84.8738 59.6645 84.9052C61.9352 85.3544 64.3079 87.3147 64.3488 89.8059C64.3497 89.9472 64.3981 90.0841 64.4863 90.1945C64.5744 90.3049 64.6972 90.3823 64.8348 90.4145C64.8804 90.4336 64.9285 90.446 64.9777 90.4512Z" fill="#380423"/>
<path d="M107.39 37.9478C101.229 39.4969 95.2931 41.8302 89.7266 44.8905C74.9304 53.0952 74.8406 65.2573 71.896 80.1555C68.7718 95.9564 61.3553 112.684 69.9602 128.109C82.3305 150.285 107.451 162.652 132.151 161.741C139.457 161.471 147.903 161.112 154.339 157.15C167.154 149.268 169.151 128.726 176.858 116.719C193.088 91.3987 187.292 61.8063 162.531 45.303C147.074 34.9624 125.98 33.2227 107.39 37.9478Z" fill="#B26B4B"/>
<mask id="mask0_0_75" style="mask-type:luminance" maskUnits="userSpaceOnUse" x="65" y="35" width="121" height="127">
<path d="M107.39 37.9478C101.229 39.4969 95.2931 41.8302 89.7266 44.8905C74.9304 53.0952 74.8406 65.2573 71.896 80.1555C68.7718 95.9564 61.3553 112.684 69.9602 128.109C82.3305 150.285 107.451 162.652 132.151 161.741C139.457 161.471 147.903 161.112 154.339 157.15C167.154 149.268 169.151 128.726 176.858 116.719C193.088 91.3987 187.292 61.8063 162.531 45.303C147.074 34.9624 125.98 33.2227 107.39 37.9478Z" fill="white"/>
</mask>
<g mask="url(#mask0_0_75)">
<path d="M79.019 100.91C83.3153 105.693 85.3532 112.117 86.6519 118.451C87.3461 121.832 87.8771 125.316 87.3625 128.734C86.8479 132.153 85.2143 135.526 82.3596 137.409C78.4227 139.998 72.9951 139.161 69.1031 136.502C65.2111 133.843 62.5688 129.686 60.3389 125.496C57.7456 120.632 55.4994 115.396 55.3116 109.87C54.7929 94.915 69.5115 90.3124 79.019 100.91Z" fill="#AA5533"/>
<path d="M159.015 140.194C152.689 139.406 146.355 141.419 140.507 144.016C137.387 145.397 134.287 146.977 131.833 149.37C129.378 151.764 127.618 155.088 127.749 158.531C127.941 163.289 131.751 167.303 136.141 168.99C140.531 170.677 145.391 170.456 150.027 169.888C155.434 169.227 160.939 168.063 165.489 165.024C177.834 156.803 173.028 141.95 159.015 140.194Z" fill="#AA5533"/>
</g>
<path d="M108.157 75.753C109.686 75.1527 111.333 74.9151 112.968 75.0588C116.007 75.3201 119.609 77.7909 121.765 79.8778C124.387 82.414 125.167 86.9472 120.172 87.1064C117.836 87.18 114.99 85.5464 112.919 84.5621C110.967 83.631 108.121 82.5773 106.875 80.6987C105.201 78.1544 106.287 76.5821 108.157 75.753Z" fill="#380423"/>
<path d="M164.283 103.916C163.829 102.319 163.016 100.846 161.906 99.6115C159.864 97.3163 155.736 95.9115 152.791 95.4418C149.218 94.866 145.199 96.9937 148.107 101.114C149.467 103.046 152.472 104.349 154.502 105.423C156.418 106.432 158.97 108.086 161.196 107.955C164.214 107.775 164.786 105.942 164.283 103.916Z" fill="#380423"/>
<path d="M112.458 131.699C115.246 133.087 118.457 133.365 121.442 132.479C121.538 132.45 121.626 132.402 121.702 132.338C121.779 132.274 121.841 132.195 121.886 132.106C121.931 132.017 121.958 131.92 121.964 131.821C121.971 131.721 121.957 131.622 121.924 131.528C121.86 131.334 121.722 131.172 121.541 131.078C121.359 130.983 121.148 130.963 120.952 131.021C119.602 131.425 118.186 131.558 116.785 131.414C115.383 131.269 114.024 130.85 112.784 130.18C110.286 128.796 108.426 126.491 107.602 123.756C107.546 123.559 107.415 123.392 107.237 123.291C107.059 123.189 106.849 123.161 106.65 123.213C106.554 123.238 106.464 123.283 106.385 123.344C106.307 123.405 106.241 123.481 106.193 123.568C106.144 123.655 106.114 123.751 106.103 123.85C106.093 123.949 106.103 124.049 106.132 124.144C107.076 127.283 109.21 129.928 112.078 131.515L112.458 131.699Z" fill="#380423"/>
<path d="M117.906 124.903C119.058 125.511 120.385 125.701 121.661 125.439C122.936 125.177 124.082 124.481 124.901 123.468C125.721 122.456 126.164 121.191 126.154 119.888C126.144 118.586 125.683 117.327 124.848 116.327C124.004 115.31 122.848 114.598 121.56 114.303C120.271 114.008 118.921 114.145 117.718 114.694C117.628 114.739 117.549 114.802 117.484 114.878C117.42 114.954 117.371 115.043 117.341 115.138C117.311 115.234 117.3 115.334 117.309 115.434C117.319 115.534 117.348 115.63 117.395 115.719C117.489 115.9 117.651 116.037 117.844 116.101C118.038 116.165 118.249 116.151 118.432 116.062C119.315 115.671 120.301 115.576 121.242 115.789C122.184 116.002 123.032 116.513 123.66 117.246C124.285 117.988 124.628 118.928 124.63 119.898C124.631 120.869 124.29 121.808 123.666 122.552C123.043 123.296 122.177 123.796 121.221 123.965C120.266 124.134 119.281 123.96 118.441 123.474C118.354 123.422 118.258 123.388 118.158 123.375C118.059 123.362 117.957 123.369 117.86 123.397C117.763 123.424 117.673 123.472 117.595 123.535C117.517 123.599 117.453 123.679 117.407 123.768C117.312 123.948 117.292 124.158 117.352 124.353C117.412 124.547 117.546 124.71 117.726 124.805L117.906 124.903Z" fill="#380423"/>
<path d="M133.85 166.78C147.007 164.828 159.956 161.667 172.533 157.338C175.196 156.419 177.891 155.423 180.105 153.663C182.506 151.756 184.189 149.089 185.916 146.548C191.435 138.536 197.92 131.233 205.225 124.805C207.055 123.172 209.309 121.514 211.674 121.996C214.483 122.567 215.925 126.039 215.349 128.894C214.773 131.748 212.842 134.076 210.959 136.245C216.432 133.471 222.245 131.427 228.25 130.168C230.243 129.759 233.76 129.351 235.042 131.487C236.61 134.096 233.229 136.796 231.101 137.674C228.724 138.666 226.02 139.087 224.093 140.819C228.099 140.495 232.13 140.771 236.055 141.635C238.399 142.158 241.205 143.6 240.988 146.026C240.804 148.043 238.611 149.125 236.716 149.758C232.942 151.013 229.089 152.02 225.183 152.772C229.048 152.836 232.866 153.626 236.439 155.1C238.526 155.966 240.866 157.763 240.327 160.001C239.845 161.986 237.468 162.656 235.454 162.966L222.97 164.918C223.758 166.388 225.42 167.111 227.017 167.54C228.614 167.969 230.284 168.234 231.644 169.198C233.004 170.162 233.841 172.118 232.967 173.535C232.265 174.675 230.803 175.001 229.488 175.169C224.179 175.798 218.841 175.291 213.515 175.022C205.139 174.613 196.641 174.785 188.534 176.974C184.989 177.93 181.554 179.261 178.112 180.552C163.238 186.138 148.142 191.058 132.825 195.311C131.944 185.796 132.288 176.208 133.85 166.78Z" fill="#B26B4B"/>
<path d="M202.158 131.85L204.069 129.625C204.849 128.718 205.67 127.783 206.765 127.329C207.859 126.876 209.317 127.072 209.95 128.089C210.538 129.041 210.22 130.274 209.885 131.356C209.101 133.856 208.318 136.355 207.536 138.854C213.601 137.837 218.796 132.794 224.934 133.137C225.479 133.128 226.013 133.289 226.462 133.598C226.739 133.859 226.936 134.194 227.029 134.563C227.122 134.932 227.108 135.32 226.988 135.681C226.738 136.401 226.291 137.036 225.698 137.515C223.778 139.222 221.205 140.022 219.188 141.599C219.009 141.703 218.858 141.847 218.745 142.02C218.632 142.193 218.562 142.39 218.539 142.595C218.567 143.334 219.56 143.506 220.282 143.453L227.56 142.918C229.904 142.746 232.355 142.595 234.646 143.269C235.463 143.506 236.998 143.951 237.382 144.796C237.844 145.813 236.945 147.271 236.214 147.876C235.34 148.603 234.221 148.934 233.127 149.223C229.995 150.047 226.806 150.634 223.586 150.98C222.263 151.118 220.556 151.596 220.507 152.944C220.462 154.169 221.887 154.851 223.084 154.986C225.971 155.345 228.932 154.52 231.799 155.047C233.011 155.213 234.13 155.79 234.968 156.681C235.757 157.612 236.026 159.062 235.377 160.091C234.727 161.12 233.564 161.418 232.457 161.659C228.376 162.557 224.184 162.832 220.021 162.476C218.935 162.382 217.428 162.59 217.379 163.701C217.354 164.314 217.869 164.808 218.379 165.135C219.792 166.045 221.491 166.413 222.892 167.34C224.293 168.267 225.367 170.146 224.579 171.64C223.868 172.996 222.104 173.274 220.597 173.372C213.246 173.854 205.817 173.907 198.654 172.241C195.869 171.591 193.108 170.668 190.719 169.084C188.33 167.499 186.32 165.192 185.487 162.415C184.131 157.877 186.071 153.022 188.546 148.983C191.327 144.449 194.807 140.406 198.266 136.379L202.158 131.85Z" fill="#F7C4CE"/>
<path d="M198.682 161.839C198.565 161.839 198.448 161.813 198.341 161.764C198.234 161.715 198.138 161.643 198.062 161.553C196.688 159.917 195.847 157.901 195.652 155.774C195.444 153.42 195.759 151.049 196.575 148.831C196.609 148.726 196.663 148.629 196.735 148.545C196.807 148.461 196.896 148.393 196.995 148.345C197.094 148.296 197.202 148.269 197.313 148.263C197.423 148.257 197.533 148.274 197.637 148.313C197.847 148.389 198.017 148.546 198.112 148.747C198.207 148.949 198.218 149.181 198.143 149.391C197.422 151.366 197.143 153.475 197.327 155.57C197.486 157.35 198.184 159.04 199.328 160.414C199.473 160.582 199.548 160.801 199.535 161.024C199.522 161.246 199.423 161.455 199.258 161.606C199.104 161.756 198.898 161.84 198.682 161.839Z" fill="#2D2725"/>
<path d="M206.152 147.696H204.678C204.174 147.696 203.691 147.896 203.335 148.252C202.979 148.608 202.779 149.091 202.779 149.595C202.779 150.099 202.979 150.582 203.335 150.938C203.691 151.294 204.174 151.494 204.678 151.494H206.152C206.656 151.494 207.139 151.294 207.495 150.938C207.851 150.582 208.051 150.099 208.051 149.595C208.051 149.091 207.851 148.608 207.495 148.252C207.139 147.896 206.656 147.696 206.152 147.696Z" fill="#2D2725"/>
<path d="M209.44 155.668C209.305 155.191 208.989 154.785 208.56 154.537C208.13 154.289 207.621 154.219 207.141 154.341L205.172 154.843C204.685 154.975 204.27 155.295 204.018 155.734C203.767 156.172 203.7 156.692 203.833 157.179C203.965 157.666 204.285 158.081 204.723 158.333C205.161 158.584 205.681 158.651 206.169 158.519L208.133 158.016C208.614 157.873 209.02 157.547 209.264 157.108C209.509 156.669 209.572 156.153 209.44 155.668Z" fill="#2D2725"/>
<path d="M65.8599 133.071C59.3653 121.28 53.9457 108.928 49.667 96.1647C48.7604 93.4652 47.8945 90.684 47.9191 87.8293C47.9436 84.7378 49.0094 81.7646 49.9365 78.816C52.8364 69.4658 54.5877 59.7974 55.1517 50.0241C55.3028 47.5737 55.2416 44.7394 53.416 43.1181C51.2597 41.2027 47.6699 42.1584 45.7791 44.3433C43.8882 46.5282 43.2592 49.5218 42.6957 52.3724C41.5281 46.2742 39.5847 40.3506 36.9128 34.746C36.0225 32.8796 34.1888 29.8126 31.7384 30.078C28.7489 30.4047 28.704 34.7705 29.288 37.0208C29.9619 39.5406 31.281 41.9746 31.1054 44.5802C28.9189 41.1674 26.2425 38.0948 23.1621 35.4607C21.3284 33.8884 18.49 32.5039 16.7299 34.1579C15.2678 35.5342 15.7538 37.9642 16.4154 39.8755C17.7351 43.6777 19.2956 47.3921 21.0875 50.9961C18.6949 47.9331 15.7534 45.342 12.4131 43.355C10.4651 42.1951 7.63489 41.4069 6.23 43.1998C4.97215 44.7966 5.91144 47.1327 6.87934 48.9173L12.9604 60.1646C11.3268 60.4219 9.75446 59.5193 8.46801 58.5024C7.18156 57.4855 5.92367 56.2848 4.35134 55.7866C2.77902 55.2883 0.732994 55.7866 0.157158 57.363C-0.304329 58.6208 0.332756 60.0012 1.01069 61.1529C3.74286 65.8004 7.40208 69.8027 10.853 73.9275C16.2847 80.4128 21.3202 87.3719 24.5506 95.2335C25.9637 98.6722 27.001 102.25 28.1037 105.807C32.8002 121.187 38.1556 136.34 44.17 151.265C52.1635 146.174 59.4556 140.057 65.8599 133.071Z" fill="#B26B4B"/>
<path d="M51.521 56.783C51.7143 55.8138 51.9049 54.8486 52.0928 53.8875C52.3255 52.7072 52.5583 51.478 52.2439 50.3181C51.9294 49.1583 50.8921 48.1046 49.7118 48.2149C48.6132 48.3211 47.8414 49.3298 47.2084 50.2569L42.7895 56.7136C39.8858 51.2125 40.6577 43.9553 36.6391 39.2302C36.3163 38.7894 35.8657 38.4586 35.3485 38.2827C34.9767 38.2179 34.5941 38.2634 34.2479 38.4137C33.9017 38.5639 33.6071 38.8123 33.4005 39.1281C32.99 39.7718 32.7666 40.5169 32.7552 41.2803C32.5919 43.8695 33.523 46.4138 33.5394 49.0072C33.5675 49.2122 33.5478 49.421 33.4819 49.6173C33.416 49.8135 33.3057 49.9919 33.1595 50.1384C32.5674 50.5468 31.8241 49.8689 31.4238 49.2522L27.4134 43.0691C26.1188 41.0761 24.7425 39.0096 22.823 37.5762C22.1451 37.0698 20.8546 36.0978 19.9643 36.302C18.8902 36.5511 18.298 38.1602 18.2694 39.1199C18.2368 40.2675 18.6574 41.3702 19.0862 42.4238C20.3503 45.4463 21.8355 48.3716 23.5296 51.1757C24.2238 52.3274 24.8895 53.9937 23.8685 54.8513C22.9415 55.6354 21.5366 54.9003 20.6912 54.0345C18.6492 51.9272 17.4935 49.0398 15.3371 47.055C14.4766 46.1837 13.3439 45.6332 12.1271 45.495C10.9019 45.4296 9.62367 46.0953 9.21936 47.2511C8.84363 48.3333 9.29286 49.5217 9.77477 50.5591C11.5572 54.3867 13.8969 57.9292 16.7175 61.0712C17.4526 61.888 18.2081 63.2316 17.375 63.93C16.9094 64.3384 16.2152 64.2117 15.6434 63.9994C14.0752 63.4154 12.752 62.2719 11.1756 61.7042C9.59918 61.1365 7.47552 61.4224 6.78533 62.9661C6.16048 64.3669 7.02221 65.9556 7.8635 67.2298C11.9475 73.4292 16.4398 79.4572 22.1165 84.2109C24.3177 86.0568 26.7191 87.719 29.4145 88.6787C32.1099 89.6385 35.1321 89.8508 37.8071 88.8299C42.1769 87.1595 44.7988 82.6263 46.4365 78.183C48.2784 73.1801 49.3197 67.9159 50.353 62.6639L51.521 56.783Z" fill="#CCB1E5"/>
<mask id="mask1_0_75" style="mask-type:luminance" maskUnits="userSpaceOnUse" x="6" y="36" width="47" height="54">
<path d="M51.521 56.783C51.7143 55.8138 51.9049 54.8486 52.0928 53.8875C52.3255 52.7072 52.5583 51.478 52.2439 50.3181C51.9294 49.1583 50.8921 48.1046 49.7118 48.2149C48.6132 48.3211 47.8414 49.3298 47.2084 50.2569L42.7895 56.7136C39.8858 51.2125 40.6577 43.9553 36.6391 39.2302C36.3163 38.7894 35.8657 38.4586 35.3485 38.2827C34.9767 38.2179 34.5941 38.2634 34.2479 38.4137C33.9017 38.5639 33.6071 38.8123 33.4005 39.1281C32.99 39.7718 32.7666 40.5169 32.7552 41.2803C32.5919 43.8695 33.523 46.4138 33.5394 49.0072C33.5675 49.2122 33.5478 49.421 33.4819 49.6173C33.416 49.8135 33.3057 49.9919 33.1595 50.1384C32.5674 50.5468 31.8241 49.8689 31.4238 49.2522L27.4134 43.0691C26.1188 41.0761 24.7425 39.0096 22.823 37.5762C22.1451 37.0698 20.8546 36.0978 19.9643 36.302C18.8902 36.5511 18.298 38.1602 18.2694 39.1199C18.2368 40.2675 18.6574 41.3702 19.0862 42.4238C20.3503 45.4463 21.8355 48.3716 23.5296 51.1757C24.2238 52.3274 24.8895 53.9937 23.8685 54.8513C22.9415 55.6354 21.5366 54.9003 20.6912 54.0345C18.6492 51.9272 17.4935 49.0398 15.3371 47.055C14.4766 46.1837 13.3439 45.6332 12.1271 45.495C10.9019 45.4296 9.62367 46.0953 9.21936 47.2511C8.84363 48.3333 9.29286 49.5217 9.77477 50.5591C11.5572 54.3867 13.8969 57.9292 16.7175 61.0712C17.4526 61.888 18.2081 63.2316 17.375 63.93C16.9094 64.3384 16.2152 64.2117 15.6434 63.9994C14.0752 63.4154 12.752 62.2719 11.1756 61.7042C9.59918 61.1365 7.47552 61.4224 6.78533 62.9661C6.16048 64.3669 7.02221 65.9556 7.8635 67.2298C11.9475 73.4292 16.4398 79.4572 22.1165 84.2109C24.3177 86.0568 26.7191 87.719 29.4145 88.6787C32.1099 89.6385 35.1321 89.8508 37.8071 88.8299C42.1769 87.1595 44.7988 82.6263 46.4365 78.183C48.2784 73.1801 49.3197 67.9159 50.353 62.6639L51.521 56.783Z" fill="white"/>
</mask>
<g mask="url(#mask1_0_75)">
<path d="M56.8631 78.6649C55.0291 77.4151 52.9338 76.6007 50.7372 76.2839C51.9991 74.8995 52.2074 72.6084 50.0715 71.6078C43.9006 68.7082 38.3179 73.5395 34.9078 78.4648C31.4638 83.523 29.8408 89.6014 30.3051 95.7031C30.6155 99.7422 36.8395 99.7871 36.5454 95.7031C36.4632 94.6555 36.4522 93.6035 36.5127 92.5544C37.9135 92.7954 39.3715 92.146 39.6778 90.3123C40.8621 83.4758 47.956 80.2413 53.7062 84.1374C57.0632 86.404 60.1916 80.9192 56.8631 78.6649Z" fill="#E57E5E"/>
<path d="M28.2834 64.5466C24.7671 62.3495 20.6954 63.2969 17.0688 64.6365C14.3489 65.6411 14.4592 69.1493 16.1744 70.4561C15.9488 70.9258 15.7802 71.4207 15.6721 71.9304C15.1301 72.9656 14.9723 74.1593 15.2269 75.2997C15.4112 76.1096 15.8154 76.8529 16.395 77.4479C16.1239 77.6794 15.8661 77.9262 15.6231 78.1871C15.2714 78.564 15.0139 79.0188 14.8716 79.5143C14.0263 79.8329 13.1646 80.1106 12.2947 80.3311C8.41901 81.3807 10.0607 87.4985 13.9527 86.4571C17.462 85.5287 20.7876 84.0095 23.787 81.9647C26.7805 79.8982 29.9129 77.3131 31.281 73.7968C31.9577 72.1497 32.0278 70.3159 31.4788 68.6219C30.9299 66.9279 29.7975 65.4838 28.2834 64.5466Z" fill="#5D73DC"/>
<path d="M41.4343 51.2615C41.2895 51.191 41.1393 51.1323 40.9851 51.0859C40.4214 50.9235 39.8222 50.9332 39.2641 51.1137C38.706 51.2941 38.2145 51.6371 37.8526 52.0987C36.4648 52.7583 35.2168 53.679 34.1771 54.8105C33.7274 55.2008 33.3439 55.6614 33.0417 56.1745C32.9639 56.3069 32.8931 56.4432 32.8294 56.5829C32.5759 56.996 32.3508 57.4258 32.1555 57.8694C31.5838 59.1762 31.5878 60.6342 32.6456 61.7083C33.1034 62.161 33.6894 62.4618 34.3241 62.57C38.9145 65.8372 42.7207 58.6494 44.0521 55.1699C44.7872 53.23 43.1863 51.5719 41.4343 51.2615Z" fill="#DA7E42"/>
</g>
<path d="M11.4818 256.354C7.08765 269.875 3.95143 283.773 2.1132 297.871H107.79C110.916 288.703 112.048 278.974 111.11 269.333C82.5836 249.121 44.6844 245.834 11.4818 256.354Z" fill="#3A1C16"/>
<path d="M62.3151 122.6C68.5105 131.144 76.3435 139.108 86.1246 146.475C82.9146 150.918 83.5517 157.379 87.9419 160.622C92.3322 163.864 100.259 161.961 103.436 157.489C114.986 162.198 128.398 163.66 142.234 162.472L146.294 198.844C139.036 201.339 131.436 203.593 123.146 205.713C122.055 227.46 119.282 248.623 118.09 270.333C118.039 271.418 117.756 272.478 117.26 273.444C116.764 274.41 116.067 275.257 115.215 275.93C114.364 276.603 113.377 277.085 112.323 277.344C111.269 277.603 110.172 277.633 109.105 277.431C76.3598 270.921 43.3533 264.62 10.6163 258.114C9.47661 257.875 8.40607 257.38 7.48534 256.667C6.56459 255.954 5.81763 255.041 5.30061 253.998C4.78362 252.955 4.51007 251.807 4.50058 250.643C4.49109 249.478 4.7459 248.327 5.24583 247.275C13.9079 228.865 30.305 186.363 39.3673 168.545C33.4252 156.995 32.9596 152.054 30.0395 140.708C44.1782 132.202 49.6589 130.323 62.3151 122.6Z" fill="#E7963D"/>
<path d="M78.4221 228.383C64.6816 228.383 53.5427 217.072 53.5427 203.12C53.5427 189.167 64.6816 177.856 78.4221 177.856C92.1627 177.856 103.302 189.167 103.302 203.12C103.302 217.072 92.1627 228.383 78.4221 228.383Z" fill="#FFC133"/>
<path d="M97.8047 82.8101C88.6934 82.8101 81.2769 90.3409 81.2769 99.5952C81.2769 108.849 88.6934 116.38 97.8047 116.38C106.916 116.38 114.337 108.849 114.337 99.5952C114.337 90.3409 106.92 82.8101 97.8047 82.8101ZM97.8047 79.0079C109.003 79.0079 118.077 88.2254 118.077 99.5952C118.077 110.965 109.003 120.182 97.8047 120.182C86.6065 120.182 77.5278 110.965 77.5278 99.5952C77.5278 88.2254 86.6065 79.0079 97.8006 79.0079H97.8047Z" fill="#380423"/>
<path d="M152.615 103.397C143.5 103.397 136.088 110.928 136.088 120.182C136.088 129.437 143.5 136.968 152.615 136.968C161.731 136.968 169.143 129.437 169.143 120.182C169.143 110.928 161.731 103.397 152.615 103.397ZM152.615 99.5952C163.814 99.5952 172.888 108.813 172.888 120.182C172.888 131.552 163.814 140.778 152.615 140.778C141.417 140.778 132.343 131.56 132.343 120.191C132.343 108.821 141.421 99.6033 152.615 99.6033V99.5952Z" fill="#380423"/>
<path d="M107.549 110.075C107.213 110.073 106.884 109.981 106.597 109.807C106.309 109.634 106.074 109.386 105.915 109.09C102.5 102.832 96.8369 98.1029 90.0697 95.8584C89.5918 95.7021 89.195 95.3633 88.9655 94.9159C88.7361 94.4685 88.6926 93.9486 88.8445 93.4692C88.9175 93.2337 89.0364 93.0149 89.1944 92.8255C89.3525 92.6362 89.5465 92.48 89.7652 92.3661C89.9839 92.2522 90.2231 92.1827 90.4688 92.1618C90.7146 92.1408 90.962 92.1688 91.1969 92.2441C98.8724 94.7931 105.295 100.16 109.166 107.261C109.407 107.702 109.464 108.22 109.327 108.703C109.189 109.187 108.868 109.597 108.431 109.846C108.161 109.995 107.858 110.073 107.549 110.075Z" fill="#380423"/>
<path d="M163.854 126.999C163.459 126.998 163.074 126.87 162.756 126.635C159.784 124.493 156.375 123.037 152.774 122.371C149.172 121.705 145.468 121.846 141.927 122.784C141.689 122.848 141.44 122.865 141.195 122.833C140.95 122.8 140.714 122.72 140.501 122.596C140.287 122.471 140.101 122.306 139.952 122.109C139.803 121.912 139.694 121.688 139.632 121.448C139.499 120.965 139.562 120.448 139.807 120.011C140.053 119.573 140.461 119.25 140.943 119.112C145.022 118.005 149.298 117.829 153.454 118.599C157.61 119.368 161.54 121.062 164.953 123.556C165.355 123.857 165.622 124.303 165.699 124.8C165.775 125.296 165.654 125.802 165.361 126.21C165.191 126.453 164.966 126.651 164.704 126.788C164.441 126.925 164.15 126.997 163.854 126.999Z" fill="#380423"/>
<path d="M65.5332 69.5903C70.0544 70.3081 74.676 69.2085 78.3895 66.5314C82.8369 63.2275 86.1857 57.0036 82.3019 53.5975C84.0049 58.727 91.7767 60.6056 97.094 60.1686C102.411 59.7317 106.601 54.8963 107.304 52.4826C108.603 58.2002 113.021 61.0589 118.331 63.3991C123.64 65.7392 130.533 64.5671 134.168 59.9808C135.246 65.6738 139.649 68.8961 145.044 70.7951C150.439 72.6941 156.626 73.2006 160.947 69.4025C159.931 71.6883 159.526 74.1988 159.772 76.6881C160.018 79.1775 160.907 81.56 162.352 83.6024C163.824 85.5889 165.799 87.1475 168.074 88.1179C170.349 89.0883 172.84 89.4355 175.294 89.1239C173.423 95.3805 178.647 103.977 185.095 104.132C191.544 104.288 197.086 95.9646 195.509 89.6058C205.311 85.5913 211.531 74.1603 209.693 63.6033C208.876 58.8373 206.115 53.9733 201.558 52.5766C202.554 52.8829 204.559 45.4664 204.694 44.6659C205.202 41.7599 205.093 38.7795 204.376 35.9181C202.905 30.4946 198.25 26.3943 193.251 24.3605C187.966 22.2042 182.114 21.9714 176.425 22.2409C175.088 19.2111 173.029 16.5555 170.427 14.507C167.826 12.4585 164.761 11.0796 161.502 10.4914C158.241 9.98646 154.906 10.2957 151.794 11.3916C148.682 12.4875 145.888 14.336 143.663 16.7725C142.798 8.49021 136.047 1.01248 127.895 0.0895067C119.744 -0.833468 111.241 5.49667 110.273 13.7667C103.31 4.59412 86.8228 6.12968 78.8999 12.566C72.9333 17.4137 70.8382 23.0169 71.4916 30.5354C66.3949 29.8657 61.4533 31.9975 59.007 36.8737C56.5607 41.75 57.2836 47.7983 59.6809 52.7032C55.9236 53.1116 53.6325 57.7469 54.6453 61.4428C55.6581 65.1388 59.056 67.7403 62.6499 68.9369C63.591 69.2348 64.5555 69.4533 65.5332 69.5903Z" fill="#380423"/>
<path d="M185.651 104.263C185.71 104.107 185.704 103.933 185.636 103.78C185.568 103.627 185.443 103.508 185.287 103.446C181.636 102.054 178.537 98.9867 176.78 95.0252C176.08 93.4568 175.618 91.7926 175.408 90.0877C177.159 89.8734 178.836 89.257 180.309 88.2867C182.351 86.9227 183.613 85.0195 183.784 83.0633C183.835 82.4213 183.759 81.7757 183.56 81.1632C183.361 80.5507 183.043 79.9835 182.625 79.4939C182.303 79.101 181.903 78.7791 181.45 78.5486C180.997 78.318 180.502 78.1838 179.994 78.1544C177.593 78.036 175.845 80.3393 175.024 82.5202C174.272 84.5701 173.942 86.7513 174.056 88.932C170.924 89.0065 167.879 87.8933 165.533 85.8159C161.711 82.3895 159.995 76.4514 160.677 70.9503C161.848 70.4036 162.936 69.6941 163.908 68.843C165.672 67.287 166.669 65.1388 166.575 63.0968C166.509 61.6838 165.925 61.2223 165.447 61.0794C164.328 60.7527 162.956 62.0309 162.307 62.9702C160.865 65.1038 159.91 67.5284 159.509 70.0722C153.31 72.6125 144.742 71.1504 139.955 67.4218C137.74 65.6878 136.045 63.3777 135.055 60.7445C137.186 59.114 138.918 57.0189 140.119 54.6185C140.621 53.6016 141.266 52.0579 141.054 50.4407C140.862 48.9786 139.743 47.3368 138.044 47.1735C136.133 47.002 134.675 48.7254 133.96 50.3957C132.677 53.5147 132.541 56.9875 133.576 60.1972C128.871 63.4195 122.582 64.4364 117.363 62.2392C113.455 60.6056 110.155 57.1343 108.378 52.8461C110.547 49.7438 111.625 46.0088 111.441 42.2278C111.364 40.9495 110.596 39.2874 109.452 38.7115C109.161 38.5586 108.833 38.4894 108.505 38.5118C108.177 38.5341 107.862 38.6471 107.594 38.8381C106.009 39.9122 105.299 42.1543 105.487 45.5031C105.64 47.8111 106.091 50.0896 106.826 52.2825C106.875 52.4132 106.92 52.548 106.969 52.6909C104.876 55.6114 101.83 57.7112 98.3561 58.629C93.9904 59.6827 89.1304 58.4656 85.4671 55.8111C86.2226 52.9196 86.0471 50.1548 84.928 47.7943C84.6807 47.21 84.2974 46.6933 83.8101 46.287C83.3229 45.8806 82.7457 45.5965 82.1265 45.4582C80.7542 45.2254 80.0151 45.7645 79.6353 46.275C78.7899 47.3777 78.99 49.24 79.5332 50.5101C80.5377 52.7871 82.0792 54.7868 84.0255 56.3379C82.5389 60.8752 78.8266 65.0694 75.3879 66.9113C72.5426 68.3952 69.3357 69.0441 66.1373 68.7833C62.9389 68.5224 59.8795 67.3623 57.3123 65.437C57.2468 65.3874 57.1721 65.3514 57.0926 65.3309C57.013 65.3104 56.9302 65.306 56.8489 65.3177C56.7676 65.3295 56.6894 65.3573 56.619 65.3995C56.5485 65.4417 56.4871 65.4975 56.4383 65.5636C56.3382 65.6977 56.295 65.8659 56.3179 66.0318C56.3408 66.1976 56.4281 66.3478 56.5609 66.4498C59.3177 68.5161 62.6025 69.7608 66.0363 70.0405C69.4701 70.3201 72.9131 69.6233 75.9679 68.0303C79.1043 66.3558 82.204 63.0846 84.0582 59.4948C84.452 58.7316 84.7945 57.943 85.0832 57.1343C88.9671 59.8338 94.0108 61.0018 98.6624 59.8787C102.185 58.9623 105.309 56.9131 107.553 54.0468C109.518 58.3227 112.924 61.7696 116.922 63.4399C122.525 65.7882 129.076 64.8244 134.074 61.5C135.149 64.2319 136.933 66.6283 139.241 68.4428C144.256 72.347 152.812 73.9234 159.366 71.5302C158.844 77.2192 160.726 83.1777 164.753 86.7838C167.353 89.0851 170.733 90.3077 174.203 90.2021C174.427 92.0518 174.925 93.8577 175.682 95.5602C177.577 99.828 180.93 103.14 184.887 104.651C184.957 104.678 185.032 104.692 185.108 104.692C185.23 104.682 185.347 104.636 185.444 104.56C185.541 104.483 185.613 104.38 185.651 104.263ZM179.933 79.4204C180.27 79.4451 180.598 79.5391 180.897 79.6965C181.195 79.854 181.458 80.0714 181.669 80.3352C182.284 81.0647 182.592 82.005 182.527 82.9571C182.388 84.5254 181.301 86.0855 179.606 87.2371C178.306 88.0936 176.826 88.6412 175.282 88.8381C175.183 86.8456 175.487 84.8537 176.176 82.9816C176.825 81.25 178.12 79.4245 179.819 79.4245L179.933 79.4204ZM165.092 62.2964C165.129 62.2964 165.288 62.4965 165.321 63.1581C165.394 64.8162 164.561 66.5805 163.083 67.8832C162.424 68.4616 161.704 68.9657 160.935 69.3861C161.348 67.3516 162.159 65.4184 163.32 63.6972C163.891 62.8804 164.725 62.2923 165.039 62.2923L165.092 62.2964ZM137.971 48.4477C138.983 48.5416 139.723 49.6239 139.853 50.6122C139.984 51.6005 139.723 52.6746 139.036 54.055C137.988 56.142 136.495 57.9738 134.663 59.4213C133.846 56.6219 134.005 53.6283 135.112 50.9307C135.643 49.7055 136.619 48.4518 137.803 48.4518L137.971 48.4477ZM81.9223 46.7079C82.3419 46.8153 82.7308 47.0188 83.0582 47.3023C83.3857 47.5858 83.6427 47.9416 83.8091 48.3415C84.7402 50.4162 84.9445 52.7442 84.389 54.9493C82.7945 53.5945 81.5269 51.8969 80.6807 49.9832C80.2723 49.0276 80.1376 47.6636 80.6235 47.0346C80.7255 46.9035 80.8594 46.8009 81.0124 46.7365C81.1655 46.6721 81.3325 46.6482 81.4975 46.6671C81.6345 46.6707 81.771 46.6843 81.9059 46.7079H81.9223ZM108.921 39.8795C109.55 40.1981 110.147 41.3457 110.216 42.3299C110.375 45.5225 109.554 48.6874 107.864 51.4004C106.847 48.1986 105.732 41.6561 108.305 39.9122C108.402 39.8403 108.519 39.7991 108.64 39.7938C108.733 39.8021 108.824 39.8314 108.905 39.8795H108.921Z" fill="#070706"/>
<path d="M79.0675 40.3451C79.2064 40.2513 79.3027 40.1065 79.3356 39.9421C79.3684 39.7778 79.3352 39.6071 79.2431 39.4671C78.0179 37.5762 77.777 35.9753 78.5856 34.7011C80.1007 32.3079 84.8749 31.5033 85.806 31.5728C85.9161 31.627 86.0399 31.6469 86.1613 31.6299C86.2432 31.6179 86.3218 31.5899 86.3928 31.5475C86.4638 31.5051 86.5257 31.4491 86.575 31.3827C86.6243 31.3163 86.6601 31.2409 86.6802 31.1606C86.7003 31.0804 86.7044 30.997 86.6922 30.9152C86.2022 27.2683 88.4851 23.4334 91.8993 22.1878C93.6288 21.6083 95.5027 21.6244 97.222 22.2335C98.9414 22.8426 100.407 24.0098 101.386 25.5489C101.428 25.6197 101.484 25.6813 101.55 25.7302C101.616 25.7791 101.691 25.8143 101.771 25.8337C101.851 25.8531 101.934 25.8563 102.015 25.8432C102.097 25.8301 102.174 25.8008 102.244 25.7572C102.386 25.6672 102.486 25.5253 102.525 25.3619C102.563 25.1985 102.535 25.0267 102.448 24.8832C100.243 21.2608 95.4238 19.5741 91.4746 20.9953C87.7663 22.3512 85.2098 26.3494 85.3895 30.3312C83.5721 30.4537 79.3534 31.3645 77.6299 33.872C76.8132 35.0972 76.221 37.1392 78.2058 40.1695C78.2615 40.2563 78.3383 40.3277 78.4289 40.377C78.5196 40.4262 78.6213 40.4518 78.7245 40.4513C78.847 40.452 78.9668 40.4149 79.0675 40.3451Z" fill="#080908"/>
<path d="M122.251 22.5962C122.205 22.602 122.158 22.602 122.112 22.5962C121.95 22.5574 121.81 22.4563 121.722 22.3148C121.634 22.1734 121.606 22.0031 121.642 21.8407C121.956 20.3287 122.751 18.9591 123.908 17.9372C125.066 16.9153 126.523 16.2963 128.063 16.173C129.602 16.0497 131.139 16.4287 132.445 17.2533C133.75 18.0778 134.753 19.3034 135.303 20.7462C135.362 20.9008 135.359 21.0721 135.294 21.2243C135.229 21.3765 135.108 21.4979 134.956 21.563C134.879 21.5934 134.797 21.6083 134.714 21.6069C134.631 21.6055 134.55 21.5878 134.474 21.5548C134.398 21.5218 134.33 21.4742 134.272 21.4146C134.215 21.355 134.17 21.2847 134.139 21.2077C133.684 20.0179 132.857 19.0074 131.78 18.3273C130.703 17.6472 129.434 17.334 128.165 17.4347C126.895 17.5354 125.692 18.0445 124.736 18.8858C123.779 19.7271 123.121 20.8555 122.859 22.102C122.83 22.2415 122.753 22.3665 122.642 22.4564C122.532 22.5463 122.394 22.5956 122.251 22.5962Z" fill="#080908"/>
<path d="M176.037 55.4884C175.933 55.4889 175.83 55.4622 175.739 55.4108C175.593 55.3283 175.485 55.1919 175.439 55.0308C175.392 54.8697 175.41 54.6968 175.49 54.5491C175.922 53.6981 176.103 52.7411 176.009 51.7911C175.916 50.841 175.553 49.9375 174.963 49.1869C173.787 47.7575 170.209 47.1898 168.404 47.8065C168.28 47.8487 168.147 47.8504 168.022 47.8115C167.897 47.7726 167.788 47.695 167.71 47.59C167.633 47.4821 167.592 47.3529 167.592 47.2204C167.592 47.088 167.633 46.9588 167.71 46.8508C169.556 44.086 169.164 39.9081 166.84 37.5476C165.635 36.3919 164.076 35.6753 162.415 35.5131C160.753 35.3509 159.085 35.7524 157.68 36.6532C157.612 36.6998 157.536 36.7323 157.455 36.7489C157.374 36.7655 157.291 36.7658 157.211 36.7498C157.13 36.7339 157.053 36.7019 156.985 36.6558C156.917 36.6098 156.859 36.5506 156.814 36.4817C156.721 36.3426 156.686 36.1726 156.718 36.0084C156.749 35.8441 156.844 35.6987 156.981 35.6036C158.621 34.5221 160.582 34.0362 162.538 34.2272C164.493 34.4183 166.323 35.2747 167.722 36.6532C170.173 39.1362 170.806 43.1508 169.417 46.324C171.7 46.1117 174.673 46.8345 175.951 48.366C176.707 49.3119 177.172 50.4568 177.289 51.6616C177.406 52.8665 177.172 54.0796 176.613 55.1535C176.558 55.258 176.475 55.3449 176.373 55.4041C176.271 55.4634 176.155 55.4926 176.037 55.4884Z" fill="#080908"/>
<path d="M196.779 51.7965C196.662 51.7962 196.547 51.7622 196.449 51.6985C196.307 51.6072 196.207 51.4639 196.171 51.2996C196.134 51.1354 196.163 50.9633 196.253 50.8205C196.859 49.8216 197.243 48.7037 197.379 47.5429C197.514 46.3821 197.397 45.2058 197.037 44.0942C196.658 42.9956 196.045 41.9928 195.238 41.1562C194.432 40.3196 193.453 39.6692 192.369 39.2506C192.212 39.191 192.084 39.0717 192.015 38.9187C191.945 38.7657 191.939 38.5914 191.997 38.4338C192.024 38.3543 192.067 38.2811 192.124 38.2187C192.18 38.1563 192.249 38.106 192.325 38.0709C192.401 38.0358 192.484 38.0165 192.568 38.0143C192.652 38.0121 192.736 38.027 192.814 38.0581C194.077 38.5356 195.219 39.2879 196.156 40.2604C197.093 41.2329 197.803 42.4015 198.233 43.6817C198.662 44.9713 198.802 46.3393 198.645 47.6891C198.488 49.0389 198.036 50.3378 197.323 51.4943C197.267 51.5883 197.187 51.6658 197.092 51.7189C196.996 51.772 196.889 51.7988 196.779 51.7965Z" fill="#080908"/>
<path d="M125.898 2.80942C123.715 2.34883 121.439 2.7036 119.5 3.8067C117.561 4.90979 116.093 6.68484 115.374 8.79651C114.455 11.3531 118.473 12.4721 119.384 9.9196C119.792 8.86345 120.554 7.98231 121.541 7.42776C122.528 6.87321 123.677 6.67991 124.791 6.88113C127.405 7.4243 128.524 3.35259 125.898 2.80942Z" fill="#FFF2F1"/>
<path d="M156.499 14.5835C156.217 14.1075 155.759 13.7615 155.225 13.6201C154.69 13.4788 154.121 13.5534 153.641 13.8279L150.083 15.6331C149.079 16.1435 148.797 17.5852 149.336 18.5245C149.617 19.0013 150.075 19.348 150.61 19.4894C151.145 19.6309 151.715 19.5556 152.195 19.28L155.752 17.4749C156.757 16.9808 157.038 15.5391 156.499 14.5835Z" fill="#FFF2F1"/>
<path d="M185.834 23.4906H183.168C182.623 23.5145 182.109 23.7477 181.732 24.1414C181.355 24.5351 181.145 25.0591 181.145 25.604C181.145 26.149 181.355 26.673 181.732 27.0667C182.109 27.4604 182.623 27.6935 183.168 27.7175H185.834C186.379 27.6935 186.893 27.4604 187.27 27.0667C187.647 26.673 187.857 26.149 187.857 25.604C187.857 25.0591 187.647 24.5351 187.27 24.1414C186.893 23.7477 186.379 23.5145 185.834 23.4906Z" fill="#FFF2F1"/>
<path d="M68.1099 134.313L63.6421 128.894C62.9233 128.015 61.4449 128.138 60.7016 128.894C59.8481 129.763 59.9788 131.001 60.7016 131.879L65.149 137.302C65.8678 138.176 67.3462 138.054 68.0895 137.302C68.9512 136.433 68.8327 135.191 68.1099 134.313Z" fill="#FFF2F1"/>
<path d="M135.111 165.31H131.554C130.994 165.31 130.457 165.533 130.061 165.929C129.665 166.325 129.443 166.862 129.443 167.422C129.443 167.982 129.665 168.519 130.061 168.915C130.457 169.311 130.994 169.533 131.554 169.533H135.111C135.671 169.533 136.208 169.311 136.604 168.915C137 168.519 137.223 167.982 137.223 167.422C137.223 166.862 137 166.325 136.604 165.929C136.208 165.533 135.671 165.31 135.111 165.31Z" fill="#FFF2F1"/>
<path d="M4.80496 256.142C4.71333 256.141 4.62239 256.125 4.5354 256.097C4.32603 256.022 4.15425 255.868 4.05661 255.668C3.95898 255.468 3.94318 255.238 4.01265 255.027C12.25 230.208 23.6157 197.851 38.7263 167.242C33.2857 159.363 30.3013 150.049 30.15 140.476C30.1456 140.254 30.2289 140.039 30.3819 139.879C30.5349 139.718 30.7451 139.624 30.9668 139.618C31.1834 139.618 31.3912 139.704 31.5443 139.857C31.6975 140.01 31.7836 140.218 31.7836 140.435C31.9274 149.835 34.902 158.974 40.3191 166.658C40.4086 166.784 40.4623 166.931 40.4746 167.085C40.4868 167.239 40.4571 167.394 40.3885 167.532C25.2248 198.162 13.7978 230.658 5.54004 255.549C5.49387 255.712 5.39837 255.856 5.2667 255.962C5.13503 256.068 4.97371 256.131 4.80496 256.142Z" fill="#080908"/>
<path d="M110.751 279.289C110.536 279.28 110.334 279.189 110.184 279.036C110.034 278.883 109.948 278.678 109.943 278.463C109.938 278.249 110.015 278.041 110.158 277.881C110.302 277.721 110.5 277.622 110.714 277.603C112.915 277.501 115.104 275.785 116.284 273.229C117.412 270.778 117.624 268.001 117.828 265.302C118.584 255.345 119.421 245.233 120.234 235.456C121.046 225.679 121.867 215.567 122.635 205.615C122.648 205.428 122.723 205.25 122.849 205.111C122.975 204.972 123.144 204.879 123.329 204.847C131.217 203.546 138.88 201.127 146.085 197.663C146.184 197.615 146.292 197.587 146.402 197.582C146.512 197.576 146.622 197.593 146.726 197.631C146.829 197.669 146.924 197.728 147.004 197.804C147.084 197.88 147.148 197.971 147.192 198.072C147.285 198.275 147.295 198.507 147.218 198.717C147.142 198.928 146.986 199.099 146.783 199.195C139.635 202.63 132.046 205.058 124.232 206.411C123.493 216.151 122.672 226.014 121.879 235.599C121.063 245.376 120.246 255.484 119.474 265.433C119.27 268.152 119.037 271.236 117.779 273.952C116.337 277.068 113.589 279.163 110.775 279.294L110.751 279.289Z" fill="#080908"/>
<path d="M94.0555 163.648H93.9738C89.8899 163.619 86.0591 161.386 84.2336 157.959C82.2774 154.283 82.9471 149.473 85.7896 146.744C85.8682 146.668 85.9615 146.608 86.0639 146.568C86.1663 146.528 86.2757 146.509 86.3855 146.513C86.4953 146.516 86.6033 146.542 86.703 146.588C86.8027 146.634 86.8921 146.7 86.9658 146.781C87.1181 146.944 87.2001 147.161 87.194 147.384C87.1879 147.607 87.0942 147.819 86.9331 147.974C84.6216 150.191 84.0743 154.141 85.7079 157.155C87.2271 160.013 90.5555 161.933 93.9983 161.957C97.2246 161.957 100.598 160.422 103.032 157.779C103.106 157.698 103.195 157.632 103.295 157.586C103.395 157.54 103.503 157.514 103.612 157.511C103.722 157.507 103.832 157.526 103.934 157.566C104.036 157.606 104.13 157.666 104.208 157.743C104.369 157.897 104.462 158.108 104.47 158.331C104.478 158.553 104.398 158.77 104.249 158.935C101.509 161.892 97.7106 163.648 94.0555 163.648Z" fill="#080908"/>
<path d="M131.877 163.24C123.071 163.174 114.348 161.541 106.115 158.416C92.4871 153.177 75.1874 141.529 67.5137 124.556C64.2914 117.43 64.1444 109.393 67.1053 101.31C67.1408 101.207 67.1969 101.111 67.2703 101.029C67.3437 100.947 67.4328 100.881 67.5323 100.835C67.6318 100.788 67.7397 100.762 67.8495 100.758C67.9593 100.754 68.0687 100.773 68.1712 100.812C68.3799 100.892 68.5487 101.051 68.6412 101.254C68.7337 101.457 68.7424 101.689 68.6654 101.899C65.876 109.552 66.0067 117.14 69.0411 123.85C76.5066 140.357 93.3978 151.715 106.72 156.836C120.376 162.088 139.906 164.101 152.758 156.775C163.001 150.931 166.582 140.194 170.376 128.832C173.366 119.88 176.457 110.63 183.11 104.006C183.186 103.927 183.278 103.864 183.379 103.821C183.48 103.778 183.588 103.756 183.698 103.756C183.808 103.756 183.917 103.778 184.018 103.821C184.119 103.864 184.21 103.927 184.286 104.006C184.443 104.165 184.531 104.38 184.531 104.604C184.531 104.828 184.443 105.043 184.286 105.202C177.915 111.541 174.893 120.599 171.965 129.363C168.236 140.529 164.381 152.074 153.587 158.233C147.363 161.778 139.702 163.24 131.877 163.24Z" fill="#080908"/>
<path d="M68.4 97.9289C68.3444 97.935 68.2882 97.935 68.2325 97.9289C68.0149 97.8819 67.8246 97.7508 67.703 97.5642C67.5814 97.3776 67.5384 97.1506 67.5832 96.9325L73.1782 69.186C73.1971 69.0769 73.238 68.9728 73.2983 68.88C73.3587 68.7872 73.4373 68.7077 73.5293 68.6462C73.6214 68.5847 73.7249 68.5425 73.8338 68.5223C73.9426 68.5021 74.0545 68.5042 74.1625 68.5285C74.3801 68.5756 74.5704 68.7067 74.692 68.8932C74.8136 69.0798 74.8566 69.3069 74.8118 69.525L69.2127 97.2714C69.1755 97.4587 69.0738 97.6271 68.9253 97.7472C68.7768 97.8673 68.591 97.9316 68.4 97.9289Z" fill="#080908"/>
<path d="M67.8937 102.389C67.8305 102.388 67.7676 102.381 67.7058 102.368C60.4771 100.645 54.0123 94.3841 51.6191 86.7797C49.2055 79.1141 50.8594 71.0892 55.9399 65.8413C56.0161 65.7622 56.1074 65.6993 56.2085 65.6564C56.3095 65.6134 56.4182 65.5913 56.528 65.5913C56.6378 65.5913 56.7464 65.6134 56.8475 65.6564C56.9485 65.6993 57.0399 65.7622 57.1161 65.8413C57.2708 66.0012 57.3573 66.215 57.3573 66.4375C57.3573 66.66 57.2708 66.8738 57.1161 67.0338C52.4685 71.8324 50.9656 79.204 53.1914 86.2733C55.4172 93.3427 61.392 99.1419 68.0733 100.731C68.2892 100.784 68.4754 100.92 68.5916 101.11C68.7078 101.299 68.7446 101.527 68.6941 101.743C68.6548 101.926 68.5538 102.09 68.4081 102.208C68.2624 102.325 68.0808 102.389 67.8937 102.389Z" fill="#080908"/>
</svg>
