<svg width="286" height="303" viewBox="0 0 286 303" fill="none" xmlns="http://www.w3.org/2000/svg">
<path d="M217.04 83.4362C223.689 84.2227 229.436 88.4112 234.297 93.0388C239.158 97.6663 243.534 102.861 249.131 106.542C254.728 110.223 262.039 112.175 268.171 109.487C263.571 117.434 256.635 124.233 248.052 127.576C230.9 134.275 215.938 124.005 209.019 108.568C206.994 104.054 201.534 93.8527 203.583 88.9417C205.499 84.3827 212.76 82.9286 217.04 83.4362Z" fill="#502315"/>
<path d="M99.3764 134.371C95.6131 139.908 95.014 146.996 95.3113 153.686C95.6085 160.376 96.6831 167.102 95.7914 173.742C94.8997 180.381 91.5937 187.185 85.5441 190.052C94.5659 191.785 104.246 190.999 112.376 186.723C128.673 178.154 130.717 160.12 123.589 144.778C121.503 140.293 117.374 129.483 112.322 127.814C107.653 126.287 101.782 130.823 99.3764 134.371Z" fill="#502315"/>
<path d="M161.816 154.061C163.979 156.855 164.701 164.185 164.23 167.687C167.6 170.573 175.031 170.175 179.32 169.096C181.473 168.536 183.465 167.477 185.133 166.005C186.801 164.533 188.099 162.689 188.923 160.623C187.176 154.751 185.452 148.638 185.58 142.51C177.976 143.91 168.085 149.497 161.816 154.061Z" fill="#E8988B"/>
<path d="M196.641 69.4393C194.062 63.5634 196.536 55.9362 202.078 52.6988C207.62 49.4613 215.481 51.048 219.336 56.1831C222.079 59.8413 222.747 64.6654 222.838 69.2518C222.93 73.8382 222.504 78.4977 220.355 82.5125C216.843 89.0606 209.536 92.458 202.718 95.4211L196.641 69.4393Z" fill="#E8988B"/>
<path d="M172.804 41.2854C185.909 44.221 199.87 39.3009 198.868 52.717C197.039 76.8104 216.189 102.102 202.769 125.779C188.287 151.345 158.871 165.598 129.958 164.551C121.403 164.24 111.517 163.824 103.981 159.26C88.9781 150.174 86.6414 126.488 77.6196 112.619C71.1447 102.673 74.6839 87.5607 80.2443 77.1167C86.3396 65.6851 96.683 56.9468 108.009 50.6319C129.03 38.8985 150.791 36.3515 172.804 41.2854Z" fill="#FFBCAE"/>
<mask id="mask0_0_131" style="mask-type:luminance" maskUnits="userSpaceOnUse" x="74" y="38" width="134" height="127">
<path d="M172.804 41.2854C185.909 44.221 199.87 39.3009 198.868 52.717C197.039 76.8104 216.189 102.102 202.769 125.779C188.287 151.345 158.871 165.598 129.958 164.551C121.403 164.24 111.517 163.824 103.981 159.26C88.9781 150.174 86.6414 126.488 77.6196 112.619C71.1447 102.673 74.6839 87.5607 80.2443 77.1167C86.3396 65.6851 96.683 56.9468 108.009 50.6319C129.03 38.8985 150.791 36.3515 172.804 41.2854Z" fill="white"/>
</mask>
<g mask="url(#mask0_0_131)">
<g style="mix-blend-mode:multiply" opacity="0.29">
<path d="M192.155 94.4197C187.126 99.9343 184.743 107.342 183.22 114.645C182.411 118.545 181.803 122.56 182.388 126.497C182.974 130.434 184.908 134.33 188.246 136.497C192.855 139.483 199.22 138.518 203.765 135.45C208.311 132.382 211.406 127.594 214.026 122.766C217.063 117.16 219.692 111.124 219.916 104.754C220.52 87.5058 203.294 82.2016 192.155 94.4197Z" fill="#E09586"/>
</g>
<g style="mix-blend-mode:multiply" opacity="0.29">
<path d="M98.503 139.712C105.911 138.797 113.332 141.134 120.173 144.115C123.831 145.707 127.448 147.531 130.324 150.288C133.2 153.046 135.263 156.869 135.098 160.847C134.869 166.334 130.411 170.961 125.271 172.909C120.132 174.857 114.443 174.601 108.988 173.943C102.66 173.179 96.2167 171.839 90.8896 168.337C76.4674 158.862 82.1191 141.733 98.503 139.712Z" fill="#E09586"/>
</g>
</g>
<path d="M148.016 94.0036C147.987 91.2895 148.5 88.597 149.525 86.0838C153.686 76.0879 165.698 71.0397 174.043 78.5069C180.134 83.9575 181.405 93.9533 176.59 101.064C171.3 108.883 158.652 112.244 152.049 105.147C149.337 102.248 148.057 98.151 148.016 94.0036Z" fill="white"/>
<path d="M165.942 106.949C171.454 106.04 174.997 99.7013 173.857 92.7918C172.717 85.8822 167.325 81.0183 161.813 81.9277C156.301 82.8372 152.758 89.1758 153.898 96.0853C155.038 102.995 160.43 107.859 165.942 106.949Z" fill="#380423"/>
<path d="M180.01 97.6068C179.855 97.6845 179.68 97.7162 179.507 97.6983C179.392 97.6875 179.281 97.6538 179.179 97.5991C179.077 97.5445 178.988 97.47 178.915 97.38C178.843 97.2901 178.789 97.1865 178.757 97.0754C178.725 96.9644 178.716 96.8481 178.73 96.7334C179.293 92.3711 178.849 88.3015 177.45 84.9771C175.845 81.1498 172.914 78.205 169.416 76.8927C163.243 74.6063 155.035 77.9398 151.495 84.2089C148.208 90.0345 148.596 97.872 152.474 104.178C152.534 104.277 152.574 104.388 152.59 104.503C152.607 104.619 152.601 104.736 152.572 104.849C152.543 104.961 152.492 105.067 152.422 105.16C152.352 105.253 152.264 105.331 152.163 105.389C151.962 105.51 151.722 105.549 151.493 105.498C151.264 105.447 151.064 105.31 150.933 105.115C146.731 98.2882 146.36 89.7647 149.927 83.3904C153.96 76.2388 163.005 72.5807 170.097 75.2328C174.039 76.7098 177.326 79.9975 179.114 84.2547C180.651 87.9128 181.122 92.1653 180.514 96.8935C180.496 97.0449 180.44 97.1895 180.353 97.314C180.265 97.4386 180.147 97.5392 180.01 97.6068Z" fill="#380423"/>
<path d="M126.716 104.534C124.578 102.859 122.126 101.629 119.505 100.917C109.038 98.1739 97.7302 104.635 98.5945 115.797C99.2301 123.945 106.395 131.024 114.969 131.522C124.398 132.066 134.746 124.06 133.118 114.503C132.455 110.593 129.986 107.086 126.716 104.534Z" fill="white"/>
<path d="M126.902 124.423C130.778 120.628 130.318 113.871 125.873 109.331C121.428 104.79 114.682 104.185 110.806 107.98C106.93 111.775 107.39 118.532 111.835 123.072C116.28 127.613 123.026 128.217 126.902 124.423Z" fill="#380423"/>
<path d="M110.145 132.135C110.011 132.202 109.862 132.235 109.712 132.231C109.562 132.227 109.416 132.186 109.285 132.112C105.17 129.721 102.065 126.767 100.094 123.323C97.808 119.318 97.1815 114.709 98.407 110.68C100.602 103.437 109.002 98.4711 117.155 99.6097C124.398 100.629 130.937 106.121 133.804 113.602C133.88 113.825 133.868 114.069 133.769 114.282C133.67 114.496 133.493 114.664 133.273 114.75C133.166 114.794 133.05 114.816 132.934 114.815C132.818 114.814 132.703 114.79 132.596 114.745C132.488 114.699 132.391 114.633 132.31 114.55C132.229 114.467 132.164 114.368 132.121 114.26C129.469 107.351 123.479 102.285 116.858 101.352C109.711 100.35 102.061 104.832 100.149 111.137C99.0654 114.713 99.6233 118.829 101.69 122.432C103.483 125.564 106.441 128.376 110.25 130.594C110.35 130.652 110.438 130.729 110.507 130.822C110.577 130.915 110.627 131.02 110.654 131.133C110.681 131.245 110.686 131.362 110.666 131.476C110.647 131.59 110.605 131.699 110.543 131.797C110.446 131.946 110.308 132.063 110.145 132.135Z" fill="#380423"/>
<path d="M107.799 139.858C107.667 139.928 107.521 139.964 107.372 139.964C107.223 139.964 107.076 139.928 106.944 139.858C106.844 139.801 106.756 139.724 106.686 139.631C106.616 139.539 106.565 139.433 106.538 139.321C106.51 139.208 106.505 139.091 106.524 138.977C106.543 138.863 106.585 138.753 106.647 138.656L109.944 133.283C110.067 133.078 110.264 132.93 110.495 132.869C110.726 132.809 110.971 132.841 111.178 132.958C111.279 133.015 111.367 133.093 111.437 133.185C111.507 133.278 111.557 133.383 111.585 133.496C111.613 133.608 111.617 133.725 111.599 133.839C111.58 133.954 111.538 134.063 111.476 134.161L108.183 139.534C108.088 139.676 107.955 139.788 107.799 139.858Z" fill="#380423"/>
<path d="M115.266 139.931C115.167 139.979 115.06 140.01 114.951 140.023C114.836 140.037 114.719 140.027 114.608 139.995C114.496 139.963 114.393 139.909 114.303 139.836C114.213 139.763 114.138 139.673 114.084 139.571C114.029 139.468 113.996 139.356 113.986 139.241L113.693 135.638C113.679 135.401 113.758 135.168 113.912 134.988C114.066 134.808 114.285 134.695 114.521 134.673C114.636 134.659 114.753 134.668 114.864 134.7C114.975 134.732 115.079 134.786 115.169 134.859C115.259 134.932 115.333 135.023 115.388 135.125C115.442 135.227 115.476 135.339 115.486 135.455L115.774 139.053C115.785 139.233 115.743 139.413 115.653 139.569C115.563 139.725 115.428 139.851 115.266 139.931Z" fill="#380423"/>
<path d="M120.488 139.652L120.433 139.68C120.327 139.727 120.212 139.752 120.096 139.755C119.979 139.757 119.864 139.736 119.755 139.694C119.647 139.651 119.548 139.588 119.464 139.507C119.38 139.426 119.314 139.329 119.267 139.223L117.79 135.633C117.71 135.413 117.717 135.169 117.81 134.954C117.904 134.739 118.077 134.568 118.293 134.476C118.4 134.429 118.515 134.404 118.631 134.401C118.747 134.399 118.863 134.42 118.972 134.462C119.08 134.505 119.179 134.568 119.263 134.649C119.346 134.73 119.413 134.827 119.459 134.933L120.936 138.523C121.013 138.733 121.01 138.965 120.927 139.173C120.844 139.381 120.688 139.552 120.488 139.652Z" fill="#380423"/>
<path d="M187.981 100.433C188.115 100.367 188.231 100.269 188.319 100.148C188.407 100.027 188.463 99.8859 188.484 99.7377C188.499 99.6232 188.491 99.5068 188.46 99.3955C188.429 99.2842 188.376 99.1803 188.304 99.0901C188.231 99 188.142 98.9254 188.04 98.8708C187.938 98.8163 187.826 98.783 187.711 98.7729L181.437 98.1281C181.2 98.1021 180.962 98.1698 180.774 98.3167C180.586 98.4637 180.463 98.6782 180.431 98.9146C180.416 99.0292 180.424 99.1456 180.455 99.2569C180.486 99.3682 180.539 99.4721 180.612 99.5622C180.684 99.6524 180.773 99.727 180.875 99.7815C180.977 99.836 181.089 99.8694 181.204 99.8795L187.478 100.524C187.651 100.542 187.825 100.51 187.981 100.433Z" fill="#380423"/>
<path d="M183.486 106.395C183.585 106.347 183.675 106.28 183.751 106.199C183.832 106.116 183.895 106.017 183.937 105.909C183.979 105.801 183.998 105.685 183.995 105.569C183.992 105.453 183.965 105.339 183.917 105.234C183.869 105.128 183.8 105.034 183.714 104.955L181.03 102.541C180.851 102.386 180.619 102.307 180.383 102.32C180.147 102.333 179.925 102.436 179.764 102.609C179.683 102.692 179.619 102.79 179.577 102.898C179.535 103.006 179.515 103.121 179.518 103.237C179.521 103.352 179.548 103.466 179.597 103.571C179.645 103.677 179.714 103.771 179.8 103.849L182.48 106.267C182.616 106.386 182.784 106.461 182.963 106.484C183.142 106.506 183.324 106.476 183.486 106.395Z" fill="#380423"/>
<path d="M180.093 110.374L180.148 110.346C180.25 110.29 180.339 110.213 180.412 110.122C180.484 110.031 180.538 109.926 180.569 109.814C180.601 109.702 180.611 109.584 180.597 109.469C180.584 109.353 180.547 109.241 180.491 109.139L178.534 105.787C178.407 105.59 178.21 105.449 177.983 105.393C177.756 105.337 177.516 105.37 177.313 105.486C177.211 105.541 177.121 105.617 177.048 105.708C176.975 105.799 176.922 105.903 176.89 106.015C176.858 106.127 176.848 106.244 176.862 106.36C176.876 106.475 176.912 106.587 176.97 106.688L178.922 110.044C179.043 110.233 179.229 110.371 179.445 110.432C179.661 110.493 179.891 110.472 180.093 110.374Z" fill="#380423"/>
<path d="M158.222 65.1501C156.431 64.4534 154.503 64.1796 152.588 64.3499C149.031 64.6517 144.815 67.5005 142.286 69.9057C139.218 72.8322 138.308 78.0541 144.152 78.2371C146.895 78.3239 150.22 76.44 152.648 75.3014C154.934 74.2314 158.263 73.0151 159.722 70.8522C161.706 67.9166 160.435 66.1012 158.222 65.1501Z" fill="#380423"/>
<path d="M92.5311 97.616C93.0687 95.7714 94.0212 94.0743 95.3158 92.6547C97.721 90.0117 102.541 88.3929 105.988 87.8488C110.177 87.1857 114.882 89.6367 111.476 94.3877C109.88 96.6146 106.359 98.119 103.986 99.3536C101.745 100.52 98.7545 102.426 96.1481 102.271C92.6363 102.065 91.9458 99.9526 92.5311 97.616Z" fill="#380423"/>
<path d="M153.21 129.647C149.94 131.25 146.191 131.576 142.693 130.562C142.582 130.529 142.48 130.475 142.391 130.401C142.302 130.328 142.229 130.237 142.176 130.134C142.124 130.031 142.093 129.919 142.085 129.804C142.077 129.689 142.093 129.573 142.131 129.465C142.207 129.238 142.369 129.051 142.582 128.942C142.795 128.834 143.041 128.813 143.269 128.884C146.451 129.832 149.879 129.483 152.804 127.913C155.729 126.342 157.913 123.678 158.88 120.502C158.948 120.274 159.101 120.08 159.309 119.963C159.516 119.846 159.761 119.815 159.992 119.876C160.104 119.904 160.209 119.954 160.301 120.024C160.393 120.094 160.47 120.182 160.527 120.282C160.584 120.383 160.619 120.494 160.632 120.609C160.645 120.724 160.634 120.84 160.6 120.95C159.482 124.586 156.983 127.638 153.64 129.451C153.485 129.51 153.347 129.579 153.21 129.647Z" fill="#380423"/>
<path d="M146.831 121.814C144.124 123.15 140.594 122.491 138.697 120.255C137.747 119.073 137.23 117.601 137.23 116.085C137.23 114.568 137.747 113.097 138.697 111.915C139.698 110.74 141.054 109.923 142.56 109.587C144.066 109.25 145.641 109.412 147.046 110.049C147.15 110.1 147.242 110.172 147.317 110.26C147.393 110.347 147.449 110.449 147.484 110.56C147.518 110.67 147.53 110.786 147.519 110.901C147.507 111.016 147.473 111.128 147.417 111.229C147.306 111.44 147.118 111.599 146.892 111.674C146.665 111.748 146.419 111.731 146.205 111.627C145.172 111.171 144.02 111.059 142.918 111.306C141.816 111.553 140.822 112.146 140.082 112.998C139.399 113.871 139.027 114.947 139.027 116.055C139.027 117.163 139.399 118.24 140.082 119.112C141.486 120.763 144.198 121.234 146.2 120.177C146.301 120.117 146.413 120.078 146.53 120.062C146.646 120.046 146.764 120.054 146.878 120.085C146.991 120.116 147.097 120.17 147.189 120.243C147.281 120.317 147.357 120.408 147.412 120.511C147.466 120.615 147.5 120.727 147.51 120.844C147.52 120.96 147.508 121.077 147.473 121.188C147.438 121.299 147.382 121.403 147.307 121.492C147.232 121.581 147.141 121.655 147.037 121.709L146.831 121.814Z" fill="#380423"/>
<path d="M200.044 61.4279C175.2 80.3679 136.003 75.5026 117.736 49.2738C116.821 64.3042 105.961 104.182 80.2399 120.809C77.4322 122.638 70.0885 116.437 68.447 114.585C50.6959 94.5294 54.0979 56.8141 66.8419 35.4461C84.0077 6.63836 115.769 -3.7553 147.623 1.1786C161.921 3.39634 174.999 11.2888 184.963 21.5955C189.595 26.3877 193.829 31.7834 196.701 37.8239C198.42 41.4957 204.484 58.0396 200.044 61.4279Z" fill="#511E08"/>
<path d="M129.154 165.291C128.28 165.291 127.402 165.291 126.511 165.264C108.636 164.903 95.5125 157.102 89.5589 143.315C88.3608 140.54 87.4097 137.59 86.4906 134.737C85.0228 130.164 83.5046 125.459 80.9485 121.44C80.8097 121.221 80.7633 120.957 80.8194 120.704C80.8756 120.452 81.0298 120.232 81.2481 120.093C81.4663 119.954 81.7309 119.908 81.9834 119.964C82.236 120.02 82.4559 120.174 82.5947 120.392C85.2835 124.627 86.8427 129.465 88.3471 134.142C89.2616 136.95 90.1762 139.854 91.3468 142.542C96.9803 155.602 109.482 162.987 126.556 163.33C145.249 163.714 161.203 160.033 173.984 152.406C184.926 145.876 194.072 137.403 200.437 127.896C207.369 117.521 208.782 106.935 205.124 92.5586C205.083 92.3157 205.135 92.0662 205.271 91.8605C205.407 91.6549 205.615 91.5083 205.855 91.4503C206.094 91.3923 206.347 91.4273 206.562 91.5481C206.776 91.6689 206.937 91.8666 207.012 92.1014C210.803 107.086 209.299 118.115 202.037 128.984C195.512 138.729 186.152 147.408 174.967 154.084C162.488 161.519 147.083 165.291 129.154 165.291Z" fill="#080908"/>
<path d="M216.455 87.6613C216.266 87.6626 216.081 87.6089 215.923 87.5068C215.764 87.4046 215.639 87.2584 215.562 87.0861C215.485 86.9138 215.461 86.7229 215.491 86.5367C215.521 86.3506 215.605 86.1772 215.732 86.038C218.182 83.3374 219.997 80.1225 221.043 76.6291C222.089 73.1358 222.34 69.4526 221.777 65.8497C221.32 62.6077 219.825 56.677 215.064 53.3527C211.406 50.8148 205.462 50.5542 202.389 54.2123C202.222 54.41 201.984 54.5333 201.726 54.5552C201.468 54.5771 201.213 54.4957 201.015 54.3289C200.817 54.1622 200.694 53.9237 200.672 53.666C200.65 53.4083 200.732 53.1525 200.898 52.9548C204.662 48.4873 211.841 48.7251 216.18 51.7568C220.154 54.5324 222.829 59.4389 223.707 65.5708C224.313 69.4569 224.041 73.4293 222.911 77.1965C221.781 80.9637 219.822 84.4301 217.177 87.3412C217.086 87.4426 216.975 87.5235 216.85 87.5786C216.726 87.6338 216.591 87.662 216.455 87.6613Z" fill="#080908"/>
<path d="M79.4579 86.5547C79.2913 86.5528 79.1302 86.4948 79.0006 86.3901C78.851 86.2669 78.7563 86.0894 78.7375 85.8965C78.7186 85.7036 78.777 85.5111 78.9 85.3613C91.5685 69.7478 99.2054 50.6603 100.803 30.6174C100.822 30.4274 100.915 30.2525 101.061 30.1298C101.207 30.0071 101.396 29.9465 101.586 29.9608C101.776 29.9751 101.953 30.0633 102.08 30.2064C102.206 30.3496 102.271 30.5365 102.262 30.7271C100.639 51.0683 92.8872 70.4396 80.0295 86.285C79.9611 86.3706 79.874 86.4394 79.7749 86.4861C79.6759 86.5329 79.5674 86.5563 79.4579 86.5547Z" fill="#070706"/>
<path d="M71.2315 77.9627C71.0658 77.9649 70.9043 77.91 70.7742 77.8072C70.6979 77.7489 70.6339 77.6761 70.5859 77.593C70.5379 77.5098 70.5068 77.4179 70.4945 77.3227C70.4822 77.2275 70.4888 77.1308 70.5141 77.0381C70.5393 76.9455 70.5827 76.8587 70.6417 76.7829C80.3403 64.1288 86.0204 48.8566 86.9478 32.9403C86.9687 32.7544 87.0599 32.5836 87.2028 32.463C87.3457 32.3423 87.5293 32.281 87.716 32.2915C87.9027 32.302 88.0783 32.3837 88.2067 32.5196C88.3351 32.6556 88.4066 32.8356 88.4064 33.0226C87.4645 49.2305 81.6824 64.7831 71.8077 77.67C71.7407 77.7599 71.6539 77.8331 71.5539 77.8839C71.454 77.9346 71.3436 77.9616 71.2315 77.9627Z" fill="#070706"/>
<path d="M169.827 62.8272C169.764 62.8271 169.701 62.8178 169.64 62.7997C151.989 58.0899 136.689 44.6783 129.707 27.796C129.67 27.706 129.651 27.6096 129.652 27.5123C129.653 27.4151 129.673 27.3189 129.71 27.2293C129.748 27.1398 129.803 27.0585 129.872 26.9902C129.942 26.9219 130.024 26.8679 130.114 26.8312C130.204 26.7946 130.3 26.7761 130.397 26.7767C130.495 26.7773 130.591 26.7971 130.68 26.8349C130.77 26.8727 130.851 26.9277 130.92 26.9969C130.988 27.0661 131.042 27.1481 131.078 27.2382C137.892 43.6998 152.817 56.7959 170.038 61.3914C170.207 61.439 170.353 61.5459 170.45 61.6927C170.547 61.8394 170.588 62.0161 170.565 62.1904C170.542 62.3647 170.457 62.5249 170.326 62.6419C170.195 62.7588 170.026 62.8246 169.85 62.8272H169.827Z" fill="#070706"/>
<path d="M182.059 47.2756C168.076 47.2116 154.623 38.6881 148.597 26.0722C148.513 25.8969 148.502 25.6956 148.567 25.5125C148.632 25.3295 148.767 25.1796 148.942 25.0959C149.117 25.0122 149.318 25.0016 149.501 25.0663C149.685 25.1311 149.834 25.2659 149.918 25.4412C155.712 37.5633 168.629 45.7529 182.068 45.8123C182.262 45.8123 182.449 45.8894 182.586 46.0266C182.723 46.1638 182.8 46.3499 182.8 46.544C182.8 46.738 182.723 46.9241 182.586 47.0613C182.449 47.1985 182.262 47.2756 182.068 47.2756H182.059Z" fill="#070706"/>
<path d="M80.2124 121.782C80.0076 121.782 79.808 121.718 79.642 121.598C79.4759 121.478 79.352 121.309 79.2877 121.114C79.2234 120.92 79.222 120.71 79.2837 120.515C79.3455 120.32 79.4673 120.149 79.6317 120.027C98.3522 106.048 111.183 84.1175 115.687 58.2683C116.012 56.4392 116.268 54.537 116.515 52.7079C116.734 51.0663 116.972 49.3699 117.242 47.7009C117.272 47.4968 117.365 47.3075 117.51 47.1601C117.654 47.0128 117.841 46.915 118.045 46.881C118.248 46.8469 118.457 46.8783 118.641 46.9706C118.826 47.0628 118.976 47.2113 119.071 47.3945C123.602 55.6253 130.475 62.5986 137.453 66.0326C143.397 68.9637 150.64 70.6647 158.944 71.09C172.69 71.7896 191.214 70.2806 201.397 59.1462C201.483 59.0519 201.588 58.9756 201.704 58.9216C201.82 58.8676 201.945 58.837 202.073 58.8314C202.201 58.8259 202.328 58.8456 202.448 58.8894C202.569 58.9333 202.679 59.0003 202.773 59.0868C202.868 59.1732 202.944 59.2774 202.998 59.3934C203.052 59.5094 203.083 59.6348 203.088 59.7626C203.094 59.8904 203.074 60.0181 203.03 60.1383C202.986 60.2585 202.919 60.3689 202.833 60.4631C192.137 72.1554 173.01 73.7513 158.844 73.0334C150.261 72.5761 142.771 70.8294 136.575 67.7794C129.945 64.5145 123.429 58.2454 118.742 50.728C118.636 51.4779 118.536 52.2323 118.435 52.9685C118.188 54.7976 117.928 56.7273 117.598 58.6066C112.985 84.9452 99.9068 107.315 80.784 121.586C80.6197 121.712 80.4192 121.781 80.2124 121.782Z" fill="#070706"/>
<path d="M238.618 129.899C237.529 129.9 236.441 129.842 235.358 129.725C221.846 128.253 209.948 117.539 207.067 104.255C207.012 104.003 207.059 103.738 207.199 103.52C207.339 103.303 207.56 103.149 207.812 103.094C208.065 103.039 208.33 103.086 208.548 103.226C208.765 103.366 208.919 103.587 208.974 103.839C211.676 116.332 222.866 126.405 235.568 127.786C248.271 129.167 261.367 121.746 266.704 110.136C266.814 109.904 267.01 109.725 267.251 109.637C267.492 109.55 267.758 109.561 267.991 109.668C268.224 109.775 268.405 109.97 268.496 110.21C268.586 110.45 268.578 110.716 268.473 110.95C263.256 122.308 251.056 129.899 238.618 129.899Z" fill="#070706"/>
<path d="M246.817 112.166H246.78C242.109 111.895 237.592 110.4 233.681 107.832C229.77 105.264 226.603 101.712 224.498 97.5337C224.421 97.3608 224.414 97.1649 224.479 96.987C224.543 96.8091 224.674 96.6632 224.844 96.5797C225.014 96.4963 225.209 96.4819 225.389 96.5396C225.57 96.5972 225.72 96.7224 225.81 96.8889C229.674 104.713 238.156 110.264 246.844 110.698C247.028 110.717 247.198 110.804 247.32 110.942C247.442 111.081 247.507 111.26 247.503 111.445C247.498 111.629 247.424 111.805 247.295 111.937C247.166 112.069 246.992 112.148 246.808 112.157L246.817 112.166Z" fill="#070706"/>
<path d="M237.27 120.932H237.183C226.615 119.661 217.013 111.654 213.894 101.448C213.837 101.262 213.856 101.062 213.947 100.89C214.038 100.719 214.193 100.59 214.379 100.533C214.564 100.476 214.765 100.495 214.936 100.586C215.108 100.677 215.236 100.832 215.293 101.018C218.247 110.685 227.319 118.271 237.356 119.464C237.543 119.485 237.714 119.577 237.835 119.72C237.955 119.863 238.016 120.048 238.005 120.235C237.994 120.422 237.912 120.598 237.775 120.726C237.638 120.854 237.457 120.924 237.27 120.923V120.932Z" fill="#070706"/>
<path d="M73.3808 155.094C72.4983 153.59 71.1859 152.232 70.1799 150.979C66.3343 146.095 62.1915 141.454 57.8978 136.964C52.47 131.284 46.7679 125.88 40.9286 120.63C39.8908 119.597 38.6964 118.734 37.3894 118.074C36.0542 117.48 34.44 117.333 33.1597 118.042C31.4632 118.989 30.8185 121.211 31.1569 123.127C31.4953 125.043 32.6201 126.707 33.7587 128.285C34.8973 129.862 36.0953 131.454 36.6303 133.315C29.968 131.138 23.2553 128.948 16.3003 128.079C13.7716 127.764 11.1606 127.622 8.71881 128.353C7.34701 128.76 5.91577 129.625 5.68256 131.028C5.42649 132.615 6.81205 133.959 8.1244 134.883C12.8317 138.194 18.2865 140.287 24.0007 140.974C16.913 140.686 9.51448 140.457 3.08532 143.448C1.48946 144.189 -0.234458 145.542 0.0261833 147.284C0.245671 148.729 1.7318 150.069 3.07159 150.654C8.27985 152.941 13.8356 153.919 19.4874 154.532C13.6985 155.36 7.71281 156.256 2.76062 159.365C1.55801 160.12 0.314254 161.24 0.419425 162.657C0.552032 164.455 2.67375 165.781 4.42966 166.178C10.3421 167.509 16.3506 167.93 22.3911 168.396C19.7664 171.917 14.2746 171.725 10.9365 174.583C9.93056 175.447 9.10749 176.792 9.51903 178.054C10.0723 179.8 12.3678 180.13 14.206 180.134L55.2456 180.29C57.4085 180.29 59.6628 180.29 61.5879 179.311C63.513 178.333 64.9168 176.467 66.1972 174.679C68.4058 171.611 70.6006 168.492 72.2011 165.076C73.1888 162.959 74.4416 160.545 74.341 158.085C74.2777 157.023 73.9474 155.994 73.3808 155.094Z" fill="#FFBCAE"/>
<path d="M24.5814 157.458C24.6774 151.198 28.8522 145.679 34.2845 142.949C39.7168 140.219 46.2009 139.977 52.342 141.075C55.8858 141.706 59.5667 142.876 62.0954 145.56C65.4335 149.1 65.9776 154.472 65.1179 159.118C64.186 164.226 61.7776 168.949 58.1904 172.704C55.8583 175.123 52.6712 177.162 49.2737 176.581C46.6947 176.124 44.5456 174.295 42.2684 172.923C34.8195 168.414 24.3756 170.367 24.5814 157.458Z" fill="#916AAD"/>
<path d="M40.2747 154.646C39.866 154.327 39.3831 154.116 38.8709 154.033H38.1164C37.6059 154.083 37.1196 154.275 36.7126 154.587L36.3422 154.87C36.0242 155.092 35.7741 155.397 35.6197 155.753C35.4105 156.069 35.289 156.435 35.2676 156.814C35.208 157.197 35.249 157.589 35.3865 157.952C35.4634 158.352 35.6413 158.725 35.9032 159.036L36.4748 159.612C36.883 159.932 37.3662 160.143 37.8786 160.225H38.6285C39.141 160.175 39.6291 159.981 40.0369 159.667L40.4027 159.388C40.7219 159.168 40.9723 158.862 41.1252 158.506C41.3366 158.188 41.4598 157.821 41.4819 157.44C41.5365 157.057 41.4957 156.665 41.363 156.301C41.2831 155.904 41.1055 155.534 40.8463 155.222L40.2747 154.646Z" fill="#2D2725"/>
<path d="M41.7561 145.172C38.8113 147.431 42.5015 152.255 45.4509 149.996C48.4002 147.737 44.7055 142.913 41.7561 145.172Z" fill="#2D2725"/>
<path d="M47.6326 156.832L47.6648 156.795C47.6648 156.795 47.6327 156.795 47.5591 156.892L47.6326 156.832Z" fill="#2D2725"/>
<path d="M47.8246 156.64C47.7937 156.67 47.7646 156.703 47.7373 156.736L47.82 156.649L47.8246 156.64Z" fill="#2D2725"/>
<path d="M47.8881 152.854C47.5778 152.771 47.2472 152.813 46.9675 152.971C46.6878 153.129 46.4814 153.391 46.3929 153.7C46.3134 154.011 46.3575 154.341 46.5161 154.621C46.6746 154.9 46.9353 155.108 47.2434 155.199L47.3806 155.245L47.5086 155.337H47.5406C47.5944 155.387 47.6448 155.44 47.6915 155.497L47.7601 155.588C47.7967 155.652 47.8287 155.716 47.8607 155.78L47.8881 155.858C47.8881 155.917 47.9156 155.977 47.9293 156.036C47.9339 156.105 47.9339 156.174 47.9293 156.242C47.9184 156.309 47.9031 156.374 47.8836 156.439V156.475C47.8595 156.523 47.832 156.569 47.8012 156.612L47.847 156.567L47.7967 156.622C47.7601 156.681 47.7144 156.722 47.719 156.704L47.6641 156.763C47.6412 156.797 47.6116 156.825 47.5772 156.846C47.5568 156.86 47.5384 156.877 47.5223 156.896L47.5589 156.859L47.3486 156.978L47.2342 157.019C47.1774 157.036 47.1193 157.049 47.0605 157.056C46.9387 157.065 46.8165 157.065 46.6947 157.056C46.5342 157.055 46.3751 157.086 46.2268 157.148C46.0784 157.209 45.9437 157.299 45.8305 157.413C45.6026 157.641 45.4746 157.95 45.4746 158.272C45.4746 158.595 45.6026 158.904 45.8305 159.132C46.0701 159.345 46.3746 159.471 46.6947 159.489C47.5151 159.55 48.3307 159.318 48.9952 158.832C49.6597 158.347 50.1296 157.641 50.3208 156.841C50.4757 155.994 50.3134 155.119 49.8648 154.384C49.4161 153.648 48.7125 153.104 47.8881 152.854Z" fill="#2D2725"/>
<path d="M163.773 159.379C137.252 170.038 102.303 166.238 71.8169 153.311C70.2439 165.52 66.3846 173.911 56.5945 181.373C85.5166 197.199 110.204 206.436 142.172 214.493C143.448 239.565 145.231 264.449 146.63 289.485C146.701 290.747 147.042 291.98 147.63 293.1C148.218 294.22 149.038 295.2 150.037 295.976C151.036 296.752 152.19 297.304 153.42 297.596C154.651 297.889 155.929 297.914 157.17 297.67C195.503 290.161 234.133 282.9 272.474 275.396C273.799 275.137 275.047 274.579 276.122 273.763C277.198 272.947 278.072 271.896 278.679 270.691C279.285 269.485 279.607 268.156 279.621 266.806C279.635 265.457 279.339 264.122 278.757 262.904C268.62 241.678 259.689 218.718 249.081 198.169C266.063 207.41 282.758 209.838 298.237 221.425C307.716 213.652 313.075 199.019 312.737 183.541C277.87 168.364 220.218 134.97 184.039 146.69C187.798 151.816 187.052 159.26 181.913 163C176.773 166.741 167.491 164.551 163.773 159.379Z" fill="#DCE4F9"/>
<path d="M145.61 164.157C145.29 164.299 151.774 183.902 152.058 186.417C153.192 196.422 153.26 211.073 141.683 214.539C140.379 248.537 140.891 283.87 145.629 317.561H297.898C298.488 296.069 291.634 274.889 282.063 255.615C272.493 236.341 260.773 218.147 252.002 198.493C246.058 203.007 236.099 201.045 230.849 195.75C227.191 192.092 225.632 186.883 224.192 181.913L213.574 145.332C210.524 142.657 202.654 142.282 197.679 143.96C199.778 155.172 201.726 167.079 203.825 178.291C204.584 182.352 197.789 185.644 193.765 186.632C187.358 188.209 180.803 189.115 174.208 189.334C171.911 189.411 169.656 188.71 167.807 187.345C165.959 185.98 164.626 184.03 164.025 181.812C162.104 174.752 160.659 167.692 158.236 160.627C152.506 162.031 150.613 161.935 145.61 164.157Z" fill="#7BB7E7"/>
<path d="M141.893 213.858H141.751C112.736 209.528 84.9889 199.014 60.3899 183.029C60.1734 182.887 60.022 182.666 59.9688 182.413C59.9156 182.16 59.9651 181.896 60.1064 181.68C60.2477 181.463 60.4691 181.312 60.7221 181.259C60.9751 181.205 61.2389 181.255 61.4553 181.396C85.8132 197.226 113.289 207.635 142.021 211.919C142.266 211.953 142.489 212.078 142.645 212.271C142.801 212.463 142.878 212.708 142.86 212.955C142.841 213.202 142.73 213.432 142.548 213.6C142.366 213.768 142.127 213.86 141.879 213.858H141.893Z" fill="#380423"/>
<path d="M276.238 209.989C276.122 209.989 276.008 209.969 275.899 209.93L236.927 195.453C236.806 195.408 236.696 195.341 236.602 195.253C236.508 195.166 236.432 195.062 236.379 194.945C236.325 194.829 236.295 194.703 236.291 194.575C236.286 194.447 236.306 194.32 236.35 194.2C236.395 194.08 236.462 193.969 236.55 193.875C236.637 193.782 236.741 193.706 236.858 193.652C236.974 193.599 237.1 193.569 237.228 193.564C237.355 193.559 237.483 193.579 237.603 193.624L276.581 208.101C276.796 208.179 276.977 208.332 277.091 208.531C277.205 208.73 277.245 208.963 277.204 209.189C277.163 209.415 277.044 209.619 276.867 209.765C276.69 209.912 276.467 209.991 276.238 209.989Z" fill="#380423"/>
<path d="M176.343 165.872C172.685 165.872 168.826 164.249 165.282 162.42C165.053 162.298 164.881 162.091 164.805 161.843C164.729 161.595 164.754 161.327 164.875 161.098C164.996 160.869 165.204 160.697 165.452 160.621C165.699 160.545 165.967 160.57 166.197 160.691C175.822 165.662 179.727 163.952 182.279 161.606C185.74 158.441 185.937 152.881 184.336 149.017C184.238 148.778 184.239 148.51 184.338 148.272C184.438 148.033 184.628 147.844 184.867 147.746C185.106 147.648 185.374 147.648 185.612 147.748C185.851 147.847 186.04 148.038 186.138 148.276C188.703 154.482 186.595 160.28 183.591 163.042C181.635 164.892 179.036 165.907 176.343 165.872Z" fill="#080908"/>
<path d="M144.358 319.106C144.111 319.105 143.874 319.009 143.695 318.839C143.516 318.67 143.408 318.438 143.393 318.192C140.524 286.654 139.504 254.975 140.338 223.318C140.344 223.064 140.45 222.822 140.632 222.644C140.814 222.467 141.058 222.367 141.312 222.367H141.34C141.597 222.374 141.841 222.483 142.019 222.67C142.196 222.857 142.292 223.107 142.286 223.364C141.453 254.948 142.47 286.553 145.332 318.018C145.344 318.146 145.33 318.274 145.292 318.396C145.254 318.518 145.192 318.632 145.11 318.73C145.028 318.828 144.928 318.909 144.814 318.968C144.701 319.027 144.577 319.064 144.449 319.074L144.358 319.106Z" fill="#380423"/>
<path d="M196.468 211.347C198.834 210.611 201.389 210.774 203.642 211.804C208.631 214.2 210.853 221.064 208.215 225.929C209.587 223.113 212.092 220.767 215.12 219.925C221.837 218.06 228.042 224.686 226.231 231.289C225.779 232.868 224.924 234.302 223.75 235.452C222.577 236.601 221.125 237.426 219.537 237.846C221.53 239.3 223.51 240.845 224.964 242.839C226.419 244.833 227.31 247.357 226.876 249.785C226.062 254.358 220.817 256.987 216.203 256.571C211.589 256.155 207.515 253.516 203.66 250.955C202.819 255.679 199.161 259.927 194.474 260.951C189.787 261.976 184.414 259.346 182.8 254.829C181.186 250.311 184.035 244.581 188.744 243.575C184.958 245.592 179.736 244.252 177.391 240.658C175.045 237.064 175.927 231.741 179.302 229.089C182.105 226.89 185.928 226.62 189.494 226.638C188.744 223.478 188.516 220.063 189.773 217.068C190.949 214.246 193.541 212.202 196.468 211.347Z" fill="white"/>
<path d="M208.974 236.922C208.974 235.848 208.748 234.785 208.311 233.803C208.219 233.575 208.123 233.346 208.014 233.127C207.347 231.8 206.329 230.683 205.07 229.896C203.811 229.109 202.36 228.682 200.876 228.664C199.645 228.657 198.432 228.957 197.348 229.539C196.263 230.12 195.341 230.964 194.666 231.993C194.468 232.217 194.281 232.452 194.108 232.697C193.701 233.287 193.45 233.972 193.381 234.686L193.326 234.86C192.735 236.047 192.573 237.403 192.869 238.696C194.241 244.869 202.581 246.84 206.87 242.501C207.562 241.784 208.102 240.936 208.461 240.007C208.819 239.078 208.987 238.086 208.956 237.091C208.969 237.036 208.974 236.981 208.974 236.922Z" fill="#FFC133"/>
<g style="mix-blend-mode:multiply" opacity="0.66">
<path d="M213.391 60.111C218.713 64.1898 212.261 86.9708 205.617 78.2279C205.19 77.5732 204.926 76.825 204.849 76.0467C204.323 72.9602 204.259 69.7456 205.105 66.7322C205.7 64.6014 207.424 60.7238 209.678 59.8733C211.274 59.2697 212.499 59.4251 213.391 60.111Z" fill="#E09586"/>
</g>
<path d="M206.783 79.4991C206.647 79.4993 206.514 79.4613 206.398 79.3893C206.283 79.3174 206.189 79.2144 206.129 79.0921C204.607 75.8935 204.106 72.3034 204.695 68.81C205.284 65.3166 206.934 62.0893 209.422 59.5669C209.562 59.4418 209.745 59.3756 209.933 59.3818C210.121 59.388 210.299 59.4662 210.431 59.6003C210.562 59.7343 210.637 59.9139 210.64 60.1018C210.643 60.2897 210.574 60.4714 210.446 60.6095C206.367 64.6105 204.904 70.9162 206.591 76.3257C207.684 73.8565 210.249 72.1554 212.719 71.6799C212.907 71.6489 213.099 71.6924 213.255 71.8012C213.412 71.9099 213.52 72.0753 213.556 72.2622C213.592 72.4492 213.554 72.6429 213.45 72.8023C213.346 72.9616 213.183 73.0741 212.998 73.1157C210.341 73.6278 207.561 75.8913 207.51 78.7766C207.512 78.9423 207.458 79.1037 207.357 79.2348C207.256 79.3659 207.113 79.459 206.953 79.4991C206.896 79.5041 206.84 79.5041 206.783 79.4991Z" fill="#380423"/>
<path d="M144.765 7.20994C144.753 6.64769 144.524 6.1118 144.126 5.71456C143.728 5.31733 143.192 5.08961 142.629 5.0791L137.142 4.69043C135.994 4.60812 135.011 5.72841 135.011 6.82128C135.022 7.38312 135.25 7.919 135.647 8.31635C136.044 8.7137 136.58 8.94158 137.142 8.95213L142.629 9.34082C143.763 9.42313 144.765 8.30281 144.765 7.20994Z" fill="#FFF2F1"/>
<path d="M173.751 18.7148C170.939 15.2739 167.448 12.4508 163.495 10.4223C159.542 8.39379 155.212 7.20362 150.778 6.92642C148.034 6.76181 147.577 10.9961 150.32 11.1607C154.2 11.3798 157.992 12.4031 161.456 14.1656C164.92 15.928 167.979 18.3913 170.44 21.3989C172.201 23.5252 175.488 20.8456 173.751 18.7148Z" fill="#FFF2F1"/>
<path d="M60.6276 64.8254C59.1939 69.2316 58.7413 73.8981 59.3015 78.4977C59.6765 81.5705 64.5555 81.6071 64.1714 78.4977C63.6341 74.3372 64.0277 70.1093 65.3237 66.1195C66.2749 63.129 61.5742 61.8486 60.6276 64.8254Z" fill="#FFF2F1"/>
<path d="M64.2034 54.3495C61.0711 54.3495 61.0666 59.2194 64.2034 59.2194C67.3402 59.2194 67.3448 54.3495 64.2034 54.3495Z" fill="#FFF2F1"/>
<path d="M226.098 91.2829L223.615 90.0437C222.477 89.4721 220.927 89.7007 220.287 90.917C219.701 92.0191 219.944 93.6378 221.16 94.246L223.638 95.4897C224.777 96.0567 226.332 95.8281 226.972 94.6163C227.553 93.5098 227.315 91.891 226.098 91.2829Z" fill="#FFF2F1"/>
<path d="M152.419 162.374L149.529 163.096C147.7 163.554 148.478 166.37 150.307 165.913L153.197 165.191C155.021 164.738 154.248 161.917 152.419 162.374Z" fill="#FFF2F1"/>
<path d="M209.138 145.976C208.919 145.135 208.119 144.847 207.341 144.957L202.284 145.679C201.493 145.793 201.077 146.786 201.26 147.476C201.484 148.318 202.279 148.61 203.057 148.496L208.119 147.773C208.905 147.664 209.321 146.671 209.138 145.976Z" fill="#FFF2F1"/>
</svg>
