<svg width="831" height="418" viewBox="0 0 831 418" fill="none" xmlns="http://www.w3.org/2000/svg">
<path d="M797.302 20.9824H41.4341V390.785H797.302V20.9824Z" fill="#FBEDD0"/>
<g style="mix-blend-mode:multiply">
<path d="M795.668 178.274C758.056 233.286 704.486 284.086 624.283 307.241C545.751 329.953 288.274 321.347 214.91 292.442C177.677 277.781 147.586 257.66 122.511 232.745C96.5712 206.247 76.6094 179.02 62.8241 151.335C54.3897 135.012 47.285 118.314 41.4341 101.353V390.785H797.492V175.849C796.58 176.652 796.2 177.456 795.668 178.274Z" fill="#FBEDD0"/>
</g>
<path d="M821.54 18.5436C815.879 19.5413 813.106 17.3242 811.017 22.3543C810.789 19.1117 814.398 17.532 808.775 18.114C804.976 18.5297 797.833 17.7815 796.389 21.3566C795.781 18.211 795.629 18.5852 791.678 19.0147C790.044 19.1949 781.192 17.7122 780.926 19.0147C779.356 27.255 778.305 35.5462 777.773 43.8881C776.709 60.0731 778.989 76.1611 778.191 92.3877C777.393 108.614 778.495 212.237 778.191 228.505C777.963 236.265 779.368 244.69 777.925 252.312C777.241 256.192 777.469 259.85 777.659 263.716C777.84 265.629 777.751 267.543 777.393 269.453C776.964 271.454 776.901 273.463 777.203 275.467C777.203 279.887 776.785 284.335 776.595 288.742C776.215 296.751 775.987 304.774 775.379 312.784C774.05 329.246 769.414 345.306 769.187 361.851C769.187 369.445 770.288 376.997 770.136 384.591C770.136 386.489 768.616 401.15 770.744 401.787C772.606 402.688 778.343 402.813 780.584 403.048C785.967 403.429 791.5 403.429 796.883 403.048C799.353 402.937 801.86 402.868 804.482 402.757C806.381 402.674 809.307 403.589 811.055 403.201C812.802 402.813 813.79 405.224 814.284 401.122C814.474 402.508 814.778 403.894 816.981 403.797C818.539 403.797 825.91 404.877 826.708 404.282C827.506 403.686 824.846 397.284 824.694 396.037C824.428 392.753 824.694 389.413 824.694 386.129C824.694 372.272 825.378 358.415 825.758 344.558C826.556 316.844 826.404 289.005 828.113 261.263C829.861 232.829 830.659 117.025 829.405 88.5909C828.835 75.7315 828.265 62.8445 828.759 49.902C829.063 42.9735 829.785 35.9203 829.747 28.9225C829.747 25.4305 828.759 21.6891 829.177 18.2249C829.177 17.3103 822.528 18.3912 821.578 18.5297L821.54 18.5436Z" fill="url(#paint0_linear_0_15)"/>
<g style="mix-blend-mode:multiply">
<path d="M821.085 20.151C819.793 31.5692 819.603 43.0982 819.717 54.5303C819.983 84.5307 824.77 202.108 820.667 232.039C818.615 246.783 814.17 261.041 814.056 275.938C813.942 290.834 814.474 305.869 816.184 320.627C817.932 335.869 818.426 350.918 818.54 366.189C818.54 369.057 818.805 392.517 820.249 404.143H821.009C820.097 392.78 819.717 369.916 819.679 367.117C819.679 351.805 819.262 336.632 817.666 321.389C816.032 306.479 815.462 291.361 815.69 276.409C815.69 260.529 820.477 245.314 822.567 229.6C826.556 199.295 821.313 81.2466 821.275 50.8443C821.275 40.5624 821.655 30.2528 822.719 20.0124L821.085 20.151Z" fill="url(#paint1_linear_0_15)"/>
<path d="M796.58 20.4974C796.58 20.6914 796.58 20.8439 796.58 21.0379C799.201 35.4076 800.379 49.9852 799.999 64.4935C799.581 93.1221 797.682 209.535 793.35 237.942C791.185 252.284 793.35 266.723 795.972 280.899C798.555 295.352 800.303 309.735 801.177 324.327C801.519 330.216 804.71 381.667 805.964 403.076L806.799 403.159C806.382 382.651 803.304 334.456 803 328.927C802.278 315.292 800.797 301.767 798.441 288.215C795.934 273.915 793.046 259.296 793.882 244.815C794.604 231.415 796.77 217.794 798.214 204.394C799.771 189.9 800.265 88.092 800.949 73.556C801.177 69.0663 801.177 39.7587 798.061 20.4282C797.59 20.4947 797.082 20.5185 796.58 20.4974Z" fill="url(#paint2_linear_0_15)"/>
<path d="M781.573 23.4074C781.555 23.4996 781.555 23.5922 781.573 23.6845C785.04 31.4824 787.235 39.3486 788.146 47.2415C789.969 64.244 790.349 168.948 790.463 186.02C790.463 202.648 788.867 218.708 787.044 235.24C786.17 243.124 785.22 251.064 785.03 258.991C784.84 266.917 786.436 275.397 786.474 282.783C786.474 265.476 786.208 248.695 788.602 231.415C790.995 214.135 790.235 109.82 790.197 92.4846C790.159 75.1495 791.603 57.5788 788.525 40.4931C787.272 33.7586 784.726 27.3705 781.877 20.9962L781.573 23.4074Z" fill="url(#paint3_linear_0_15)"/>
<path d="M804.634 18.2664C805.621 29.8925 805.963 41.8234 805.925 43.6525C805.925 54.7381 806.457 65.8237 805.925 76.9093C805.393 87.995 803.874 186.38 802.582 197.465C799.96 219.207 796.275 242.224 801.1 263.979C803.342 274.386 806.837 284.321 806.875 294.936C806.875 306.326 808.737 318.035 809.573 329.107C808.699 317.592 807.825 306.091 807.559 294.562C807.293 283.033 803.38 271.878 801.366 260.418C797.567 238.635 801.632 215.687 804.254 193.904C805.469 183.913 806.837 86.8726 807.255 76.8123C807.749 65.7267 806.989 54.6411 807.255 43.4723C807.255 35.1581 807.255 26.9825 806.039 18.7791L804.634 18.2664Z" fill="url(#paint4_linear_0_15)"/>
<path d="M787.765 299.439C789.361 306.174 790.88 312.922 792.324 319.684C795.059 332.239 796.579 344.696 797.149 357.389C797.719 370.082 795.477 382.762 795.553 395.468C795.553 396.12 795.554 398.656 795.82 402.023H796.465H796.769C796.769 399.736 796.769 397.436 796.769 395.094C796.769 382.845 798.821 370.484 798.289 358.262C797.757 346.041 796.503 333.708 793.844 321.527C792.375 314.719 790.779 307.92 789.057 301.13C788.145 297.444 787.347 289.448 784.611 287.592C787.271 289.365 787.195 297.028 787.765 299.439Z" fill="url(#paint5_linear_0_15)"/>
<path d="M782.066 301.601C782.446 309.112 782.674 316.636 782.446 324.146C782.028 338.904 779.976 353.509 777.051 368.073C774.809 379.159 772.568 390.244 771.314 401.33C771.837 401.4 772.335 401.493 772.796 401.607C774.125 389.288 776.595 377.108 779.027 364.886C781.838 350.031 783.472 335.107 783.624 320.1C783.624 312.922 783.282 305.772 782.826 298.608C782.484 293.633 782.826 288.257 782.18 283.545C783.13 289.421 781.8 295.795 782.066 301.601Z" fill="url(#paint6_linear_0_15)"/>
<path d="M826.024 243.623C826.024 244.552 826.024 245.009 826.024 245.147C826.024 244.87 826.024 243.886 826.024 243.637C825.226 251.161 821.807 258.339 820.591 265.808C819.109 274.621 819.338 283.13 819.831 291.984C820.249 299.675 821.465 307.393 823.365 314.973C823.365 315.416 823.935 316.955 824.581 319.005C824.581 318.437 824.581 317.869 824.809 317.301C825.037 316.733 824.542 316.497 824.504 316.317C822.301 307.601 821.085 298.719 820.705 289.85C820.439 281.536 820.363 273.568 821.883 265.254C822.643 260.848 823.973 256.607 825.682 252.339C826.442 250.191 827.164 248.016 827.354 245.799C827.316 246.464 826.29 241.475 826.024 243.623Z" fill="url(#paint7_linear_0_15)"/>
</g>
<path d="M821.54 18.5436C815.879 19.5413 813.106 17.3242 811.017 22.3543C810.789 19.1117 814.398 17.532 808.775 18.114C804.976 18.5297 797.833 17.7815 796.389 21.3566C795.781 18.211 795.629 18.5852 791.678 19.0147C790.044 19.1949 781.192 17.7122 780.926 19.0147C779.356 27.255 778.305 35.5462 777.773 43.8881C776.709 60.0731 778.989 76.1611 778.191 92.3877C777.393 108.614 778.495 212.237 778.191 228.505C777.963 236.265 779.368 244.69 777.925 252.312C777.241 256.192 777.469 259.85 777.659 263.716C777.84 265.629 777.751 267.543 777.393 269.453C776.964 271.454 776.901 273.463 777.203 275.467C777.203 279.887 776.785 284.335 776.595 288.742C776.215 296.751 775.987 304.774 775.379 312.784C774.05 329.246 769.414 345.306 769.187 361.851C769.187 369.445 770.288 376.997 770.136 384.591C770.136 386.489 768.616 401.15 770.744 401.787C772.606 402.688 778.343 402.813 780.584 403.048C785.967 403.429 791.5 403.429 796.883 403.048C799.353 402.937 801.86 402.868 804.482 402.757C806.381 402.674 809.307 403.589 811.055 403.201C812.802 402.813 813.79 405.224 814.284 401.122C814.474 402.508 814.778 403.894 816.981 403.797C818.539 403.797 825.91 404.877 826.708 404.282C827.506 403.686 824.846 397.284 824.694 396.037C824.428 392.753 824.694 389.413 824.694 386.129C824.694 372.272 825.378 358.415 825.758 344.558C826.556 316.844 826.404 289.005 828.113 261.263C829.861 232.829 830.659 117.025 829.405 88.5909C828.835 75.7315 828.265 62.8445 828.759 49.902C829.063 42.9735 829.785 35.9203 829.747 28.9225C829.747 25.4305 828.759 21.6891 829.177 18.2249C829.177 17.3103 822.528 18.3912 821.578 18.5297L821.54 18.5436ZM827.885 24.3081C828.227 48.3916 827.886 159.317 829.101 183.317C830.469 207.983 828.607 233.203 826.67 257.799C824.77 281.813 823.668 306.132 823.858 330.202C823.858 342.77 823.858 355.394 823.288 367.962C822.794 379.048 819.983 392.226 824.58 402.965C823.972 402.854 816.032 402.48 816.032 402.48C815.69 401.663 813.448 392.78 813.068 392.78C813.334 392.78 812.46 401.967 812.308 402.66C811.89 402.106 811.169 398.365 810.105 398.503C808.433 398.614 812.878 403.034 808.205 401.87C804.406 400.914 799.505 401.87 795.591 401.94C790.863 402.231 786.034 402.231 781.306 401.94C779.736 401.78 778.23 401.547 776.823 401.247C773.024 400.512 771.162 402.217 771.39 398.586C772.302 384.535 770.402 370.498 771.01 356.461C771.694 341.454 775.759 326.835 777.013 311.855C777.621 304.608 777.811 297.361 778.153 290.1C778.419 283.282 780.28 275.508 778.912 268.746C779.331 266.384 779.331 264.014 778.912 261.651C778.684 258.63 779.634 255.679 779.444 252.616C779.102 246.949 779.064 241.309 779.444 235.6C779.926 220.764 780.458 205.923 781.04 191.077C782.142 162.948 777.621 47.5741 782.826 19.569C786.169 19.7769 789.437 20.5529 792.78 19.8739C797.415 18.9177 793.844 24.7238 796.579 24.6684C797.795 24.6684 797.719 20.6776 799.771 20.1787C803.114 19.3612 807.027 19.7769 810.447 19.181C810.181 19.763 809.307 24.8208 811.206 24.5437C814.322 24.0448 811.51 20.0817 816.297 20.2619C820.258 20.4091 824.244 20.0989 827.695 19.375C827.695 21.0656 828.189 22.7284 828.227 24.3913C827.885 26.6361 827.847 22.6453 827.885 24.3081Z" fill="url(#paint8_linear_0_15)"/>
<path d="M39.2676 19.7353C38.3938 19.7353 37.7478 20.0817 37.2919 20.6499C37.064 16.4927 31.099 18.3773 26.7298 18.5713C23.3484 18.7237 22.7027 20.6776 21.6389 22.8531C21.6389 22.2157 21.9045 18.9732 20.3468 19.0286C15.9068 19.1394 11.4517 19.1394 7.01173 19.0286C4.73216 19.0286 1.38881 18.308 0.856908 20.248C-0.0929138 23.6707 0.286885 27.2874 0.248892 30.7655C0.248892 44.8026 1.04667 58.8121 1.12265 72.8493C1.19864 86.8864 1.12273 187.752 2.14854 201.72C3.13635 216.463 4.99794 231.096 4.46604 245.868C3.93414 259.961 4.46578 273.693 5.14966 287.772C5.75754 301.144 6.28974 315.139 3.55425 328.387C0.780773 341.911 2.33826 356.267 2.37625 369.958C2.37625 377.51 2.79436 385.02 3.51622 392.586C3.82017 395.843 3.93396 399.099 4.27589 402.369C4.27589 403.422 4.27612 404.476 4.50407 405.543C4.50407 408.425 3.32607 406.374 3.32607 407.483C3.32607 408.591 14.0402 408.383 15.2939 408.3C21.5627 407.829 23.2724 408.799 22.8925 404.06C23.6144 406.554 23.4244 408.009 27.6416 407.593C32.7706 407.081 39.0394 409.727 38.5455 404.822C41.319 408.12 51.5773 408.078 52.1092 403.519C52.6031 399.196 51.3494 395.205 52.1092 390.716C54.6548 376.609 51.0834 362.17 50.2096 348.05C49.2978 333.181 50.7793 318.562 51.4252 303.707C52.071 288.853 52.4512 273.61 53.0591 258.575C53.4137 251.185 53.6668 243.794 53.8187 236.404C53.8187 232.709 53.8187 229.013 53.8187 225.318C53.8187 223.614 54.9966 217.184 53.4009 215.992C52.489 201.747 54.0466 101.173 54.1605 86.9834C54.1605 73.0294 52.7932 59.0615 53.0971 45.1352C53.2871 38.2067 53.097 31.2782 53.4389 24.419C53.4389 23.4628 54.9586 17.823 52.983 17.7676C48.1959 17.5736 43.7886 19.4582 39.0395 19.6244L39.2676 19.7353Z" fill="url(#paint9_linear_0_15)"/>
<g style="mix-blend-mode:multiply">
<path d="M52.7934 185.576C53.4393 179.285 52.5274 86.3044 52.7934 80.0272C50.3998 96.6556 47.2846 199.793 48.2724 216.491C48.9183 226.815 51.0077 236.75 50.8557 247.198C50.8557 259.171 48.0443 271.199 46.2207 283.088C44.549 294.174 41.5094 305.148 39.4198 316.234C37.3302 327.32 37.2925 339.251 36.9126 350.502C36.4947 362.018 38.736 373.464 39.0019 384.979C39.0019 390.716 39.344 396.508 40.5978 402.189C40.5978 402.522 41.0537 404.032 41.5096 405.931C41.825 405.916 42.1441 405.916 42.4594 405.931C41.9655 403.838 41.5476 402.134 41.4716 401.773C40.2938 396.009 40.1799 390.217 40.1039 384.424C39.8759 372.868 37.4825 361.38 38.3183 349.782C39.1542 338.475 38.5842 326.724 41.0537 315.555C43.7132 303.583 46.6005 291.79 48.4621 279.721C50.2098 268.303 52.2614 256.829 52.2614 245.328C52.2614 235.143 49.754 225.374 49.488 215.258C49.2601 205.78 50.7796 196.495 52.6793 187.184C52.6033 186.647 52.6415 186.11 52.7934 185.576Z" fill="url(#paint10_linear_0_15)"/>
<path d="M45.423 19.7907C45.423 21.1764 45.0811 22.479 44.8911 23.8093C42.8395 38.1513 40.3698 52.1607 42.3454 66.572C43.1567 73.1302 42.9413 79.6998 41.6998 86.249C40.522 93.3992 42.3077 187.294 41.6998 194.459C41.0919 201.623 39.5719 208.731 39.4579 215.895C39.4579 223.725 40.37 231.526 40.218 239.341C39.7241 268.76 33.2274 297.61 29.808 326.849C28.0984 341.301 28.6682 356.336 29.808 370.831C30.5679 382.789 31.7456 396.023 36.3807 407.469C31.9736 396.272 31.5176 383.26 30.6438 371.967C29.542 357.403 29.3138 342.216 30.9475 327.694C34.1769 298.455 40.9016 269.661 41.7754 240.27C42.1553 226.732 41.1296 213.623 42.7633 200.084C43.7131 192.629 41.8894 98.4293 42.7633 90.9604C43.4091 83.8795 45.1571 77.1034 44.4732 69.9116C43.1055 55.2509 43.5614 41.3523 45.8789 26.747C46.2209 24.419 46.6009 22.0771 46.9048 19.7215L45.423 19.7907Z" fill="url(#paint11_linear_0_15)"/>
<path d="M33.8347 18.7514C33.8347 19.1394 33.8347 19.5274 33.8347 19.8877C32.752 26.6765 32.752 33.4826 33.8347 40.2714C36.6841 54.0453 39.2296 69.3712 36.6461 83.2282C35.4683 89.644 34.5185 182.652 33.8347 189.137C33.0368 196.177 33.151 203.438 33.5689 210.505C34.4428 225.235 36.0762 239.882 36.1141 254.653C36.1141 268.76 34.6324 282.742 32.3149 296.723C29.9973 310.705 29.6555 324.992 25.3243 338.669C23.4247 344.627 21.221 350.558 19.5873 356.53C17.8017 363.057 19.5873 369.002 20.0432 375.514C20.8031 382.443 20.0435 389.441 19.3596 396.3C19.0937 399.321 18.9033 402.342 18.9793 405.376C18.9793 405.515 18.9796 406.762 19.2455 408.148L20.2334 408.009C20.2334 407.69 20.2334 407.455 20.2334 407.427C19.6445 403.735 19.6445 400.034 20.2334 396.341C20.8793 389.302 21.9049 382.152 20.9931 375.112C20.0812 368.073 18.8654 361.533 21.4109 354.507C23.6525 348.313 25.2104 342.036 27.338 335.772C29.3897 329.246 29.4654 322.719 30.3772 316.082C31.403 308.696 32.8847 301.365 34.1765 294.007C36.57 279.388 37.9757 264.838 37.4818 250.108C36.9879 235.378 35.1265 220.787 34.8225 206.154C34.8225 199.336 34.5946 192.38 35.8104 185.618C37.0261 178.855 38.052 85.6532 38.6979 78.9186C39.9136 65.8515 37.2919 52.3409 35.1263 39.3845C34.3604 32.6559 34.5253 25.9174 35.6202 19.1949C34.9839 19.0704 34.3854 18.9218 33.8347 18.7514Z" fill="url(#paint12_linear_0_15)"/>
<path d="M5.91016 305.509C5.91016 307.948 5.91016 310.386 5.91016 312.839C9.48149 330.548 13.5087 348.535 13.9266 366.452C14.4069 375.293 13.6079 384.137 11.533 392.947C11.1911 394.124 8.75955 401.261 6.78392 407.233C7.14808 407.241 7.50695 407.269 7.84783 407.316C9.93744 401.469 12.2169 394.609 12.5209 393.459C14.8764 384.438 15.4083 375.14 15.2943 365.967C15.0283 347.551 10.2033 329.163 6.78392 310.968C6.47997 309.139 6.18877 307.319 5.91016 305.509Z" fill="url(#paint13_linear_0_15)"/>
<path d="M17.0414 212.805C9.44285 226.163 6.21351 241.753 4.27588 256.247C4.6938 258.104 4.88389 259.961 4.88389 261.79C5.14984 259.49 5.45375 257.175 5.79569 254.861C7.12544 246.173 9.25313 237.54 12.0646 229.06C13.4323 225.013 16.2817 208.828 23.8423 208.413C35.2402 207.789 29.8072 251.757 29.1234 257.203C26.8944 275.365 24.6401 293.536 22.3605 311.717C21.9046 315.403 19.7009 329.024 13.7361 320.253C8.64502 312.756 7.65737 303.389 6.78354 295.144C4.7514 277.248 7.29525 259.323 14.3821 241.6C15.2671 238.954 16.5353 236.327 18.1814 233.729C20.7269 230.376 22.8926 237.457 23.0446 238.302C24.8719 246.048 25.6326 253.822 25.3241 261.596C24.4502 277.545 17.7257 292.178 14.6103 307.781C7.54489 290.079 6.61269 272.122 11.8364 254.335C12.3303 252.658 13.4701 250.178 15.6357 249.291C19.7769 247.614 21.107 254.764 21.221 256.302C21.7832 265.603 20.6791 274.907 17.9157 284.155C13.3945 281.231 12.7483 276.367 12.8243 272.196C12.8243 268.649 12.1787 261.374 15.4841 258.533C16.016 258.048 18.2575 265.781 18.2575 265.781C18.5234 269.023 19.321 274.303 16.0916 276.949C14.8378 275.342 16.0918 265.337 15.8639 265.282C12.0646 264.506 14.3821 284.834 18.5993 275.439C19.5491 273.374 20.9547 257.106 15.6737 257.55C9.63287 258.048 11.5709 274.566 12.2548 277.587C12.5017 280.328 14.4775 283.012 18.0293 285.43C18.9411 285.929 21.1447 275.882 21.3346 274.774C23.0249 267.519 23.1773 260.227 21.7905 252.963C21.2206 250.94 19.0932 247.101 15.2559 248.459C11.4186 249.817 10.2787 255.263 9.89875 258.256C8.75896 267.333 6.7454 276.118 7.58124 285.264C7.84719 288.035 10.6968 310.123 14.876 310.206C15.218 310.206 19.815 293.439 20.4989 291.555C23.0064 284.765 24.6021 277.878 25.7039 270.894C26.926 263.674 27.1036 256.435 26.2359 249.208C25.628 244.538 26.2358 236.487 21.8666 232.579C17.2315 228.422 13.3941 240.616 12.7482 242.279C10.0887 249.097 8.15136 256.136 6.8596 263.065C5.87178 268.316 5.22587 273.624 4.92192 278.959C5.26386 285.499 5.49159 292.026 5.64357 298.58C6.02349 301.352 6.55549 303.984 7.16337 306.673C8.09395 311.505 9.89634 316.31 12.5585 321.056C15.408 325.546 20.1573 325.366 21.753 320.322C23.8806 314.086 23.8804 307.532 24.4503 301.144C25.2102 292.885 26.223 284.654 27.4895 276.451C29.769 261.208 32.2389 245.868 31.593 230.487C31.365 224.404 32.0489 217.835 29.6553 211.946C27.0338 205.253 20.0049 207.512 17.0414 212.805Z" fill="url(#paint14_linear_0_15)"/>
<path d="M26.9197 19.8739C26.9197 27.6477 28.2491 35.4769 28.933 43.1537C30.7136 56.7032 29.7868 70.282 26.1596 83.7825C22.0564 97.1822 24.9441 196.62 16.5097 209.299C15.4079 210.948 8.91085 222.588 4.80762 232.288C4.80762 233.147 4.80762 234.006 4.80762 234.866C5.9854 231.72 7.08743 228.962 7.42937 228.367C10.7347 221.895 13.622 215.424 17.6873 209.202C26.0077 196.537 23.6143 97.1822 27.2996 83.7548C29.6493 76.8567 31.0187 69.9189 31.4026 62.9692C31.4026 55.916 30.6427 48.8489 29.9589 41.7957C29.275 34.7425 28.5151 27.3982 28.5151 20.1649V19.5967L26.9197 19.8739Z" fill="url(#paint15_linear_0_15)"/>
<path d="M11.9887 20.3034C12.7106 38.7194 16.5477 57.2047 15.18 75.6345C14.3062 87.6208 12.7108 185.826 9.36744 197.576C8.87354 199.295 5.91013 210.242 3.70654 219.637C3.70654 220.551 3.9724 221.48 4.08638 222.408C6.47993 213.138 9.63324 201.207 10.1651 199.447C13.9644 186.796 15.712 87.3437 16.6618 74.3874C16.9277 70.2303 15.2941 41.2137 14.3062 20.4835C13.5084 20.3727 12.7866 20.3034 11.9887 20.3034Z" fill="url(#paint16_linear_0_15)"/>
<path d="M7.88594 19.8185C8.56981 35.0612 9.89965 50.3039 9.40575 65.4081C9.1018 75.108 9.40571 171.733 6.51825 181.267C6.29029 182.07 4.88458 185.493 3.21289 189.581C3.21289 190.218 3.21289 190.87 3.21289 191.493V192.879C5.22651 188.154 7.01194 183.83 7.23989 183.082C11.0392 172.384 10.5073 74.5676 11.0392 63.5789C11.3431 53.6712 9.7474 43.8327 9.59543 33.9249C9.59543 29.2967 9.59543 24.6823 9.59543 20.0679C8.6836 19.9016 8.26587 19.8739 7.88594 19.8185Z" fill="url(#paint17_linear_0_15)"/>
<path d="M2.98486 341.592C4.20063 346.401 5.60639 351.209 7.27808 355.99C9.97209 364.309 10.4811 372.703 8.79788 381.057C8.19 385.034 7.23993 388.997 6.17613 392.96C6.17613 393.251 5.37851 394.956 4.50467 396.799L4.73239 398.406C5.49224 397.145 6.13814 395.981 6.17613 395.773C7.80983 391.519 8.75978 387.154 9.63361 382.803C11.5652 373.571 11.1457 364.293 8.38002 355.089C6.67034 349.269 4.9604 343.463 3.3647 337.629C3.32671 338.932 3.17483 340.29 2.98486 341.592Z" fill="url(#paint18_linear_0_15)"/>
</g>
<path d="M39.2676 19.7353C38.3938 19.7353 37.7478 20.0817 37.2919 20.6499C37.064 16.4927 31.099 18.3773 26.7298 18.5713C23.3484 18.7237 22.7027 20.6776 21.6389 22.8531C21.6389 22.2157 21.9045 18.9732 20.3468 19.0286C15.9068 19.1394 11.4517 19.1394 7.01173 19.0286C4.73216 19.0286 1.38881 18.308 0.856908 20.248C-0.0929138 23.6707 0.286885 27.2874 0.248892 30.7655C0.248892 44.8026 1.04667 58.8121 1.12265 72.8493C1.19864 86.8864 1.12273 187.752 2.14854 201.72C3.13635 216.463 4.99794 231.096 4.46604 245.868C3.93414 259.961 4.46578 273.693 5.14966 287.772C5.75754 301.144 6.28974 315.139 3.55425 328.387C0.780773 341.911 2.33826 356.267 2.37625 369.958C2.37625 377.51 2.79436 385.02 3.51622 392.586C3.82017 395.843 3.93396 399.099 4.27589 402.369C4.27589 403.422 4.27612 404.476 4.50407 405.543C4.50407 408.425 3.32607 406.374 3.32607 407.483C3.32607 408.591 14.0402 408.383 15.2939 408.3C21.5627 407.829 23.2724 408.799 22.8925 404.06C23.6144 406.554 23.4244 408.009 27.6416 407.593C32.7706 407.081 39.0394 409.727 38.5455 404.822C41.319 408.12 51.5773 408.078 52.1092 403.519C52.6031 399.196 51.3494 395.205 52.1092 390.716C54.6548 376.609 51.0834 362.17 50.2096 348.05C49.2978 333.181 50.7793 318.562 51.4252 303.707C52.071 288.853 52.4512 273.61 53.0591 258.575C53.4137 251.185 53.6668 243.794 53.8187 236.404C53.8187 232.709 53.8187 229.013 53.8187 225.318C53.8187 223.614 54.9966 217.184 53.4009 215.992C52.489 201.747 54.0466 101.173 54.1605 86.9834C54.1605 73.0294 52.7932 59.0615 53.0971 45.1352C53.2871 38.2067 53.097 31.2782 53.4389 24.419C53.4389 23.4628 54.9586 17.823 52.983 17.7676C48.1959 17.5736 43.7886 19.4582 39.0395 19.6244L39.2676 19.7353ZM51.3871 48.6133C51.3871 60.3087 52.5271 72.0456 52.4891 83.7686C52.4891 96.6418 51.1591 196.011 51.3111 208.939C51.539 233.281 51.2732 257.637 50.5134 282.007C49.6395 308.003 46.714 333.943 49.4875 359.911C50.7793 372.189 51.1214 383.579 49.7157 395.829C49.4497 398.171 52.147 403.533 49.4875 405.265C47.5499 406.554 44.3203 405.626 42.2307 405.196C40.3447 404.144 38.8978 402.995 37.9375 401.787C36.8737 401.898 37.4817 406.028 37.5577 406.485C35.3161 406.388 26.7677 407.205 25.248 406.208C23.7283 405.21 24.3362 400.208 22.8925 400.221C21.8553 400.967 21.612 401.826 22.2089 402.633C21.8669 405.293 23.0064 406.471 19.0552 406.79C14.7503 407.158 10.3267 407.307 5.90979 407.233C7.35352 396.148 4.16219 384.341 4.08621 373.145C4.08621 360.133 2.75637 346.595 4.46604 333.652C6.06174 321.749 6.97374 310.095 7.01173 298.109C7.01173 284.695 4.84605 271.323 5.49193 257.924C6.6697 232.898 2.87029 208.038 3.93409 183.096C4.50398 169.668 2.94637 69.4682 2.60443 56.11C2.60443 49.7358 2.14846 43.3477 2.07248 36.9873C2.07248 34.3267 2.07248 31.6939 2.07248 29.0472C2.07248 27.3567 3.59213 21.3566 2.49034 20.151C6.28963 20.248 10.0889 20.4143 13.8882 20.4559C15.7929 20.4742 17.6986 20.4372 19.5871 20.345C19.7594 22.0305 20.4477 23.7037 21.6389 25.3335C21.6389 25.2642 25.1342 20.345 25.4382 19.6522C28.6296 19.569 31.9728 19.6522 35.2402 19.6522C35.2402 20.345 35.9621 26.4698 36.76 26.4698C37.5578 26.4698 37.1017 21.5644 39.3432 20.927C43.1373 19.9813 47.5061 19.3869 52.0712 19.1949C51.1594 28.8948 51.3494 38.8026 51.1975 48.5856C51.3114 53.2554 51.5391 39.0658 51.3871 48.6133Z" fill="url(#paint19_linear_0_15)"/>
<g style="mix-blend-mode:screen" opacity="0.6">
<path d="M4.58058 27.0241C3.78273 39.149 4.58032 51.4263 4.31437 63.5651C4.08641 76.175 3.3265 175.405 2.83259 188.001C2.37668 199.863 5.49217 211.558 5.75812 223.364C6.06206 235.96 6.13808 248.515 6.74597 261.125C7.35385 273.402 7.58202 285.79 7.43004 298.067C7.43004 303.943 6.40416 309.791 6.40416 315.666C6.40416 322.248 6.40387 328.594 5.1501 335.066C2.87053 346.082 4.04868 357.237 4.58058 368.323C5.22646 380.919 5.22633 393.681 6.82203 406.235C6.82203 406.513 7.39205 406.499 7.43004 406.235C11.2293 381.819 4.16232 357.085 8.98742 332.71C10.0132 327.528 9.8996 322.331 9.82361 317.093C9.82361 311.149 10.2415 305.273 10.7734 299.342C11.3433 293.051 10.7734 286.622 10.7734 280.33C10.7734 274.039 10.7731 267.443 10.3931 260.931C9.89923 248.861 9.5193 236.847 9.44331 224.764C9.44331 212.39 6.29033 200.209 6.55628 187.821C6.82223 175.752 7.50596 77.0757 7.35398 64.9785C7.35398 52.3547 7.35397 39.4538 5.91024 26.8578C5.68228 26.4837 4.61857 26.4837 4.58058 27.0241Z" fill="#FFEEE1"/>
</g>
<path d="M16.5102 378.535C15.2565 378.535 1.57878 378.438 3.44043 379.99C3.44043 382.54 3.93417 385.187 3.74421 387.819C3.47826 391.422 2.26274 394.208 7.8097 395.482C4.42834 396.064 4.54206 396.051 4.69403 398.614C4.69403 400.956 2.45276 405.279 6.44202 406.291C2.33879 406.471 4.08629 411.834 4.84615 413.926C5.90995 416.975 3.63038 417.986 8.64543 418C21.411 418 34.1765 417.432 46.9421 417.196C71.1815 416.739 95.3073 417.903 119.471 415.991C143.634 414.078 635.566 411.834 659.425 412.263C684.425 412.693 709.462 411.238 734.461 411.681C757.523 412.069 780.547 410.808 803.722 410.794C808.883 410.834 814.027 411.019 819.109 411.349C820.667 411.46 826.708 412.138 827.695 411.834C827.695 412.138 828.721 405.113 828.873 403.949C829.329 399.501 828.874 394.97 828.608 390.508C828.418 386.475 828.266 382.415 828.152 378.383C828.038 374.35 825.378 375.75 820.819 375.39C809.979 374.572 798.879 374.311 787.841 374.614C778.989 374.849 769.719 373.685 760.676 373.588C748.291 373.464 735.905 373.588 723.519 373.796C697.266 374.212 671.203 376.152 644.95 376.18C632.298 376.18 151.347 379.2 138.733 379.561C132.084 379.741 125.435 380.06 118.749 380.212C115.928 380.288 113.097 380.288 110.276 380.212C110.618 380.212 102.678 379.921 106.477 380.517C91.2799 380.267 76.5388 379.658 61.4556 379.879C46.4942 379.881 31.5596 379.417 16.814 378.494L16.5102 378.535Z" fill="url(#paint20_linear_0_15)"/>
<path style="mix-blend-mode:multiply" opacity="0.5" d="M3.44034 379.99C3.44034 382.54 3.93408 385.187 3.74412 387.819C3.47817 391.422 2.26266 394.208 7.80962 395.482C5.18811 395.94 4.65638 396.037 4.65638 397.27C7.41158 396.662 10.2522 396.107 13.1667 395.607C18.7801 394.896 24.5508 394.363 30.4152 394.014C46.9532 392.525 63.9124 391.748 80.9459 391.699C98.3846 391.699 115.899 392.198 133.338 391.436C168.558 389.926 671.431 382.374 706.802 383.247C723.975 383.649 741.262 384.521 758.358 385.478C775.677 386.218 792.738 387.611 809.269 389.635C816.065 390.634 822.559 391.888 828.645 393.376C828.645 392.42 828.645 391.464 828.645 390.494C828.455 386.461 828.303 382.401 828.189 378.369C828.075 374.337 825.416 375.736 820.857 375.376C810.017 374.558 798.917 374.297 787.879 374.6C779.027 374.835 769.757 373.671 760.714 373.574C748.329 373.45 735.943 373.574 723.557 373.782C697.304 374.198 671.241 376.138 644.988 376.166C632.336 376.166 151.385 379.187 138.771 379.547C132.122 379.727 125.473 380.046 118.787 380.198C115.966 380.274 113.135 380.274 110.314 380.198C110.656 380.198 102.716 379.907 106.515 380.503C91.3179 380.254 76.5767 379.644 61.4936 379.866C46.5321 379.867 31.5976 379.403 16.8519 378.48C15.2562 378.48 1.57869 378.438 3.44034 379.99Z" fill="url(#paint21_linear_0_15)"/>
<g style="mix-blend-mode:multiply">
<path d="M828.304 380.17C814.475 378.535 800.759 376.859 786.74 375.736C783.726 375.505 780.724 375.256 777.736 374.988C774.962 375.14 772.15 375.279 769.301 375.39C776.634 375.986 783.89 376.706 791.147 377.274C803.684 378.272 815.994 379.935 828.418 381.293C828.38 380.919 828.304 380.586 828.304 380.17Z" fill="url(#paint22_linear_0_15)"/>
<path d="M733.283 381.487C765.349 381.778 796.921 384.868 828.683 387.279V386.545C797.339 384.175 766.185 381.002 734.499 380.531C716.567 380.253 699.242 380.988 681.309 379.838C671.431 379.2 661.515 379.422 651.637 378.951C641.759 378.48 164.91 380.101 155.488 380.558C136.036 381.514 57.8462 384.521 38.5079 382.942C29.1263 382.114 19.6084 381.508 10.0132 381.127L5.07443 380.974C5.07443 381.32 5.07424 381.639 4.88428 381.986H5.60638C15.3617 382.236 25.059 382.726 34.6325 383.454C53.629 384.84 131.97 383.274 151.043 381.889C159.971 381.251 636.516 378.729 645.406 379.491C654.904 380.309 664.402 380.087 673.862 380.461C683.323 380.835 692.859 381.944 702.244 382.027C712.616 382.138 722.949 381.39 733.283 381.487Z" fill="url(#paint23_linear_0_15)"/>
<path d="M809.156 387.376C815.614 387.972 822.111 388.388 828.646 388.762C828.646 388.568 828.646 388.388 828.646 388.207C821.047 387.556 813.221 386.822 805.508 386.115C786.538 384.381 767.002 383.612 747.455 383.829C728.04 384.133 708.626 385.491 689.25 385.685C680.154 385.92 671.013 385.697 662.085 385.02C653.233 384.203 176.194 385.256 167.266 384.826C149.979 383.981 72.2837 389.108 55.111 390.605C45.5368 391.436 35.7727 390.716 26.1985 390.161C21.6684 389.844 17.039 389.76 12.4451 389.912C10.7887 389.987 9.19539 390.19 7.77201 390.508C5.34047 391.09 5.26467 392.198 6.06252 391.893C12.6733 389.496 22.2855 390.785 29.3522 391.214C38.2805 391.713 47.4747 392.281 56.365 391.311C74.6016 389.33 622.991 381.445 641.455 383.219C649.966 384.05 658.248 385.713 666.834 386.212C676.215 386.692 685.723 386.743 695.139 386.364C714.629 385.755 733.968 384.618 753.534 384.605C772.324 384.651 791.02 385.583 809.156 387.376Z" fill="url(#paint24_linear_0_15)"/>
<path d="M827.81 404.725C803.68 407.162 778.279 407.4 753.838 405.418C742.017 404.461 730.542 403.005 719.644 401.081C714.325 400.152 693.049 398.171 692.327 392.919C691.53 385.062 749.697 388.762 756.915 389.233C780.813 390.771 804.748 392.295 828.608 393.875C828.608 393.57 828.608 393.251 828.608 392.96C824.163 392.697 819.679 392.6 815.234 392.378C804.292 391.852 793.401 391.154 782.56 390.286C762.348 388.692 742.098 387.016 721.772 387.445C713.717 387.612 705.017 387.154 697.228 388.831C688.186 390.729 691.149 395.607 698.178 397.672C717.174 403.298 739.97 405.556 760.448 406.831C782.799 408.226 805.715 407.814 827.582 405.626C827.62 405.307 827.734 405.016 827.81 404.725Z" fill="url(#paint25_linear_0_15)"/>
<path d="M807.18 404.739C782.571 406.046 757.487 404.152 736.323 399.39C732.489 398.702 728.966 397.805 725.875 396.729C721.43 394.97 730.814 393.473 731.916 393.348C741.823 392.101 752.301 391.569 762.766 391.783C783.852 392.365 803.228 397.117 823.896 399.196C813.424 401.592 801.507 403.019 789.179 403.355C776.851 403.691 764.485 402.924 753.153 401.122C751.581 400.901 750.167 400.553 749.015 400.104C747.864 399.656 747.005 399.118 746.505 398.531C744.263 395.663 753.724 394.748 755.737 394.651C768.357 394.279 781.033 395.055 792.628 396.91C791.436 398.057 789.235 399.028 786.368 399.67C783.5 400.312 780.13 400.589 776.785 400.457C772.112 400.457 762.462 400.914 758.701 398.628C758.055 398.24 768.313 396.702 768.313 396.702C772.568 396.508 779.711 395.954 783.092 398.212C780.964 399.085 767.895 398.143 767.629 398.365C766.603 401.136 793.502 399.376 781.079 396.452C778.305 395.815 756.839 394.817 757.371 398.503C758.055 402.66 779.939 401.275 783.966 400.845C786.438 400.52 788.667 399.989 790.474 399.293C792.282 398.598 793.618 397.758 794.376 396.84C795.06 396.217 781.724 394.693 780.28 394.568C771.048 393.764 760.6 392.905 751.406 394.249C749.062 394.615 747.164 395.279 746.066 396.118C744.969 396.957 744.746 397.914 745.441 398.808C747.493 401.815 754.445 402.245 758.435 402.508C770.402 403.284 782.028 404.67 794.148 404.101C797.947 403.935 827.05 401.912 827.164 399.016C827.164 398.78 805.014 395.621 802.507 395.136C793.863 393.497 784.666 392.281 775.151 391.519C765.762 390.674 755.993 390.551 746.467 391.159C740.274 391.589 729.636 391.159 724.507 394.18C718.998 397.436 735.145 400.083 737.349 400.526C746.023 402.315 755.294 403.689 764.932 404.614C783.788 406.646 803.885 406.559 822.605 404.365C824.428 404.143 826.404 403.894 828.152 403.616C828.152 403.367 828.152 403.104 828.152 402.854C821.412 403.808 814.363 404.441 807.18 404.739Z" fill="url(#paint26_linear_0_15)"/>
<path d="M6.78449 394.249C24.2612 397.408 42.536 395.358 60.2027 394.526C78.6292 393.653 624.055 387.404 642.139 390.369C660.224 393.334 676.713 392.198 693.505 398.06C697.305 399.445 740.617 411.543 741.794 408.411C741.49 409.145 720.746 404.905 718.733 404.379C709.875 402.184 701.399 399.792 693.353 397.214C676.599 391.478 659.882 392.115 642.101 389.552C632.945 388.166 155.792 389.552 146.294 389.552C136.796 389.552 67.7249 393.404 58.4167 393.889C48.9407 394.46 39.3706 394.798 29.7704 394.9C24.9895 394.922 20.2151 394.764 15.523 394.429C13.6234 394.277 11.7238 394.097 9.86214 393.916C13.6614 394.291 3.70707 393.764 6.78449 394.318C23.0834 397.214 6.32858 394.138 6.78449 394.249Z" fill="url(#paint27_linear_0_15)"/>
<path d="M6.93608 405.889C43.3332 407.607 130.831 399.501 162.973 400.734C178.816 401.344 662.389 400.665 677.89 402.979C681.917 403.603 725.305 409.658 725.495 408.522C725.495 408.716 684.235 402.979 680.36 402.439C663.605 399.944 178.398 400.388 161.263 399.75C153.664 399.473 31.7071 404.545 6.63184 405.127C6.77181 405.379 6.87358 405.633 6.93608 405.889Z" fill="url(#paint28_linear_0_15)"/>
<path d="M9.89924 409.395C36.4942 409.395 122.966 404.295 149.447 404.753C162.365 404.974 643.772 402.951 656.386 404.947C659.311 405.404 688.604 412.028 688.946 411.598C689.288 411.169 660.983 404.961 658.552 404.545C644.418 402.023 161.377 404.088 146.826 403.866C133.718 403.644 60.886 408.023 47.7405 408.189L27.3003 408.328C23.501 408.328 19.7014 408.397 15.6362 408.466L9.78562 408.55C9.61748 408.602 9.48219 408.666 9.38955 408.739C9.29691 408.812 9.24902 408.892 9.24902 408.972C9.24902 409.053 9.29691 409.132 9.38955 409.205C9.48219 409.278 9.61748 409.343 9.78562 409.395C22.8932 409.395 9.17738 409.381 9.89924 409.395Z" fill="url(#paint29_linear_0_15)"/>
</g>
<path d="M16.5102 378.535C15.2565 378.535 1.57878 378.438 3.44043 379.99C3.44043 382.54 3.93417 385.187 3.74421 387.819C3.47826 391.422 2.26274 394.208 7.8097 395.482C4.42834 396.064 4.54206 396.051 4.69403 398.614C4.69403 400.956 2.45276 405.279 6.44202 406.291C2.33879 406.471 4.08629 411.834 4.84615 413.926C5.90995 416.975 3.63038 417.986 8.64543 418C21.411 418 34.1765 417.432 46.9421 417.196C71.1815 416.739 95.3073 417.903 119.471 415.991C143.634 414.078 635.566 411.834 659.425 412.263C684.425 412.693 709.462 411.238 734.461 411.681C757.523 412.069 780.547 410.808 803.722 410.794C808.883 410.834 814.027 411.019 819.109 411.349C820.667 411.46 826.708 412.138 827.695 411.834C827.695 412.138 828.721 405.113 828.873 403.949C829.329 399.501 828.874 394.97 828.608 390.508C828.418 386.475 828.266 382.415 828.152 378.383C828.038 374.35 825.378 375.75 820.819 375.39C809.979 374.572 798.879 374.311 787.841 374.614C778.989 374.849 769.719 373.685 760.676 373.588C748.291 373.464 735.905 373.588 723.519 373.796C697.266 374.212 671.203 376.152 644.95 376.18C632.298 376.18 151.347 379.2 138.733 379.561C132.084 379.741 125.435 380.06 118.749 380.212C115.928 380.288 113.097 380.288 110.276 380.212C110.618 380.212 102.678 379.921 106.477 380.517C91.2799 380.267 76.5388 379.658 61.4556 379.879C46.4942 379.881 31.5596 379.417 16.814 378.494L16.5102 378.535ZM25.1722 380.364C40.9393 381.847 56.4405 381.099 72.3215 380.988C88.2025 380.877 103.4 381.39 118.901 381.223C135.124 381.071 151.271 380.35 167.494 380.295C185.047 380.226 670.937 377.635 688.452 376.568C720.518 374.628 752.584 375.182 784.46 375.695C797.568 375.902 812.233 375.695 824.694 377.288C828.95 377.842 826.518 405.737 827.24 410.199C823.022 409.062 816.108 409.811 811.586 409.658C803.991 409.451 796.36 409.502 788.791 409.811C774.354 410.337 758.396 412.152 744.149 411.196C714.097 409.159 683.665 411.515 653.498 410.947C639.137 410.67 156.286 413.344 141.887 413.718C126.69 414.009 111.492 415.644 96.2952 416.088C81.0981 416.531 66.6225 416.088 51.7672 416.157C36.912 416.226 21.373 417.072 6.17581 417.085C6.7457 415.104 5.56825 412.818 5.56825 410.781C5.56825 409.686 5.56825 408.577 5.56825 407.483C6.3661 407.413 10.9631 407.76 11.077 406.776C11.077 404.836 5.53017 406.305 5.94809 403.381C6.29012 401.276 6.29012 399.166 5.94809 397.062C7.01189 396.799 10.659 396.66 10.9629 395.676C11.2669 394.693 6.51787 394.291 5.834 394.069C4.08633 393.501 4.84626 391.007 4.96024 390.037C5.30217 387.916 3.85854 379.699 6.48005 379.63C12.7707 379.558 19.0528 379.848 25.0962 380.489C29.6553 380.78 24.3745 380.295 25.3244 380.364H25.1722Z" fill="url(#paint30_linear_0_15)"/>
<path d="M203.245 4.74206C194.05 4.74206 184.818 4.74206 175.586 4.83906C165.746 4.90834 155.982 4.24321 146.18 4.35406C125.398 4.57577 104.387 5.73976 83.7572 5.94762C63.1271 6.15547 43.2948 6.1139 22.9686 5.73976C20.5751 5.73976 1.65469 5.93376 1.65469 6.3079C1.65469 8.6636 -0.0169973 11.532 5.45398 11.8507C3.36437 12.0031 2.0727 11.241 1.27485 11.241C-0.89074 11.241 0.324716 27.2874 0.476688 28.9226C0.818623 31.9573 1.2369 34.9365 1.31288 37.9573C1.38887 40.9782 1.08491 41.768 6.51789 41.7542C30.2254 41.7542 54.2746 41.2276 77.9442 41.8789C100.74 42.5163 123.308 40.5763 146.331 40.6456C169.355 40.7149 192.227 40.8396 215.25 40.4377C238.274 40.0359 735.259 38.8996 758.548 37.6663C770.207 36.9386 782.016 36.5816 793.844 36.5994C799.695 36.5994 805.546 36.7241 811.435 36.6964C816.45 36.6964 824.846 37.5139 829.481 36.3084C829.481 36.3084 828.607 22.3543 828.721 20.8855C829.025 14.4558 830.963 7.40261 829.481 1.05609C828.987 -0.939322 770.44 0.834377 764.02 0.903662C749.392 1.06995 734.765 0.903663 720.138 0.986805C705.51 1.06995 217.758 4.81134 203.169 4.78363L203.245 4.74206Z" fill="url(#paint31_linear_0_15)"/>
<path style="mix-blend-mode:multiply" opacity="0.5" d="M823.175 30.1696C808.093 31.0172 792.843 31.4066 777.584 31.3336C743.162 31.4583 235.273 33.3152 200.852 33.8971C165.442 34.4791 130.223 36.0173 94.8521 34.6039C77.4513 33.8971 60.0505 33.0657 42.5358 32.7886C28.5363 32.665 14.5748 32.2021 0.743652 31.4029C0.97161 33.4121 1.16159 35.4353 1.23758 37.4723C1.23758 40.4515 1.0096 41.2691 6.44258 41.2691C30.1501 41.2691 54.1993 40.7425 77.8689 41.3938C100.665 42.0174 123.232 40.0912 146.256 40.1467C169.28 40.2021 192.151 40.3545 215.175 39.9527C238.199 39.5508 735.146 38.4007 758.473 37.0981C770.132 36.375 781.942 36.0226 793.769 36.045C799.62 36.045 805.471 36.1558 811.359 36.1281C816.374 36.1281 824.771 36.9457 829.368 35.7263C829.368 35.7263 829.368 32.9549 829.102 29.8093L823.175 30.1696Z" fill="url(#paint32_linear_0_15)"/>
<path style="mix-blend-mode:multiply" opacity="0.5" d="M720.214 0.90345C705.663 1.00045 217.834 4.72799 203.245 4.70027C194.051 4.70027 184.894 4.70027 175.7 4.79727C165.86 4.86656 156.096 4.20142 146.294 4.31228C125.512 4.53399 104.502 5.69798 83.8717 5.90583C63.2416 6.11369 43.4093 6.07212 23.0832 5.69798C20.6896 5.69798 1.76922 5.89198 1.76922 6.26612C1.76922 8.62181 0.0975362 11.4902 5.56851 11.8089C3.4789 11.9614 2.18677 11.1992 1.38892 11.1992C0.591073 11.1992 0.477409 12.3355 0.287445 14.0399C4.58249 13.7612 8.92266 13.5853 13.2807 13.5133C29.5037 13.2501 45.7649 12.9313 61.9878 12.7651C79.2746 12.5849 96.5614 13.0145 113.81 12.6126C148.688 11.772 183.59 11.2223 218.518 10.9636C251.838 10.7142 758.663 7.16682 791.983 7.63796C804.482 7.80425 817.324 7.84582 829.976 8.37239C830.169 5.89538 830.017 3.41638 829.52 0.94502C829.026 -1.05039 770.478 0.723308 764.058 0.792594C749.468 1.02816 734.841 0.90345 720.214 0.90345Z" fill="url(#paint33_linear_0_15)"/>
<g style="mix-blend-mode:multiply">
<path d="M806.724 33.1489C814.322 33.1489 821.921 33.1489 829.519 33.3429C829.519 33.038 829.519 32.747 829.519 32.4422C820.439 32.2759 811.321 32.262 802.278 32.3175C763.982 32.5253 251.99 37.2783 213.769 35.0889C194.772 34.0357 176.764 31.6385 157.729 31.6246C138.676 31.543 119.63 31.9598 100.74 32.8717C81.4509 33.782 62.0231 34.2448 42.5732 34.2574C39.5338 34.2574 18.2958 34.396 2.71875 34.9226C2.75235 35.1025 2.75235 35.2831 2.71875 35.463C17.9159 35.1027 38.5459 34.9087 41.5093 34.881C60.9959 34.8689 80.4655 34.4618 99.8283 33.6616C118.877 32.7783 138.073 32.3847 157.273 32.4837C177.524 32.4837 196.938 35.0057 216.96 36.0866C255.333 38.2344 767.933 33.232 806.724 33.1489Z" fill="url(#paint34_linear_0_15)"/>
<path d="M722.265 19.9847C740.768 20.8161 759.233 21.8277 777.811 22.1741C794.046 22.2666 810.281 22.026 826.442 21.4536C826.442 21.2596 826.442 21.0656 826.442 20.8716C814.213 21.4599 801.884 21.7238 789.551 21.6614C753.04 21.509 242.454 22.6037 206.284 20.2757C187.972 19.1117 169.546 20.3727 151.347 21.7861C133.077 23.2296 114.556 24.2111 95.915 24.7238C89.0383 24.8901 33.9489 26.4698 3.5166 27.3012C3.5166 27.3982 3.5166 27.4814 3.5166 27.5507C3.5166 27.6199 3.5166 27.7585 3.5166 27.8694C32.5811 27.3844 83.5295 25.9017 89.9123 25.7354C107.382 25.3176 124.75 24.4517 141.887 23.1441C160.161 21.7584 178.816 20.1371 197.318 20.5529C214.415 20.9547 705.169 19.2226 722.265 19.9847Z" fill="url(#paint35_linear_0_15)"/>
<path d="M826.215 14.7606C826.215 14.4835 826.215 14.1925 826.215 13.9292C821.383 14.519 816.409 14.9412 811.36 15.1902C789.59 16.2156 767.44 15.6752 745.67 15.786C723.9 15.8969 230.525 17.8369 209.438 16.9084C199.362 16.3752 189.217 16.0284 179.044 15.8692C169.014 15.786 158.072 16.659 148.65 16.7144C170.762 16.6036 192.19 16.465 214.226 17.7537C236.261 19.0424 731.347 16.4927 753.497 16.368C775.646 16.2433 798.024 17.0609 819.832 15.3287C821.985 15.1795 824.116 14.9899 826.215 14.7606Z" fill="url(#paint36_linear_0_15)"/>
<path d="M827.203 24.6406C821.466 24.7515 817.211 24.8069 816.033 24.793C801.9 24.793 787.728 25.1395 773.557 24.9178C759.385 24.696 745.367 23.0748 731.195 22.3681C703.46 20.9824 200.701 21.9385 173.004 24.5991C159.706 25.86 146.979 27.7862 133.453 27.8416C118.902 27.8416 103.933 28.9086 89.8374 29.3659C104.541 28.8809 119.206 28.382 133.909 28.2019C148.612 28.0217 162.898 25.86 177.525 24.7376C205.336 22.6036 708.019 21.9662 735.792 23.3519C748.52 23.9755 760.905 25.4998 773.785 25.7215C787.956 25.9293 802.165 25.5136 816.337 25.5829C820.136 25.5829 823.936 25.5829 827.469 25.5829C827.393 25.2088 827.279 24.9178 827.203 24.6406Z" fill="url(#paint37_linear_0_15)"/>
<path d="M101.805 19.9154C86.0329 21.4107 69.8974 22.3389 53.6295 22.6868C37.4825 23.0332 21.2599 21.8415 5.03691 21.9108C4.07536 21.889 3.11097 21.889 2.14941 21.9108V22.5482H5.37872C21.0318 22.5482 36.7988 23.6291 52.4139 23.2965C68.233 23.0374 83.9401 22.1971 99.297 20.7884C107.997 19.957 116.698 19.0978 125.36 18.1417C130.071 17.629 140.291 17.1717 142.647 15.7029C140.405 17.0886 130.603 17.0886 127.45 17.3934C119.053 18.2803 110.429 19.1117 101.805 19.9154Z" fill="url(#paint38_linear_0_15)"/>
<path d="M2.52865 9.73054C16.51 10.4788 30.3394 11.6844 44.3208 12.7929C63.041 14.3056 82.1375 15.1136 101.31 15.2041C110.466 15.2041 119.547 14.9546 128.703 14.6775C135.139 14.69 141.572 14.5604 147.965 14.2895C140.367 14.8438 132.35 14.1094 124.904 14.2895C115.329 14.5112 105.907 14.6359 96.1051 14.5389C77.2116 14.2789 58.4375 13.3272 40.0656 11.6982C27.452 10.6451 14.8384 9.59197 2.07275 8.92683C2.18673 9.21783 2.30069 9.46726 2.52865 9.73054Z" fill="url(#paint39_linear_0_15)"/>
<path d="M117.685 5.25468C124.904 6.09996 132.084 7.00067 139.303 7.8598C157.725 10.115 176.732 11.6752 196.027 12.5158C205.107 12.8899 687.616 10.1462 696.772 10.2294C703.166 10.4961 709.599 10.6211 716.035 10.6035C708.436 10.8668 227.105 12.682 219.658 12.5573C210.084 12.4188 200.661 12.1555 190.935 11.6705C172.052 10.6573 153.487 8.97258 135.504 6.64039L122.966 5.06068C121.219 5.16666 119.455 5.23146 117.685 5.25468Z" fill="url(#paint40_linear_0_15)"/>
<path d="M143.596 37.0566C133.637 37.3215 123.788 37.9861 114.228 39.0381C112.708 39.2044 102.146 40.5624 94.8135 41.6571L97.3207 41.7264C103.741 40.8395 111.226 39.8003 112.518 39.6755C123.504 38.4644 134.865 37.7614 146.332 37.5831C156.818 37.2988 167.361 37.4944 177.714 38.1651C183.379 38.6151 188.904 39.2744 194.202 40.1328L195.646 40.3545C197.394 40.216 199.18 40.0913 200.927 40.0081C192.911 39.3291 185.123 37.9573 177.03 37.3891C165.972 36.7512 154.733 36.6394 143.596 37.0566Z" fill="url(#paint41_linear_0_15)"/>
</g>
<path d="M203.245 4.74206C194.05 4.74206 184.818 4.74206 175.586 4.83906C165.746 4.90834 155.982 4.24321 146.18 4.35406C125.398 4.57577 104.387 5.73976 83.7572 5.94762C63.1271 6.15547 43.2948 6.1139 22.9686 5.73976C20.5751 5.73976 1.65469 5.93376 1.65469 6.3079C1.65469 8.6636 -0.0169973 11.532 5.45398 11.8507C3.36437 12.0031 2.0727 11.241 1.27485 11.241C-0.89074 11.241 0.324716 27.2874 0.476688 28.9226C0.818623 31.9573 1.2369 34.9365 1.31288 37.9573C1.38887 40.9782 1.08491 41.768 6.51789 41.7542C30.2254 41.7542 54.2746 41.2276 77.9442 41.8789C100.74 42.5163 123.308 40.5763 146.331 40.6456C169.355 40.7149 192.227 40.8396 215.25 40.4377C238.274 40.0359 735.259 38.8996 758.548 37.6663C770.207 36.9386 782.016 36.5816 793.844 36.5994C799.695 36.5994 805.546 36.7241 811.435 36.6964C816.45 36.6964 824.846 37.5139 829.481 36.3084C829.481 36.3084 828.607 22.3543 828.721 20.8855C829.025 14.4558 830.963 7.40261 829.481 1.05609C828.987 -0.939322 770.44 0.834377 764.02 0.903662C749.392 1.06995 734.765 0.903663 720.138 0.986805C705.51 1.06995 217.758 4.81134 203.169 4.78363L203.245 4.74206ZM827.468 9.52273C827.468 14.6083 826.898 19.6661 827.012 24.7655C826.995 27.278 827.325 29.7893 828 32.2898C829.215 36.2114 828.303 35.4908 821.693 35.5601C802.392 35.7402 783.054 35.1721 763.792 36.3084C754.673 36.8488 744.795 38.1098 735.715 37.5416C725.466 36.9202 715.101 36.5866 704.712 36.5439C684.196 36.3915 190.251 39.7726 169.735 39.925C160.617 39.9943 151.537 39.731 142.38 39.7588C132.578 39.7588 122.738 40.7565 113.012 40.7288C104.691 40.7288 96.4849 41.8096 88.1265 41.6017C78.5903 41.3523 69.13 40.6595 59.5558 40.7149C49.9816 40.7703 40.5595 40.9782 31.1752 41.1029C22.4749 41.2415 13.6985 40.6317 5.03611 40.8673C1.23682 40.9782 2.98438 38.3453 3.02238 36.9319C3.02238 34.5347 2.49027 32.1651 2.3383 29.754C1.92038 24.1142 2.75622 18.4328 2.3383 12.8068C3.70604 13.181 7.96137 12.3357 8.64525 11.823C9.32912 11.3103 4.84616 10.9639 4.58021 10.8807C2.45261 10.3957 3.25009 7.85989 3.25009 6.72361C10.8487 7.36103 18.4472 6.51576 26.0458 6.72361C33.6444 6.93147 41.8508 7.00075 49.7914 6.9869C65.799 6.9869 81.7818 6.87142 97.7388 6.64047C113.582 6.41876 129.311 5.82291 145.116 5.4072C160.921 4.99148 176.878 5.79519 192.645 5.76748C207.842 5.76748 696.164 2.70508 711.324 2.16465C726.483 1.62423 740.54 2.31708 755.129 2.09537C769.718 1.87365 785.03 1.72123 799.999 1.61037C807.369 1.61037 814.74 1.34709 822.148 1.38866C822.414 1.62423 827.201 1.4718 827.733 1.49951C828.189 4.18778 827.468 6.86218 827.43 9.53659C827.468 12.6128 827.506 6.84832 827.468 9.52273Z" fill="url(#paint42_linear_0_15)"/>
<g filter="url(#filter0_d_0_15)">
<path d="M709.83 102L704.057 96.2265L698.283 102L704.057 107.774L709.83 102ZM121.057 103H704.057V101H121.057V103Z" fill="black"/>
</g>
<g filter="url(#filter1_d_0_15)">
<path d="M709.83 172L704.057 166.226L698.283 172L704.057 177.774L709.83 172ZM121.057 173H704.057V171H121.057V173Z" fill="black"/>
</g>
<g filter="url(#filter2_d_0_15)">
<path d="M709.83 242L704.057 236.226L698.283 242L704.057 247.774L709.83 242ZM121.057 243H704.057V241H121.057V243Z" fill="black"/>
</g>
<g filter="url(#filter3_d_0_15)">
<path d="M709.83 312L704.057 306.226L698.283 312L704.057 317.774L709.83 312ZM121.057 313H704.057V311H121.057V313Z" fill="black"/>
</g>
<defs>
<filter id="filter0_d_0_15" x="117.057" y="96.2265" width="596.773" height="19.547" filterUnits="userSpaceOnUse" color-interpolation-filters="sRGB">
<feFlood flood-opacity="0" result="BackgroundImageFix"/>
<feColorMatrix in="SourceAlpha" type="matrix" values="0 0 0 0 0 0 0 0 0 0 0 0 0 0 0 0 0 0 127 0" result="hardAlpha"/>
<feOffset dy="4"/>
<feGaussianBlur stdDeviation="2"/>
<feComposite in2="hardAlpha" operator="out"/>
<feColorMatrix type="matrix" values="0 0 0 0 0 0 0 0 0 0 0 0 0 0 0 0 0 0 0.25 0"/>
<feBlend mode="normal" in2="BackgroundImageFix" result="effect1_dropShadow_0_15"/>
<feBlend mode="normal" in="SourceGraphic" in2="effect1_dropShadow_0_15" result="shape"/>
</filter>
<filter id="filter1_d_0_15" x="117.057" y="166.226" width="596.773" height="19.547" filterUnits="userSpaceOnUse" color-interpolation-filters="sRGB">
<feFlood flood-opacity="0" result="BackgroundImageFix"/>
<feColorMatrix in="SourceAlpha" type="matrix" values="0 0 0 0 0 0 0 0 0 0 0 0 0 0 0 0 0 0 127 0" result="hardAlpha"/>
<feOffset dy="4"/>
<feGaussianBlur stdDeviation="2"/>
<feComposite in2="hardAlpha" operator="out"/>
<feColorMatrix type="matrix" values="0 0 0 0 0 0 0 0 0 0 0 0 0 0 0 0 0 0 0.25 0"/>
<feBlend mode="normal" in2="BackgroundImageFix" result="effect1_dropShadow_0_15"/>
<feBlend mode="normal" in="SourceGraphic" in2="effect1_dropShadow_0_15" result="shape"/>
</filter>
<filter id="filter2_d_0_15" x="117.057" y="236.226" width="596.773" height="19.547" filterUnits="userSpaceOnUse" color-interpolation-filters="sRGB">
<feFlood flood-opacity="0" result="BackgroundImageFix"/>
<feColorMatrix in="SourceAlpha" type="matrix" values="0 0 0 0 0 0 0 0 0 0 0 0 0 0 0 0 0 0 127 0" result="hardAlpha"/>
<feOffset dy="4"/>
<feGaussianBlur stdDeviation="2"/>
<feComposite in2="hardAlpha" operator="out"/>
<feColorMatrix type="matrix" values="0 0 0 0 0 0 0 0 0 0 0 0 0 0 0 0 0 0 0.25 0"/>
<feBlend mode="normal" in2="BackgroundImageFix" result="effect1_dropShadow_0_15"/>
<feBlend mode="normal" in="SourceGraphic" in2="effect1_dropShadow_0_15" result="shape"/>
</filter>
<filter id="filter3_d_0_15" x="117.057" y="306.227" width="596.773" height="19.547" filterUnits="userSpaceOnUse" color-interpolation-filters="sRGB">
<feFlood flood-opacity="0" result="BackgroundImageFix"/>
<feColorMatrix in="SourceAlpha" type="matrix" values="0 0 0 0 0 0 0 0 0 0 0 0 0 0 0 0 0 0 127 0" result="hardAlpha"/>
<feOffset dy="4"/>
<feGaussianBlur stdDeviation="2"/>
<feComposite in2="hardAlpha" operator="out"/>
<feColorMatrix type="matrix" values="0 0 0 0 0 0 0 0 0 0 0 0 0 0 0 0 0 0 0.25 0"/>
<feBlend mode="normal" in2="BackgroundImageFix" result="effect1_dropShadow_0_15"/>
<feBlend mode="normal" in="SourceGraphic" in2="effect1_dropShadow_0_15" result="shape"/>
</filter>
<linearGradient id="paint0_linear_0_15" x1="665.02" y1="199.25" x2="833.608" y2="300.373" gradientUnits="userSpaceOnUse">
<stop stop-color="#F3C8A2"/>
<stop offset="0.7" stop-color="#E9A967"/>
<stop offset="0.93" stop-color="#DD9B5E"/>
</linearGradient>
<linearGradient id="paint1_linear_0_15" x1="827.023" y1="404.037" x2="825.263" y2="19.9814" gradientUnits="userSpaceOnUse">
<stop stop-color="#F3C8A2"/>
<stop offset="0.55" stop-color="#E9A967"/>
<stop offset="0.93" stop-color="#DD9B5E"/>
</linearGradient>
<linearGradient id="paint2_linear_0_15" x1="805.296" y1="403.125" x2="803.541" y2="20.3443" gradientUnits="userSpaceOnUse">
<stop stop-color="#F3C8A2"/>
<stop offset="0.55" stop-color="#E9A967"/>
<stop offset="0.93" stop-color="#DD9B5E"/>
</linearGradient>
<linearGradient id="paint3_linear_0_15" x1="792.065" y1="282.689" x2="790.865" y2="20.8735" gradientUnits="userSpaceOnUse">
<stop stop-color="#F3C8A2"/>
<stop offset="0.55" stop-color="#E9A967"/>
<stop offset="0.93" stop-color="#DD9B5E"/>
</linearGradient>
<linearGradient id="paint4_linear_0_15" x1="809.617" y1="328.937" x2="808.192" y2="18.1333" gradientUnits="userSpaceOnUse">
<stop stop-color="#F3C8A2"/>
<stop offset="0.55" stop-color="#E9A967"/>
<stop offset="0.93" stop-color="#DD9B5E"/>
</linearGradient>
<linearGradient id="paint5_linear_0_15" x1="794.273" y1="401.928" x2="793.749" y2="287.463" gradientUnits="userSpaceOnUse">
<stop stop-color="#F3C8A2"/>
<stop offset="0.55" stop-color="#E9A967"/>
<stop offset="0.93" stop-color="#DD9B5E"/>
</linearGradient>
<linearGradient id="paint6_linear_0_15" x1="778.985" y1="401.514" x2="778.444" y2="283.5" gradientUnits="userSpaceOnUse">
<stop stop-color="#F3C8A2"/>
<stop offset="0.55" stop-color="#E9A967"/>
<stop offset="0.93" stop-color="#DD9B5E"/>
</linearGradient>
<linearGradient id="paint7_linear_0_15" x1="825.306" y1="318.929" x2="824.958" y2="242.988" gradientUnits="userSpaceOnUse">
<stop stop-color="#F3C8A2"/>
<stop offset="0.55" stop-color="#E9A967"/>
<stop offset="0.93" stop-color="#DD9B5E"/>
</linearGradient>
<linearGradient id="paint8_linear_0_15" x1="806.178" y1="404.465" x2="804.406" y2="17.8735" gradientUnits="userSpaceOnUse">
<stop stop-color="#CC5000"/>
<stop offset="1" stop-color="#981E00"/>
</linearGradient>
<linearGradient id="paint9_linear_0_15" x1="35.4864" y1="408.261" x2="33.697" y2="17.8584" gradientUnits="userSpaceOnUse">
<stop stop-color="#F3C8A2"/>
<stop offset="0.55" stop-color="#E9A967"/>
<stop offset="0.93" stop-color="#DD9B5E"/>
</linearGradient>
<linearGradient id="paint10_linear_0_15" x1="51.4364" y1="405.804" x2="49.9428" y2="79.9515" gradientUnits="userSpaceOnUse">
<stop stop-color="#F3C8A2"/>
<stop offset="0.55" stop-color="#E9A967"/>
<stop offset="0.93" stop-color="#DD9B5E"/>
</linearGradient>
<linearGradient id="paint11_linear_0_15" x1="45.3724" y1="407.343" x2="43.5954" y2="19.6424" gradientUnits="userSpaceOnUse">
<stop stop-color="#F3C8A2"/>
<stop offset="0.55" stop-color="#E9A967"/>
<stop offset="0.93" stop-color="#DD9B5E"/>
</linearGradient>
<linearGradient id="paint12_linear_0_15" x1="34.2609" y1="407.976" x2="32.4765" y2="18.6678" gradientUnits="userSpaceOnUse">
<stop stop-color="#F3C8A2"/>
<stop offset="0.55" stop-color="#E9A967"/>
<stop offset="0.93" stop-color="#DD9B5E"/>
</linearGradient>
<linearGradient id="paint13_linear_0_15" x1="11.8174" y1="407.219" x2="11.3506" y2="305.392" gradientUnits="userSpaceOnUse">
<stop stop-color="#F3C8A2"/>
<stop offset="0.55" stop-color="#E9A967"/>
<stop offset="0.93" stop-color="#DD9B5E"/>
</linearGradient>
<linearGradient id="paint14_linear_0_15" x1="20.8528" y1="324.306" x2="20.3187" y2="207.762" gradientUnits="userSpaceOnUse">
<stop stop-color="#F3C8A2"/>
<stop offset="0.55" stop-color="#E9A967"/>
<stop offset="0.93" stop-color="#DD9B5E"/>
</linearGradient>
<linearGradient id="paint15_linear_0_15" x1="21.0711" y1="234.713" x2="20.0849" y2="19.5422" gradientUnits="userSpaceOnUse">
<stop stop-color="#F3C8A2"/>
<stop offset="0.55" stop-color="#E9A967"/>
<stop offset="0.93" stop-color="#DD9B5E"/>
</linearGradient>
<linearGradient id="paint16_linear_0_15" x1="12.8132" y1="222.195" x2="11.8872" y2="20.1895" gradientUnits="userSpaceOnUse">
<stop stop-color="#F3C8A2"/>
<stop offset="0.55" stop-color="#E9A967"/>
<stop offset="0.93" stop-color="#DD9B5E"/>
</linearGradient>
<linearGradient id="paint17_linear_0_15" x1="9.17432" y1="192.666" x2="8.38165" y2="19.7345" gradientUnits="userSpaceOnUse">
<stop stop-color="#F3C8A2"/>
<stop offset="0.55" stop-color="#E9A967"/>
<stop offset="0.93" stop-color="#DD9B5E"/>
</linearGradient>
<linearGradient id="paint18_linear_0_15" x1="8.16706" y1="398.312" x2="7.88815" y2="337.462" gradientUnits="userSpaceOnUse">
<stop stop-color="#F3C8A2"/>
<stop offset="0.55" stop-color="#E9A967"/>
<stop offset="0.93" stop-color="#DD9B5E"/>
</linearGradient>
<linearGradient id="paint19_linear_0_15" x1="35.4864" y1="408.261" x2="33.697" y2="17.8584" gradientUnits="userSpaceOnUse">
<stop stop-color="#CC5000"/>
<stop offset="1" stop-color="#981E00"/>
</linearGradient>
<linearGradient id="paint20_linear_0_15" x1="3.42394" y1="397.405" x2="827.943" y2="368.995" gradientUnits="userSpaceOnUse">
<stop stop-color="#F3C8A2"/>
<stop offset="0.55" stop-color="#E9A967"/>
<stop offset="0.93" stop-color="#DD9B5E"/>
</linearGradient>
<linearGradient id="paint21_linear_0_15" x1="832.803" y1="383.224" x2="-45.8342" y2="413.498" gradientUnits="userSpaceOnUse">
<stop stop-color="#853C17"/>
<stop offset="0.28" stop-color="#9E5A27"/>
<stop offset="0.68" stop-color="#D4A265"/>
<stop offset="1" stop-color="#FFC143"/>
</linearGradient>
<linearGradient id="paint22_linear_0_15" x1="798.998" y1="381.328" x2="798.968" y2="374.8" gradientUnits="userSpaceOnUse">
<stop stop-color="#F3C8A2"/>
<stop offset="0.55" stop-color="#E9A967"/>
<stop offset="0.93" stop-color="#DD9B5E"/>
</linearGradient>
<linearGradient id="paint23_linear_0_15" x1="416.988" y1="389.065" x2="416.941" y2="379.004" gradientUnits="userSpaceOnUse">
<stop stop-color="#F3C8A2"/>
<stop offset="0.55" stop-color="#E9A967"/>
<stop offset="0.93" stop-color="#DD9B5E"/>
</linearGradient>
<linearGradient id="paint24_linear_0_15" x1="417.192" y1="390.575" x2="417.159" y2="383.507" gradientUnits="userSpaceOnUse">
<stop stop-color="#F3C8A2"/>
<stop offset="0.55" stop-color="#E9A967"/>
<stop offset="0.93" stop-color="#DD9B5E"/>
</linearGradient>
<linearGradient id="paint25_linear_0_15" x1="760.616" y1="407.64" x2="760.522" y2="387.13" gradientUnits="userSpaceOnUse">
<stop stop-color="#F3C8A2"/>
<stop offset="0.55" stop-color="#E9A967"/>
<stop offset="0.93" stop-color="#DD9B5E"/>
</linearGradient>
<linearGradient id="paint26_linear_0_15" x1="776.026" y1="406.059" x2="775.955" y2="390.593" gradientUnits="userSpaceOnUse">
<stop stop-color="#F3C8A2"/>
<stop offset="0.55" stop-color="#E9A967"/>
<stop offset="0.93" stop-color="#DD9B5E"/>
</linearGradient>
<linearGradient id="paint27_linear_0_15" x1="374.334" y1="410.464" x2="374.233" y2="388.36" gradientUnits="userSpaceOnUse">
<stop stop-color="#F3C8A2"/>
<stop offset="0.55" stop-color="#E9A967"/>
<stop offset="0.93" stop-color="#DD9B5E"/>
</linearGradient>
<linearGradient id="paint28_linear_0_15" x1="366.231" y1="410.196" x2="366.179" y2="398.694" gradientUnits="userSpaceOnUse">
<stop stop-color="#F3C8A2"/>
<stop offset="0.55" stop-color="#E9A967"/>
<stop offset="0.93" stop-color="#DD9B5E"/>
</linearGradient>
<linearGradient id="paint29_linear_0_15" x1="349.271" y1="413.087" x2="349.224" y2="402.832" gradientUnits="userSpaceOnUse">
<stop stop-color="#F3C8A2"/>
<stop offset="0.55" stop-color="#E9A967"/>
<stop offset="0.93" stop-color="#DD9B5E"/>
</linearGradient>
<linearGradient id="paint30_linear_0_15" x1="3.42394" y1="397.405" x2="827.943" y2="368.995" gradientUnits="userSpaceOnUse">
<stop stop-color="#CC5000"/>
<stop offset="1" stop-color="#981E00"/>
</linearGradient>
<linearGradient id="paint31_linear_0_15" x1="0.212779" y1="23.0148" x2="829.666" y2="-5.56486" gradientUnits="userSpaceOnUse">
<stop stop-color="#F3C8A2"/>
<stop offset="0.55" stop-color="#E9A967"/>
<stop offset="0.93" stop-color="#DD9B5E"/>
</linearGradient>
<linearGradient id="paint32_linear_0_15" x1="839.533" y1="32.6793" x2="-44.8344" y2="63.1511" gradientUnits="userSpaceOnUse">
<stop stop-color="#853C17"/>
<stop offset="0.28" stop-color="#9E5A27"/>
<stop offset="0.68" stop-color="#D4A265"/>
<stop offset="1" stop-color="#FFC143"/>
</linearGradient>
<linearGradient id="paint33_linear_0_15" x1="837.706" y1="5.01288" x2="-44.9541" y2="35.4258" gradientUnits="userSpaceOnUse">
<stop stop-color="#853C17"/>
<stop offset="0.28" stop-color="#9E5A27"/>
<stop offset="0.68" stop-color="#D4A265"/>
<stop offset="1" stop-color="#FFC143"/>
</linearGradient>
<linearGradient id="paint34_linear_0_15" x1="415.957" y1="36.0482" x2="415.931" y2="30.3387" gradientUnits="userSpaceOnUse">
<stop stop-color="#F3C8A2"/>
<stop offset="0.55" stop-color="#E9A967"/>
<stop offset="0.93" stop-color="#DD9B5E"/>
</linearGradient>
<linearGradient id="paint35_linear_0_15" x1="414.962" y1="25.9225" x2="414.929" y2="18.7302" gradientUnits="userSpaceOnUse">
<stop stop-color="#F3C8A2"/>
<stop offset="0.55" stop-color="#E9A967"/>
<stop offset="0.93" stop-color="#DD9B5E"/>
</linearGradient>
<linearGradient id="paint36_linear_0_15" x1="487.673" y1="17.8009" x2="487.657" y2="14.3642" gradientUnits="userSpaceOnUse">
<stop stop-color="#F3C8A2"/>
<stop offset="0.55" stop-color="#E9A967"/>
<stop offset="0.93" stop-color="#DD9B5E"/>
</linearGradient>
<linearGradient id="paint37_linear_0_15" x1="458.64" y1="27.593" x2="458.613" y2="21.7866" gradientUnits="userSpaceOnUse">
<stop stop-color="#F3C8A2"/>
<stop offset="0.55" stop-color="#E9A967"/>
<stop offset="0.93" stop-color="#DD9B5E"/>
</linearGradient>
<linearGradient id="paint38_linear_0_15" x1="72.5621" y1="23.1404" x2="72.529" y2="15.9204" gradientUnits="userSpaceOnUse">
<stop stop-color="#F3C8A2"/>
<stop offset="0.55" stop-color="#E9A967"/>
<stop offset="0.93" stop-color="#DD9B5E"/>
</linearGradient>
<linearGradient id="paint39_linear_0_15" x1="75.0626" y1="15.2298" x2="75.0317" y2="8.49493" gradientUnits="userSpaceOnUse">
<stop stop-color="#F3C8A2"/>
<stop offset="0.55" stop-color="#E9A967"/>
<stop offset="0.93" stop-color="#DD9B5E"/>
</linearGradient>
<linearGradient id="paint40_linear_0_15" x1="416.95" y1="11.9443" x2="416.912" y2="3.65736" gradientUnits="userSpaceOnUse">
<stop stop-color="#F3C8A2"/>
<stop offset="0.55" stop-color="#E9A967"/>
<stop offset="0.93" stop-color="#DD9B5E"/>
</linearGradient>
<linearGradient id="paint41_linear_0_15" x1="147.853" y1="41.4068" x2="147.831" y2="36.7782" gradientUnits="userSpaceOnUse">
<stop stop-color="#F3C8A2"/>
<stop offset="0.55" stop-color="#E9A967"/>
<stop offset="0.93" stop-color="#DD9B5E"/>
</linearGradient>
<linearGradient id="paint42_linear_0_15" x1="0.212779" y1="23.0148" x2="829.666" y2="-5.56486" gradientUnits="userSpaceOnUse">
<stop stop-color="#CC5000"/>
<stop offset="1" stop-color="#981E00"/>
</linearGradient>
</defs>
</svg>
