<svg xmlns="http://www.w3.org/2000/svg" width="53" height="29" viewBox="0 0 53 29" fill="none">
  <path d="M46.1121 20.4932C44.6027 22.5124 41.9341 16.0573 41.5775 15.2688C40.2591 12.3778 38.5777 9.65982 35.7627 8.03803C34.5999 7.35796 33.2955 6.96038 31.9532 6.87691C30.611 6.79345 29.2679 7.02641 28.0308 7.55726C26.7704 8.13362 25.5765 8.84729 24.4706 9.68547C23.8783 10.1021 22.6045 11.4034 21.8721 11.4675C21.9804 11.2239 21.611 10.4996 21.5473 10.256C21.2634 8.7617 20.8148 7.30397 20.2098 5.90982C19.4959 4.53709 18.5033 3.33071 17.2964 2.36886C16.0895 1.40702 14.6953 0.711183 13.2041 0.326493C6.96256 -1.2953 0.899361 3.3329 0.0395623 9.60213C-0.597326 14.3201 6.65685 15.506 7.30648 10.7752C7.60581 8.57648 9.52919 6.7047 11.822 7.62137C14.5542 8.71111 14.1785 12.0573 15.1657 14.3714C15.6706 15.6573 16.5323 16.7701 17.6479 17.577C18.7635 18.384 20.0861 18.851 21.4581 18.9227C23.9547 19.006 26.0565 17.6406 28.0117 16.2496C29.3555 15.288 30.935 13.5573 32.5591 14.7368C34.9029 16.4419 35.5652 20.2303 36.9727 22.6342C39.9788 27.7624 47.6979 30.7047 51.8695 25.1278C54.6909 21.3265 48.9717 16.6662 46.1121 20.4932Z" fill="#916AAD"/>
</svg>