<svg xmlns="http://www.w3.org/2000/svg" width="63" height="38" viewBox="0 0 63 38" fill="none">
  <path d="M53.1069 4.93775C53.5336 8.06596 45.5279 4.69416 44.528 4.29673C40.834 2.89288 36.9745 1.9698 33.064 3.01467C31.4399 3.44204 29.9368 4.24363 28.6734 5.35614C27.41 6.46864 26.421 7.86159 25.7844 9.42493C25.1805 11.0511 24.7534 12.7383 24.5106 14.457C24.3577 15.3544 24.3577 17.6301 23.7654 18.3352C23.6508 18.0211 22.6891 17.6942 22.4216 17.5467C20.7657 16.5596 19.2945 15.4826 17.4411 14.8736C15.6091 14.2877 13.6752 14.0962 11.7649 14.3116C9.85462 14.5269 8.01069 15.1443 6.3529 16.1237C-0.595551 20.2006 -1.92665 29.6621 2.76722 35.9954C6.30832 40.7519 13.7854 35.3865 10.2315 30.6172C8.58201 28.3993 8.65843 25.0403 11.5053 23.8288C14.8745 22.3801 17.4602 25.6813 20.3517 26.8608C21.9211 27.5586 23.6572 27.7858 25.3518 27.5152C27.0463 27.2446 28.6273 26.4876 29.905 25.3352C32.1851 23.207 32.8729 20.1493 33.3888 17.1749C33.7391 15.1365 33.6244 12.207 36.0956 11.8224C39.6621 11.2583 43.5599 14.0403 46.9227 14.9249C54.0622 16.8159 63.4818 12.6044 62.3035 3.9698C61.4437 -1.90841 52.3235 -0.985325 53.1069 4.93775Z" fill="#916AAD"/>
</svg>