<svg xmlns="http://www.w3.org/2000/svg" width="96" height="62" viewBox="0 0 96 62" fill="none">
  <path d="M34.8898 61.1231C34.4734 61.1231 34.0507 61.1231 33.6088 61.1231C28.1965 60.9053 23.7962 59.0922 21.1766 55.9979C19.9347 56.7833 18.6092 57.4279 17.2246 57.9199C12.7411 59.4894 6.58587 59.2011 2.81971 55.0113C-1.66381 50.0271 -0.273903 42.3393 3.31932 37.6434C6.34891 33.6714 10.6595 31.1409 14.7972 29.0395C13.5195 27.4887 12.6674 25.6319 12.3248 23.6517C12.0055 21.9628 12.0293 20.2269 12.3946 18.5474C12.7599 16.8679 13.4594 15.279 14.4513 13.8755C17.9548 9.08984 24.821 6.89883 31.1428 8.5517C34.6624 9.51785 37.8755 11.3707 40.4749 13.9331C40.648 11.5554 41.3602 9.24825 42.5577 7.18691C43.7551 5.12556 45.4064 3.36413 47.386 2.03632C55.1937 -2.93509 65.3649 1.85053 70.6875 9.33968C73.7811 13.7089 74.8251 18.187 73.8388 21.9732C80.0709 20.4357 87.2125 22.2935 91.4526 27.2009C97.2171 33.8636 96.6535 45.0108 90.2549 51.0649C85.1308 55.9018 76.9836 56.8308 70.6875 53.8774C69.6329 55.1635 68.355 56.2487 66.915 57.0806C62.3727 59.6048 57.024 60.2531 52.0104 58.8872C51.0051 58.6176 50.0256 58.2595 49.0833 57.8173C48.3055 58.2324 47.5034 58.6004 46.6814 58.9193C42.9208 60.3766 38.9227 61.1239 34.8898 61.1231ZM24.1613 53.8261C26.8066 56.7347 31.2773 57.3497 33.7689 57.4458C37.7239 57.6037 41.6694 56.9496 45.362 55.5239L45.5733 55.4406C44.6174 54.5313 43.8738 53.4222 43.3956 52.1925C42.9863 51.0313 42.8698 49.7871 43.0564 48.5701C43.2429 47.3531 43.7269 46.201 44.4653 45.2158C45.0118 44.4165 45.7568 43.7729 46.6271 43.3484C47.4973 42.9238 48.4629 42.7329 49.4292 42.7942C50.3304 42.8814 51.1984 43.1797 51.9629 43.665C52.7274 44.1503 53.3668 44.8089 53.8294 45.5874C54.4324 46.5787 54.8033 47.6935 54.9143 48.8485C55.0252 50.0035 54.8733 51.1686 54.4699 52.2565C54.0276 53.368 53.3752 54.3839 52.5484 55.2484L52.9904 55.3765C57.0528 56.4638 61.3777 55.9478 65.0703 53.935C65.9904 53.4024 66.8241 52.7327 67.5426 51.949C67.1391 51.6287 66.7484 51.3084 66.3769 50.9304C64.987 49.585 63.6739 47.2211 63.8853 44.9852C63.937 44.3393 64.1374 43.714 64.4707 43.1583C64.804 42.6027 65.2613 42.1316 65.8068 41.782C66.4876 41.3254 67.2935 41.0919 68.1129 41.1137C68.9322 41.1355 69.7245 41.4116 70.38 41.9037C72.4617 43.3772 73.6466 46.6701 73.0189 49.2391C72.8982 49.74 72.7441 50.2323 72.5578 50.7126C77.496 52.9228 83.805 52.1605 87.7825 48.3935C92.8297 43.6271 93.2716 34.831 88.7305 29.5777C84.1893 24.3244 75.4272 23.4915 69.9765 27.7967C69.7897 27.9563 69.5728 28.0765 69.3384 28.1502C69.1041 28.2239 68.8572 28.2495 68.6128 28.2256C68.3683 28.2016 68.1312 28.1285 67.9157 28.0107C67.7001 27.8929 67.5105 27.7328 67.3583 27.54C67.206 27.3472 67.0943 27.1256 67.0297 26.8886C66.9651 26.6515 66.949 26.4039 66.9824 26.1605C67.0157 25.917 67.0978 25.6829 67.2238 25.472C67.3498 25.261 67.5171 25.0777 67.7156 24.933C72.2439 21.3454 70.7003 15.618 67.7156 11.4474C63.3794 5.34846 55.3282 1.30598 49.3523 5.11141C47.0791 6.64806 45.4015 8.91803 44.5995 11.5425C43.7976 14.1669 43.9197 16.9871 44.9457 19.5324C45.1102 19.9496 45.1155 20.4129 44.9604 20.8337C44.8054 21.2546 44.5008 21.6036 44.1049 21.8143C43.709 22.025 43.2494 22.0825 42.8138 21.9759C42.3782 21.8694 41.9971 21.6061 41.7431 21.2365C38.7584 16.4829 34.6976 13.2284 30.2141 12.0816C25.3078 10.8004 20.0301 12.4212 17.404 16.028C16.7065 17.0306 16.2169 18.1628 15.9639 19.3577C15.7109 20.5526 15.6996 21.7861 15.9308 22.9854C16.0796 23.9789 16.4311 24.9311 16.9633 25.783C17.4954 26.6349 18.1971 27.3683 19.0245 27.9376C19.2955 28.1131 19.5152 28.3573 19.6612 28.6453C19.8071 28.9334 19.874 29.255 19.8551 29.5773C19.8363 29.8997 19.7322 30.2113 19.5537 30.4804C19.3751 30.7494 19.1284 30.9662 18.8387 31.1088C14.3552 33.2998 9.34009 35.7791 6.23365 39.8536C3.4987 43.4349 2.49306 49.1686 5.54826 52.5577C8.17433 55.479 12.818 55.5943 16.0205 54.4796C17.2051 54.0569 18.3376 53.5001 19.396 52.8203C18.7968 51.0687 18.6753 49.189 19.0437 47.3748C19.2485 46.2368 19.705 45.1589 20.3799 44.22C21.0548 43.2812 21.931 42.5051 22.9444 41.9486C23.809 41.508 24.7683 41.2858 25.7385 41.3014C26.7087 41.317 27.6603 41.57 28.5103 42.0382C29.1125 42.3654 29.6196 42.8431 29.9822 43.4247C30.3447 44.0063 30.5504 44.672 30.5791 45.3568C30.6496 47.2787 29.3429 48.7202 28.6576 49.4889C27.2605 51.0365 25.7582 52.4857 24.1613 53.8261ZM49.0321 46.4139C48.7038 46.4359 48.3853 46.5342 48.1017 46.701C47.8182 46.8678 47.5775 47.0986 47.3988 47.3748C47.0308 47.8684 46.7855 48.4424 46.683 49.0495C46.5806 49.6566 46.6239 50.2793 46.8095 50.8663C47.2582 51.9529 48.018 52.8823 48.9936 53.5378C49.9227 52.8615 50.6528 51.9476 51.1073 50.892C51.3016 50.3361 51.3691 49.7439 51.3048 49.1586C51.2405 48.5733 51.0461 48.0098 50.7358 47.5094C50.5783 47.2159 50.3533 46.9641 50.0793 46.7748C49.8053 46.5854 49.4903 46.4639 49.1601 46.4203L49.0321 46.4139ZM25.6537 44.9404C25.3101 44.9329 24.9697 45.0076 24.6609 45.1582C24.1281 45.4724 23.67 45.8986 23.3183 46.4075C22.9666 46.9163 22.7297 47.4956 22.6241 48.1052C22.4714 48.856 22.4498 49.6276 22.5601 50.3859C23.7479 49.3184 24.8788 48.1893 25.9483 47.0032C26.2493 46.6765 26.9539 45.9078 26.9411 45.4721C26.9411 45.4209 26.9411 45.3184 26.6913 45.1838C26.3723 45.0143 26.0148 44.9304 25.6537 44.9404ZM67.9717 44.761C67.9037 44.768 67.8392 44.7948 67.786 44.8379C67.7057 44.8872 67.6401 44.9573 67.5961 45.0407C67.5522 45.1241 67.5315 45.2178 67.5362 45.312C67.5951 46.446 68.0937 47.5123 68.9261 48.2845L69.3681 48.6881C69.3681 48.5856 69.4257 48.4831 69.4513 48.3742C69.5595 47.7395 69.5065 47.0877 69.2972 46.4788C69.0879 45.8698 68.7291 45.3232 68.2536 44.8891C68.1845 44.8231 68.0977 44.7786 68.0038 44.761H67.9717Z" fill="#7BB7E7"/>
</svg>